<?xml version="1.0" standalone="no"?>
<!DOCTYPE svg PUBLIC "-//W3C//DTD SVG 1.1//EN" "http://www.w3.org/Graphics/SVG/1.1/DTD/svg11.dtd" >
<svg xmlns="http://www.w3.org/2000/svg">
<metadata></metadata>
<defs>
<font id="rhoderebel_mediumcondenseMdCn" horiz-adv-x="811" >
<font-face units-per-em="2048" ascent="1536" descent="-512" />
<missing-glyph horiz-adv-x="440" />
<glyph horiz-adv-x="2048" />
<glyph horiz-adv-x="2048" />
<glyph unicode="&#xd;" horiz-adv-x="2048" />
<glyph unicode=" "  horiz-adv-x="440" />
<glyph unicode="&#x09;" horiz-adv-x="440" />
<glyph unicode="&#xa0;" horiz-adv-x="440" />
<glyph unicode="!" horiz-adv-x="591" d="M49 821l94 92l-32 752h368l-33 -750l97 -94l-105 -104l-14 -303h-258l-14 307zM135 0v360h324v-360h-324z" />
<glyph unicode="&#x22;" horiz-adv-x="694" d="M51 1638h246l-41 -761h-164zM397 1638h246l-41 -761h-164z" />
<glyph unicode="#" horiz-adv-x="1359" d="M20 430l66 229h266l68 304h-305l65 229h291l107 473h167l-104 -473h248l106 473h168l-104 -473h280l-65 -229h-268l-68 -304h307l-65 -229h-293l-103 -453h-168l103 453h-250l-102 -453h-168l102 453h-281zM520 659h250l68 304h-250z" />
<glyph unicode="&#x26;" horiz-adv-x="1263" d="M51 449q0 112 49 212t142 201q-103 201 -103 416q0 165 99 276t276 111q70 0 129.5 -17t110 -55t79.5 -107t29 -163q0 -135 -70 -248t-198 -227q15 -22 57 -80.5t74.5 -108t52.5 -88.5q6 37 6 84q0 55 -6 117l-106 100h485l-90 -98q-4 -301 -41 -450q73 -78 299 -308v-16 h-367l-90 86q-129 -104 -333 -104q-78 0 -146.5 14.5t-131.5 49.5t-108 87.5t-71.5 133t-26.5 182.5zM383 457q0 -94 43.5 -145.5t122.5 -51.5q70 0 121 31q-174 189 -267 315q-20 -64 -20 -149zM432 1323q0 -133 45 -250q44 49 66 107t22 149q0 103 -61 103 q-34 0 -53 -28.5t-19 -80.5z" />
<glyph unicode="'" horiz-adv-x="419" d="M61 1638h297l-41 -761h-215z" />
<glyph unicode="(" horiz-adv-x="714" d="M57 750q0 122 29.5 257t77 253.5t94 210.5t94.5 167h297q-50 -81 -98 -176.5t-96.5 -216t-78.5 -253t-30 -247.5q0 -227 90 -472.5t213 -415.5h-297q-123 157 -209 404t-86 489z" />
<glyph unicode=")" horiz-adv-x="714" d="M66 -143q123 170 213 415.5t90 472.5q0 115 -30 247.5t-78.5 253t-96.5 216t-98 176.5h296q50 -75 98 -169t94 -211t74.5 -251t28.5 -257q0 -242 -86 -489t-209 -404h-296z" />
<glyph unicode="*" horiz-adv-x="878" d="M10 1278l66 201l258 -84v270h213v-270l258 84l63 -203l-258 -84l160 -219l-172 -123l-160 219l-159 -219l-170 125l159 219z" />
<glyph unicode="," horiz-adv-x="520" d="M88 0v401h336v-569l-221 -225l-115 119l168 163v111h-168z" />
<glyph unicode="-" d="M31 678v297h749v-297h-749z" />
<glyph unicode="." horiz-adv-x="458" d="M61 0v401h336v-401h-336z" />
<glyph unicode="0" horiz-adv-x="1038" d="M20 821l101 99v290q0 79 11.5 144.5t40 124.5t73.5 99t115.5 63.5t162.5 23.5t162 -23.5t114.5 -63.5t72 -99.5t38.5 -124t11 -144.5v-295l96 -94l-96 -98v-291q0 -100 -18.5 -177.5t-62 -142.5t-124 -100t-195.5 -35q-113 0 -193.5 35t-124 100t-62.5 142.5t-19 177.5 v287zM434 733q2 -106 2 -325q1 -29 1.5 -41t5.5 -35t13 -33.5t25 -19.5t41 -9q28 0 46 12t25.5 37t9.5 42t3 49q2 47 2 317l-90 94zM434 905l84 -84l90 90q0 269 -2 324q-1 33 -1.5 47t-5 36t-13 30.5t-24.5 16t-40 7.5t-41 -9.5t-25 -20t-13 -34.5t-5.5 -35.5t-1.5 -39.5 q0 -21 -1 -141.5t-1 -186.5z" />
<glyph unicode="1" horiz-adv-x="661" d="M31 1210v338l180 90h305v-720l96 -97l-96 -96v-666l59 -59h-126h-297l59 57v666l-98 98l98 97v380z" />
<glyph unicode="2" horiz-adv-x="856" d="M35 1055v231q0 379 381 379q364 0 364 -393v-109q0 -156 -47 -295l45 -47l-116 -123q-124 -233 -340 -405h272l174 192v-485h-727v301q31 41 111.5 137t133.5 172t93 160l-49 51l102 101q23 100 23 211v159q0 74 -10 104.5t-44 30.5q-63 0 -63 -120v-170l86 -82h-389z " />
<glyph unicode="3" horiz-adv-x="851" d="M43 338v235h412l-113 -106v-143q0 -55 17.5 -81t58.5 -26q55 0 69.5 65t14.5 218q0 111 -18.5 173t-51 83.5t-88.5 21.5h-98l-72 223h201q64 0 83 37t19 162v125q0 57 -15.5 82t-53.5 25q-68 0 -68 -107v-25l115 -108h-412v129q0 152 92.5 248t267.5 96q187 0 281 -102.5 t94 -319.5q0 -60 -9 -113t-30.5 -105.5t-64 -88.5t-101.5 -47q114 -15 173 -91.5t59 -224.5v-225q0 -161 -101 -263.5t-280 -102.5q-184 0 -282.5 93t-98.5 263z" />
<glyph unicode="4" horiz-adv-x="940" d="M10 317v240l445 1081h389l-58 -57v-1012h142l-80 -252h-62v-260l60 -57h-428l59 59v258h-467zM274 569h203v547z" />
<glyph unicode="5" horiz-adv-x="903" d="M39 397v215h416l-113 -106v-96q0 -76 22 -110t70 -34t62.5 31.5t17.5 108.5q2 37 2 159q0 123 -2 168q-4 79 -21 116.5t-71 37.5q-28 0 -48 -12.5t-31 -36.5t-15.5 -42.5t-8.5 -45.5l-245 12v876h733v-485l-174 193h-283l-10 -299q77 67 174 67q161 0 244.5 -101 t83.5 -278v-348q0 -211 -106.5 -310.5t-299.5 -99.5q-181 0 -289 111.5t-108 308.5z" />
<glyph unicode="6" horiz-adv-x="976" d="M20 821l95 97q-4 246 -4 292q-1 79 9 144.5t37.5 124.5t72 99t114.5 63.5t162 23.5q70 0 126 -14.5t94 -39t66 -61.5t44 -76t24.5 -89t10.5 -94.5t1 -98.5h-297l-8 108q-6 72 -61 72q-43 0 -60.5 -32.5t-19.5 -104.5q-4 -171 0 -234q72 62 178 62q147 0 222 -88.5 t81 -269.5q4 -129 0 -273q-2 -81 -13 -145t-38.5 -123.5t-71 -99.5t-113 -63.5t-161.5 -23.5q-406 0 -399 455q4 222 4 287zM426 408q0 -69 18.5 -102.5t69.5 -33.5q48 0 66.5 39t21.5 140q4 120 0 237q-3 74 -23 103.5t-63 29.5q-57 0 -90 -57v-356z" />
<glyph unicode="7" horiz-adv-x="876" d="M14 1153v485h807v-231l-135 -508l78 -78l-135 -133l-185 -688h-325l219 754l-66 67l119 119l119 406h-322z" />
<glyph unicode="8" horiz-adv-x="929" d="M53 395q4 108 0 187q-6 129 51.5 215t143.5 106q-82 20 -125.5 94.5t-40.5 184.5v94q-2 79 15.5 145.5t59.5 123t120.5 88.5t187.5 32t187.5 -32t120.5 -88.5t59.5 -123t15.5 -145.5v-94q3 -110 -40.5 -184.5t-125.5 -94.5q86 -20 143.5 -106t51.5 -215q-4 -79 0 -187 q5 -202 -101 -310t-311 -108q-228 0 -322.5 104t-89.5 314zM356 383q0 -117 109 -117q58 0 87.5 33.5t29.5 83.5v281q0 54 -29 85t-88 31q-109 0 -109 -116v-281zM391 1147q0 -28 1 -46t5.5 -37t12 -29.5t21.5 -17.5t34 -7q26 0 42 12t23 34.5t9 41.5t2 47v102q0 36 -2 56 t-9 40.5t-23 29.5t-42 9q-20 0 -34 -7t-21.5 -17.5t-12 -29.5t-5.5 -37t-1 -46v-98z" />
<glyph unicode="9" horiz-adv-x="962" d="M49 938q-4 143 0 272q3 91 15.5 158t40 125.5t71.5 94.5t111.5 56.5t158.5 20.5q211 0 302 -108.5t96 -329.5q4 -106 4 -312l94 -94l-94 -102q-4 -242 -4 -287q2 -99 -17.5 -178t-62.5 -143t-121 -99t-186 -35q-193 0 -286 115t-87 359h297l8 -109q3 -33 21 -53.5 t47 -20.5q25 0 40.5 9.5t22.5 31.5t8.5 42.5t1.5 56.5v233q-68 -61 -178 -61q-291 0 -303 358zM354 942q0 -62 16.5 -91.5t65.5 -29.5q35 0 60 20t34 52q0 33 0.5 115t0.5 142t-1 85q-1 33 -3.5 51t-10.5 40.5t-26.5 33t-47.5 10.5q-56 0 -72 -39t-16 -127v-262z" />
<glyph unicode=":" horiz-adv-x="499" d="M82 0v401h336v-401h-336zM82 791v401h336v-401h-336z" />
<glyph unicode=";" horiz-adv-x="499" d="M80 0v401h336v-569l-221 -225l-115 119l168 163v111h-168zM80 791v401h336v-401h-336z" />
<glyph unicode="?" horiz-adv-x="870" d="M57 0v360h324v-360h-324zM72 473v612h282v-124q0 -42 23.5 -66.5t62.5 -24.5q48 0 72.5 33.5t24.5 112.5v239q0 142 -91 142q-80 0 -90 -86l127 -129h-409v164q0 138 98.5 224.5t261.5 86.5q94 0 166 -21t128.5 -69t86 -132t29.5 -202v-268q0 -171 -76.5 -259t-216.5 -88 q-48 0 -103.5 19t-97.5 65v-229h-278z" />
<glyph unicode="@" horiz-adv-x="1626" d="M98 575q0 156 56.5 294.5t156.5 241t246 162.5t317 60q145 0 271.5 -53.5t214 -144t138 -212.5t50.5 -257q0 -130 -44.5 -240.5t-129 -179t-190.5 -68.5q-32 0 -56.5 2.5t-54 11t-50 23t-37 42t-23.5 65.5q-63 -144 -258 -144q-150 0 -224.5 87t-74.5 243q0 84 26 167.5 t75.5 156t133 118t186.5 45.5q60 0 112.5 -26t82.5 -74l14 61h135q-12 -93 -36 -276t-29 -227q-18 -148 94 -148q91 0 147 106t56 263q0 106 -42 203.5t-113 167.5t-169 111.5t-205 41.5q-89 0 -177 -24t-169 -75.5t-143.5 -123.5t-99.5 -177.5t-37 -228.5q0 -155 48.5 -275 t134.5 -193.5t196.5 -110.5t240.5 -37q97 0 192 33t157 80l67 -125q-33 -24 -61.5 -41t-81.5 -41t-125 -36.5t-158 -12.5q-128 0 -240.5 27.5t-208.5 87t-164.5 148t-107.5 216.5t-39 286zM580 516q0 -114 37 -161.5t110 -47.5q91 0 143.5 56t73.5 149q15 69 29 178 q4 28 -1.5 58t-20.5 59t-49 48t-81 19q-99 0 -170 -91.5t-71 -266.5z" />
<glyph unicode="A" horiz-adv-x="1073" d="M0 0l61 59l144 699l-64 63l99 99l135 663l-56 55h455l-59 -57l131 -666l92 -94l-61 -61l135 -703l61 -57h-440l55 57l-20 154h-277l-29 -152l62 -59h-424zM449 508h165l-82 582z" />
<glyph unicode="B" horiz-adv-x="1032" d="M49 821l94 94v664l-59 59h592q131 0 206.5 -74t75.5 -192v-346q0 -74 -31 -124.5t-85 -63.5q125 -34 125 -170v-371q0 -131 -94.5 -214t-233.5 -83h-553l57 55v672zM457 303h92q53 0 77.5 29t24.5 76q0 183 -2 210q-4 52 -26 74.5t-68 22.5h-98v-412zM457 977h90 q102 0 102 72v206q0 80 -102 80h-90v-358z" />
<glyph unicode="C" horiz-adv-x="950" d="M16 821l93 94v295q0 94 22 173t68.5 144t127.5 101.5t191 36.5q187 0 282 -124.5t95 -330.5v-215h-311q-2 160 -2 215q-2 73 -16 104.5t-56 31.5q-37 0 -52.5 -35t-17.5 -103q-6 -147 -6 -295l92 -92l-92 -92q1 -45 2 -157.5t2 -137.5q1 -22 1.5 -32.5t3 -29.5t7 -29.5 t12 -22t20 -16.5t28.5 -5q20 0 34 9t21 20.5t10.5 33.5t4 35.5t0.5 38.5v248h319v-252q0 -133 -41.5 -233.5t-131 -161t-216.5 -60.5q-191 0 -296 123.5t-105 321.5v303z" />
<glyph unicode="D" horiz-adv-x="1030" d="M49 821l96 94v666l-61 57h539q159 0 249.5 -88t90.5 -231v-983q0 -159 -82.5 -247.5t-216.5 -88.5h-578l59 59v668zM467 303h80q94 0 94 117v805q0 50 -29 78t-80 28h-65v-1028z" />
<glyph unicode="E" horiz-adv-x="952" d="M49 821l96 97v661l-59 59h823v-495l-176 188h-256v-350h326l-98 -309h-228v-369h256l176 191v-494h-823l59 59v662z" />
<glyph unicode="F" horiz-adv-x="911" d="M49 821l92 92v670l-55 55h799v-495l-176 188h-240v-344h328l-103 -321h-225v-617l49 -49h-426l49 49v680z" />
<glyph unicode="G" horiz-adv-x="983" d="M20 821l93 97v350q0 81 26.5 152t78 126t135 87t190.5 32q196 0 286.5 -105t90.5 -315v-174h-320v158q0 60 -22 88.5t-56 28.5q-84 0 -84 -119q0 -41 -2 -199.5t-2 -212.5q0 -218 6 -407q2 -57 21.5 -85t62.5 -28q44 0 65 27.5t21 87.5v276l-176 174h488v-860h-103 l-78 78q-82 -101 -235 -101q-391 0 -391 398v346z" />
<glyph unicode="H" horiz-adv-x="1112" d="M49 821l96 99v661l-57 57h426l-45 -47v-606h176v602l-53 51h426l-53 -53v-667l98 -97l-98 -94v-674l53 -53h-426l53 51v617h-176v-621l45 -47h-426l57 57v666z" />
<glyph unicode="I" horiz-adv-x="610" d="M49 821l94 92v674l-53 51h428l-53 -53v-670l96 -94l-96 -98v-670l53 -53h-426l51 51v676z" />
<glyph unicode="J" horiz-adv-x="694" d="M-14 301q64 -10 153 -10q45 0 75 32.5t30 86.5v317l-94 94l94 92v674l-54 51h428l-53 -53v-670l97 -94l-97 -100v-367q0 -196 -101 -278t-306 -82q-106 0 -164 10z" />
<glyph unicode="K" horiz-adv-x="1093" d="M70 821l96 99v645l-66 73h441l-58 -63v-490l224 506l-45 47h442l-84 -94l-307 -680l336 -788l71 -76h-444l33 33l-226 549v-519l58 -63h-441l66 72v653z" />
<glyph unicode="L" horiz-adv-x="862" d="M49 821l101 99v659l-62 59h438l-59 -57v-663l100 -97l-100 -100v-418h205l176 193v-496h-760l62 59v662z" />
<glyph unicode="M" horiz-adv-x="1566" d="M49 821l101 99v675l-48 43h564l-41 -41l161 -784l158 784l-41 41h561l-43 -43v-675l97 -99l-97 -100v-664l58 -57h-426l59 57v996l-217 -1012l43 -41h-309l41 41l-219 1012v-996l57 -57h-420l62 57v664z" />
<glyph unicode="N" horiz-adv-x="1204" d="M49 821l98 99v675l-43 43h426l-41 -41l259 -802v786l-60 57h428l-59 -57v-661l98 -99l-98 -100v-672l49 -49h-428l39 35l-260 831v-809l59 -57h-426l57 57v664z" />
<glyph unicode="O" horiz-adv-x="1062" d="M20 821l95 97q2 125 2 294q4 453 413 453q115 0 197 -33t129 -96t68 -142t22 -182q0 -60 1 -152t1 -142l94 -97l-94 -100q0 -39 -1 -137t-1 -152q0 -455 -418 -455q-113 0 -193.5 33t-126 96t-67 142t-24.5 184q0 17 -1 119t-1 170zM440 817q0 -309 6 -403 q4 -68 20.5 -104t61.5 -36q49 0 66.5 36.5t19.5 105.5q7 213 7 409q0 192 -7 406q-2 68 -19 102.5t-67 34.5q-78 0 -82 -139q-6 -189 -6 -412z" />
<glyph unicode="P" horiz-adv-x="999" d="M49 821l98 99v659l-63 59h561q141 0 232.5 -75t91.5 -199v-424q0 -111 -96.5 -189.5t-223.5 -78.5h-180v-619l53 -53h-426l51 51v670zM467 971q55 -4 90 -4q41 0 73 24t32 68v196q0 82 -105 82h-90v-366z" />
<glyph unicode="Q" horiz-adv-x="1052" d="M20 821l95 97v272q0 110 20.5 193.5t66.5 148.5t127.5 99t196.5 34q412 0 412 -475v-272l94 -97l-94 -100v-322q0 -137 -35 -214t-110 -111q64 -97 215 -209h-27h-358l-111 125q-111 2 -189.5 36t-123 96t-64.5 140.5t-20 181.5v277zM434 817q0 -245 8 -385q2 -32 5 -52 t11 -43t25 -34.5t43 -11.5q24 0 40.5 10.5t25 23t13 37t5.5 38t2 40.5q4 126 4 385q0 237 -4 385q-2 68 -20 102t-66 34q-25 0 -42 -11t-25 -33t-11.5 -42.5t-5.5 -51.5q-8 -118 -8 -391z" />
<glyph unicode="R" horiz-adv-x="1048" d="M49 821l92 92v670l-55 55h557q82 0 144.5 -19t102.5 -52.5t64.5 -83t34.5 -105t10 -125.5q0 -65 -4 -112.5t-17 -95.5t-36 -81t-61.5 -59t-92.5 -39q199 -54 199 -311v-405q0 -56 4 -93l58 -57h-433l60 57q-4 35 -4 119v363q0 77 -30.5 115t-104.5 38h-74v-637l55 -55 h-428l51 49v680zM463 987q57 0 90 4q66 6 96.5 34.5t30.5 94.5v90q0 68 -30 97.5t-105 29.5h-82v-350z" />
<glyph unicode="S" horiz-adv-x="880" d="M27 498h389l-99 -105q9 -70 37 -101.5t82 -31.5q119 0 119 154q0 109 -44 167t-155 117q-163 86 -246 214t-83 325q0 196 107 311t294 115q180 0 289.5 -117t109.5 -352l-2 -55h-409l106 104q-12 74 -36.5 104.5t-67.5 30.5q-52 0 -71 -34.5t-19 -110.5t43.5 -138.5 t169.5 -127.5q176 -93 244.5 -204t68.5 -300q0 -252 -102.5 -370t-311.5 -118q-211 0 -312 127t-101 396z" />
<glyph unicode="T" horiz-adv-x="968" d="M27 1143v495h915v-495l-176 188h-119v-413l96 -97l-96 -98v-670l55 -53h-428l52 49v672l-99 100l99 97v413h-125z" />
<glyph unicode="U" horiz-adv-x="1073" d="M39 819l96 99v663l-59 57h442l-59 -59v-1182q0 -52 22.5 -77t61.5 -25t65.5 23.5t26.5 76.5v1184l-62 59h431l-58 -57v-666l94 -96l-94 -96v-354q0 -103 -31.5 -180t-88 -122.5t-128.5 -67.5t-159 -22q-85 0 -156.5 23t-128 69.5t-88 123t-31.5 176.5v354z" />
<glyph unicode="V" horiz-adv-x="997" d="M-41 1638h457l-66 -73l127 -824l12 -166l13 166l141 828l-63 69h458l-84 -94l-129 -637l82 -86l-129 -137l-123 -604l74 -80h-461l60 61l-129 631l-121 129l78 80l-136 668z" />
<glyph unicode="W" horiz-adv-x="1523" d="M-41 1638h459l-72 -77l117 -752l12 -166l12 166l115 829h291l143 -829l13 -166l12 166l108 760l-63 69h459l-80 -90l-121 -641l82 -86l-121 -129l-117 -620l64 -72h-459l64 70l-109 796l-12 166l-13 -166l-110 -788l74 -78h-461l59 61l-121 639l-112 121l78 80l-125 664z " />
<glyph unicode="X" horiz-adv-x="888" d="M-41 0l55 53l232 668l-94 100l98 101l-225 663l-52 53h449l-60 -57l66 -213l21 -176l20 172l66 219l-62 55h434l-53 -51l-223 -661l100 -105l-84 -90l230 -678l53 -53h-441l50 53l-84 287l-19 174l-22 -178l-86 -283l55 -53h-424z" />
<glyph unicode="Y" horiz-adv-x="948" d="M-41 1638h449l-64 -59l119 -496l20 -176l21 176l114 496l-63 59h434l-61 -57l-199 -674l86 -86l-153 -149l-31 -101v-512l59 -59h-436l55 55v504l-33 113l-147 149l80 82l-197 684z" />
<glyph unicode="Z" horiz-adv-x="872" d="M47 0v291l184 465l-65 65l153 154l142 356h-193l-180 -188v495h729v-278l-194 -483l53 -56l-135 -143l-150 -375h271l163 168v-471h-778z" />
<glyph unicode="&#xad;" d="M31 678v297h749v-297h-749z" />
<glyph unicode="&#x2000;" horiz-adv-x="832" />
<glyph unicode="&#x2001;" horiz-adv-x="1665" />
<glyph unicode="&#x2002;" horiz-adv-x="832" />
<glyph unicode="&#x2003;" horiz-adv-x="1665" />
<glyph unicode="&#x2004;" horiz-adv-x="555" />
<glyph unicode="&#x2005;" horiz-adv-x="416" />
<glyph unicode="&#x2006;" horiz-adv-x="277" />
<glyph unicode="&#x2007;" horiz-adv-x="277" />
<glyph unicode="&#x2008;" horiz-adv-x="208" />
<glyph unicode="&#x2009;" horiz-adv-x="333" />
<glyph unicode="&#x200a;" horiz-adv-x="92" />
<glyph unicode="&#x2010;" d="M31 678v297h749v-297h-749z" />
<glyph unicode="&#x2011;" d="M31 678v297h749v-297h-749z" />
<glyph unicode="&#x2012;" d="M31 678v297h749v-297h-749z" />
<glyph unicode="&#x2013;" horiz-adv-x="1086" d="M31 678v297h1024v-297h-1024z" />
<glyph unicode="&#x2014;" horiz-adv-x="2110" d="M31 678v297h2048v-297h-2048z" />
<glyph unicode="&#x2018;" horiz-adv-x="856" d="M86 1192v446h315v-319h-147v-70l135 -133l-115 -119zM473 1192v446h315v-319h-147v-70l135 -133l-114 -119z" />
<glyph unicode="&#x2019;" horiz-adv-x="856" d="M76 1319v319h315v-446l-188 -195l-115 119l135 133v70h-147zM463 1319v319h315v-446l-188 -195l-115 119l135 133v70h-147z" />
<glyph unicode="&#x201c;" horiz-adv-x="468" d="M86 1192v446h315v-319h-147v-70l135 -133l-115 -119z" />
<glyph unicode="&#x201d;" horiz-adv-x="468" d="M68 1319v319h315v-446l-188 -195l-115 119l135 133v70h-147z" />
<glyph unicode="&#x202f;" horiz-adv-x="333" />
<glyph unicode="&#x205f;" horiz-adv-x="416" />
<glyph unicode="&#x25fc;" horiz-adv-x="1024" d="M0 0z" />
</font>
</defs>
</svg>
