G75*
%MOIN*%
%OFA0B0*%
%FSLAX24Y24*%
%IPPOS*%
%LPD*%
%AMOC8*
5,1,8,0,0,1.08239X$1,22.5*
%
%ADD10R,0.0591X0.0787*%
%ADD11C,0.1500*%
%ADD12C,0.0476*%
%ADD13OC8,0.0740*%
%ADD14C,0.0660*%
%ADD15R,0.0472X0.0551*%
%ADD16R,0.0787X0.0433*%
%ADD17R,0.0630X0.0710*%
%ADD18R,0.0710X0.0630*%
%ADD19R,0.0433X0.0295*%
%ADD20R,0.1319X0.0850*%
%ADD21R,0.0830X0.0830*%
%ADD22C,0.0165*%
%ADD23R,0.0594X0.0594*%
%ADD24C,0.0594*%
%ADD25R,0.0640X0.0350*%
%ADD26R,0.0640X0.1250*%
%ADD27C,0.0700*%
%ADD28C,0.0160*%
%ADD29R,0.0591X0.0591*%
%ADD30C,0.0100*%
D10*
X017089Y028000D03*
X018271Y028000D03*
D11*
X019117Y032951D03*
X016243Y032951D03*
D12*
X017365Y031911D02*
X017365Y031435D01*
X017995Y031435D02*
X017995Y031911D01*
X018310Y030923D02*
X018310Y030448D01*
X017680Y030448D02*
X017680Y030923D01*
X017050Y030923D02*
X017050Y030448D01*
D13*
X029180Y022500D03*
X029180Y021500D03*
X029180Y020500D03*
X029180Y019500D03*
X030180Y019500D03*
X030180Y020500D03*
X030180Y021500D03*
X030180Y022500D03*
X030180Y018500D03*
X030180Y017500D03*
X030180Y016500D03*
X030180Y015500D03*
X029180Y015500D03*
X029180Y016500D03*
X029180Y017500D03*
X029180Y018500D03*
X029180Y014500D03*
X029180Y013500D03*
X029180Y012500D03*
X029180Y011500D03*
X030180Y011500D03*
X030180Y012500D03*
X030180Y013500D03*
X030180Y014500D03*
X030180Y010500D03*
X029180Y010500D03*
D14*
X024180Y015500D03*
X024180Y016500D03*
X024180Y017500D03*
X024180Y020500D03*
X024180Y021500D03*
X024180Y022500D03*
D15*
X026089Y027000D03*
X027271Y027000D03*
D16*
X029393Y027831D03*
X029393Y028500D03*
X029393Y029169D03*
X030967Y029169D03*
X030967Y028500D03*
X030967Y027831D03*
D17*
X030620Y031500D03*
X031740Y031500D03*
X020740Y024000D03*
X019620Y024000D03*
X019620Y018500D03*
X020740Y018500D03*
D18*
X017180Y018560D03*
X017180Y017440D03*
X017180Y022940D03*
X017180Y024060D03*
D19*
X026259Y028750D03*
X026259Y029250D03*
X026259Y029750D03*
X026259Y030250D03*
X027101Y030250D03*
X027101Y029750D03*
X027101Y029250D03*
X027101Y028750D03*
D20*
X026741Y033500D03*
X030619Y033500D03*
D21*
X024490Y033870D03*
X024490Y032840D03*
X021230Y033570D03*
X021230Y030030D03*
X023240Y028330D03*
D22*
X021294Y021802D02*
X020946Y021802D01*
X020946Y021858D01*
X021294Y021858D01*
X021294Y021802D01*
X021294Y020802D02*
X020946Y020802D01*
X020946Y020858D01*
X021294Y020858D01*
X021294Y020802D01*
X019094Y020802D02*
X018746Y020802D01*
X018746Y020858D01*
X019094Y020858D01*
X019094Y020802D01*
X019094Y021802D02*
X018746Y021802D01*
X018746Y021858D01*
X019094Y021858D01*
X019094Y021802D01*
X019094Y016802D02*
X018746Y016802D01*
X018746Y016858D01*
X019094Y016858D01*
X019094Y016802D01*
X019094Y015802D02*
X018746Y015802D01*
X018746Y015858D01*
X019094Y015858D01*
X019094Y015802D01*
X020946Y015802D02*
X021294Y015802D01*
X020946Y015802D02*
X020946Y015858D01*
X021294Y015858D01*
X021294Y015802D01*
X021294Y016802D02*
X020946Y016802D01*
X020946Y016858D01*
X021294Y016858D01*
X021294Y016802D01*
D23*
X014930Y008000D03*
X033930Y008000D03*
D24*
X033930Y009000D03*
X033930Y010000D03*
X033930Y011000D03*
X032930Y011000D03*
X032930Y010000D03*
X032930Y009000D03*
X032930Y008000D03*
X032930Y012000D03*
X032930Y013000D03*
X032930Y014000D03*
X032930Y015000D03*
X033930Y015000D03*
X033930Y014000D03*
X033930Y013000D03*
X033930Y012000D03*
X033930Y016000D03*
X033930Y017000D03*
X033930Y018000D03*
X032930Y018000D03*
X032930Y017000D03*
X032930Y016000D03*
X032930Y019000D03*
X032930Y020000D03*
X032930Y021000D03*
X032930Y022000D03*
X033930Y022000D03*
X033930Y021000D03*
X033930Y020000D03*
X033930Y019000D03*
X033930Y023000D03*
X033930Y024000D03*
X033930Y025000D03*
X033930Y026000D03*
X032930Y026000D03*
X032930Y025000D03*
X032930Y024000D03*
X032930Y023000D03*
X032930Y027000D03*
X032930Y028000D03*
X032930Y029000D03*
X032930Y030000D03*
X033930Y030000D03*
X033930Y029000D03*
X033930Y028000D03*
X033930Y027000D03*
X014930Y027000D03*
X014930Y028000D03*
X014930Y029000D03*
X014930Y030000D03*
X013930Y030000D03*
X013930Y029000D03*
X013930Y028000D03*
X013930Y027000D03*
X013930Y026000D03*
X013930Y025000D03*
X013930Y024000D03*
X013930Y023000D03*
X014930Y023000D03*
X014930Y024000D03*
X014930Y025000D03*
X014930Y026000D03*
X014930Y022000D03*
X014930Y021000D03*
X014930Y020000D03*
X014930Y019000D03*
X013930Y019000D03*
X013930Y020000D03*
X013930Y021000D03*
X013930Y022000D03*
X013930Y018000D03*
X013930Y017000D03*
X013930Y016000D03*
X014930Y016000D03*
X014930Y017000D03*
X014930Y018000D03*
X014930Y015000D03*
X014930Y014000D03*
X014930Y013000D03*
X014930Y012000D03*
X013930Y012000D03*
X013930Y013000D03*
X013930Y014000D03*
X013930Y015000D03*
X013930Y011000D03*
X013930Y010000D03*
X013930Y009000D03*
X013930Y008000D03*
X014930Y009000D03*
X014930Y010000D03*
X014930Y011000D03*
D25*
X023440Y010590D03*
X023440Y011500D03*
X023440Y012410D03*
D26*
X020920Y011500D03*
D27*
X017180Y008000D03*
X025180Y014000D03*
D28*
X013685Y007590D02*
X013685Y006755D01*
X017719Y006755D01*
X017813Y007166D01*
X017813Y007166D01*
X018083Y007725D01*
X018083Y007725D01*
X018470Y008210D01*
X018470Y008210D01*
X018955Y008597D01*
X019514Y008867D01*
X020120Y009005D01*
X027740Y009005D01*
X028346Y008867D01*
X028346Y008867D01*
X028675Y008708D01*
X027343Y010040D01*
X022843Y010040D01*
X022720Y010163D01*
X022720Y013587D01*
X024143Y015010D01*
X024083Y015010D01*
X023902Y015085D01*
X023765Y015222D01*
X023690Y015403D01*
X023690Y015540D01*
X021250Y015540D01*
X021236Y015530D01*
X021165Y015540D01*
X021093Y015540D01*
X021081Y015552D01*
X021064Y015554D01*
X021060Y015560D01*
X020898Y015560D01*
X020809Y015597D01*
X020741Y015665D01*
X020704Y015754D01*
X020704Y015906D01*
X020741Y015995D01*
X020809Y016063D01*
X020898Y016100D01*
X021342Y016100D01*
X021431Y016063D01*
X021499Y015995D01*
X021514Y015960D01*
X024010Y015960D01*
X024083Y015990D01*
X024277Y015990D01*
X024458Y015915D01*
X024595Y015778D01*
X024670Y015597D01*
X024670Y015537D01*
X024720Y015587D01*
X024720Y020663D01*
X024345Y021038D01*
X024277Y021010D01*
X024083Y021010D01*
X023902Y021085D01*
X023765Y021222D01*
X023690Y021403D01*
X023690Y021463D01*
X022767Y020540D01*
X022390Y020540D01*
X022390Y020205D01*
X022542Y020205D01*
X022635Y020112D01*
X022635Y019388D01*
X022542Y019295D01*
X021818Y019295D01*
X021725Y019388D01*
X021725Y020112D01*
X021818Y020205D01*
X021970Y020205D01*
X021970Y020540D01*
X021250Y020540D01*
X021236Y020530D01*
X021165Y020540D01*
X021093Y020540D01*
X021081Y020552D01*
X021064Y020554D01*
X021060Y020560D01*
X020898Y020560D01*
X020809Y020597D01*
X020741Y020665D01*
X020712Y020735D01*
X020390Y020413D01*
X020390Y019015D01*
X021121Y019015D01*
X021215Y018921D01*
X021215Y018710D01*
X022093Y018710D01*
X023718Y020335D01*
X023690Y020403D01*
X023690Y020597D01*
X023765Y020778D01*
X023902Y020915D01*
X024083Y020990D01*
X024277Y020990D01*
X024458Y020915D01*
X024595Y020778D01*
X024670Y020597D01*
X024670Y020403D01*
X024595Y020222D01*
X024458Y020085D01*
X024277Y020010D01*
X024083Y020010D01*
X024015Y020038D01*
X022267Y018290D01*
X021215Y018290D01*
X021215Y018079D01*
X021121Y017985D01*
X020390Y017985D01*
X020390Y017587D01*
X020883Y017094D01*
X020898Y017100D01*
X021342Y017100D01*
X021431Y017063D01*
X021499Y016995D01*
X021514Y016960D01*
X023343Y016960D01*
X023718Y017335D01*
X023690Y017403D01*
X023690Y017597D01*
X023765Y017778D01*
X023902Y017915D01*
X024083Y017990D01*
X024277Y017990D01*
X024458Y017915D01*
X024595Y017778D01*
X024670Y017597D01*
X024670Y017403D01*
X024595Y017222D01*
X024458Y017085D01*
X024277Y017010D01*
X024083Y017010D01*
X024015Y017038D01*
X023517Y016540D01*
X021250Y016540D01*
X021236Y016530D01*
X021165Y016540D01*
X021093Y016540D01*
X021081Y016552D01*
X021064Y016554D01*
X021060Y016560D01*
X021037Y016560D01*
X021017Y016540D01*
X020972Y016540D01*
X020931Y016523D01*
X020889Y016540D01*
X020843Y016540D01*
X020811Y016572D01*
X020770Y016588D01*
X020752Y016631D01*
X019970Y017413D01*
X019970Y017985D01*
X019239Y017985D01*
X019225Y017999D01*
X018187Y016960D01*
X018526Y016960D01*
X018541Y016995D01*
X018609Y017063D01*
X018698Y017100D01*
X019142Y017100D01*
X019231Y017063D01*
X019299Y016995D01*
X019336Y016906D01*
X019336Y016754D01*
X019299Y016665D01*
X019231Y016597D01*
X019142Y016560D01*
X019048Y016560D01*
X019042Y016552D01*
X019028Y016551D01*
X019017Y016540D01*
X018943Y016540D01*
X018870Y016531D01*
X018858Y016540D01*
X017593Y016540D01*
X017470Y016663D01*
X017168Y016965D01*
X016759Y016965D01*
X016665Y017059D01*
X016665Y017821D01*
X016759Y017915D01*
X017601Y017915D01*
X017695Y017821D01*
X017695Y017062D01*
X019145Y018512D01*
X019145Y018921D01*
X019239Y019015D01*
X019970Y019015D01*
X019970Y023485D01*
X019239Y023485D01*
X019225Y023499D01*
X017977Y022250D01*
X018267Y021960D01*
X018526Y021960D01*
X018541Y021995D01*
X018609Y022063D01*
X018698Y022100D01*
X019142Y022100D01*
X019231Y022063D01*
X019299Y021995D01*
X019336Y021906D01*
X019336Y021754D01*
X019299Y021665D01*
X019231Y021597D01*
X019142Y021560D01*
X019048Y021560D01*
X019042Y021552D01*
X019028Y021551D01*
X019017Y021540D01*
X018943Y021540D01*
X018870Y021531D01*
X018858Y021540D01*
X018093Y021540D01*
X017593Y022040D01*
X017470Y022163D01*
X017168Y022465D01*
X016759Y022465D01*
X016665Y022559D01*
X016665Y023321D01*
X016759Y023415D01*
X017601Y023415D01*
X017695Y023321D01*
X017695Y022562D01*
X019145Y024012D01*
X019145Y024421D01*
X019239Y024515D01*
X019970Y024515D01*
X019970Y030087D01*
X020093Y030210D01*
X020093Y030210D01*
X020970Y031087D01*
X020970Y032995D01*
X020749Y032995D01*
X020655Y033089D01*
X020655Y033995D01*
X018180Y033995D01*
X017827Y033981D01*
X017131Y033871D01*
X016721Y033738D01*
X016758Y033722D01*
X017014Y033466D01*
X017153Y033132D01*
X017153Y032770D01*
X017014Y032435D01*
X016758Y032179D01*
X016424Y032041D01*
X016062Y032041D01*
X015728Y032179D01*
X015472Y032435D01*
X015333Y032770D01*
X015333Y032971D01*
X015261Y032918D01*
X014762Y032419D01*
X014347Y031849D01*
X014027Y031220D01*
X013809Y030549D01*
X013791Y030437D01*
X013839Y030457D01*
X014021Y030457D01*
X014189Y030387D01*
X014317Y030259D01*
X014387Y030091D01*
X014387Y029909D01*
X014317Y029741D01*
X014189Y029613D01*
X014021Y029543D01*
X013839Y029543D01*
X013689Y029605D01*
X013685Y029500D01*
X013685Y029393D01*
X013839Y029457D01*
X014021Y029457D01*
X014189Y029387D01*
X014317Y029259D01*
X014387Y029091D01*
X014387Y028909D01*
X014317Y028741D01*
X014189Y028613D01*
X014021Y028543D01*
X013839Y028543D01*
X013685Y028607D01*
X013685Y028393D01*
X013839Y028457D01*
X014021Y028457D01*
X014189Y028387D01*
X014317Y028259D01*
X014387Y028091D01*
X014387Y027909D01*
X014317Y027741D01*
X014189Y027613D01*
X014021Y027543D01*
X013839Y027543D01*
X013685Y027607D01*
X013685Y027393D01*
X013839Y027457D01*
X014021Y027457D01*
X014189Y027387D01*
X014317Y027259D01*
X014387Y027091D01*
X014387Y026909D01*
X014317Y026741D01*
X014189Y026613D01*
X014021Y026543D01*
X013839Y026543D01*
X013685Y026607D01*
X013685Y026393D01*
X013839Y026457D01*
X014021Y026457D01*
X014189Y026387D01*
X014317Y026259D01*
X014387Y026091D01*
X014387Y025909D01*
X014317Y025741D01*
X014189Y025613D01*
X014021Y025543D01*
X013839Y025543D01*
X013685Y025607D01*
X013685Y025393D01*
X013839Y025457D01*
X014021Y025457D01*
X014189Y025387D01*
X014317Y025259D01*
X014387Y025091D01*
X014387Y024909D01*
X014317Y024741D01*
X014189Y024613D01*
X014021Y024543D01*
X013839Y024543D01*
X013685Y024607D01*
X013685Y024393D01*
X013839Y024457D01*
X014021Y024457D01*
X014189Y024387D01*
X014317Y024259D01*
X014387Y024091D01*
X014387Y023909D01*
X014317Y023741D01*
X014189Y023613D01*
X014021Y023543D01*
X013839Y023543D01*
X013685Y023607D01*
X013685Y023393D01*
X013839Y023457D01*
X014021Y023457D01*
X014189Y023387D01*
X014317Y023259D01*
X014387Y023091D01*
X014387Y022909D01*
X014317Y022741D01*
X014189Y022613D01*
X014021Y022543D01*
X013839Y022543D01*
X013685Y022607D01*
X013685Y022393D01*
X013839Y022457D01*
X014021Y022457D01*
X014189Y022387D01*
X014317Y022259D01*
X014387Y022091D01*
X014387Y021909D01*
X014317Y021741D01*
X014189Y021613D01*
X014021Y021543D01*
X013839Y021543D01*
X013685Y021607D01*
X013685Y021393D01*
X013839Y021457D01*
X014021Y021457D01*
X014189Y021387D01*
X014317Y021259D01*
X014387Y021091D01*
X014387Y020909D01*
X014317Y020741D01*
X014189Y020613D01*
X014021Y020543D01*
X013839Y020543D01*
X013685Y020607D01*
X013685Y020393D01*
X013839Y020457D01*
X014021Y020457D01*
X014189Y020387D01*
X014317Y020259D01*
X014387Y020091D01*
X014387Y019909D01*
X014317Y019741D01*
X014189Y019613D01*
X014021Y019543D01*
X013839Y019543D01*
X013685Y019607D01*
X013685Y019393D01*
X013839Y019457D01*
X014021Y019457D01*
X014189Y019387D01*
X014317Y019259D01*
X014387Y019091D01*
X014387Y018909D01*
X014317Y018741D01*
X014189Y018613D01*
X014021Y018543D01*
X013839Y018543D01*
X013685Y018607D01*
X013685Y018393D01*
X013839Y018457D01*
X014021Y018457D01*
X014189Y018387D01*
X014317Y018259D01*
X014387Y018091D01*
X014387Y017909D01*
X014317Y017741D01*
X014189Y017613D01*
X014021Y017543D01*
X013839Y017543D01*
X013685Y017607D01*
X013685Y017393D01*
X013839Y017457D01*
X014021Y017457D01*
X014189Y017387D01*
X014317Y017259D01*
X014387Y017091D01*
X014387Y016909D01*
X014317Y016741D01*
X014189Y016613D01*
X014021Y016543D01*
X013839Y016543D01*
X013685Y016607D01*
X013685Y016393D01*
X013839Y016457D01*
X014021Y016457D01*
X014189Y016387D01*
X014317Y016259D01*
X014387Y016091D01*
X014387Y015909D01*
X014317Y015741D01*
X014189Y015613D01*
X014021Y015543D01*
X013839Y015543D01*
X013685Y015607D01*
X013685Y015393D01*
X013839Y015457D01*
X014021Y015457D01*
X014189Y015387D01*
X014317Y015259D01*
X014387Y015091D01*
X014387Y014909D01*
X014317Y014741D01*
X014189Y014613D01*
X014021Y014543D01*
X013839Y014543D01*
X013685Y014607D01*
X013685Y014393D01*
X013839Y014457D01*
X014021Y014457D01*
X014189Y014387D01*
X014317Y014259D01*
X014387Y014091D01*
X014387Y013909D01*
X014317Y013741D01*
X014189Y013613D01*
X014021Y013543D01*
X013839Y013543D01*
X013685Y013607D01*
X013685Y013393D01*
X013839Y013457D01*
X014021Y013457D01*
X014189Y013387D01*
X014317Y013259D01*
X014387Y013091D01*
X014387Y012909D01*
X014317Y012741D01*
X014189Y012613D01*
X014021Y012543D01*
X013839Y012543D01*
X013685Y012607D01*
X013685Y012393D01*
X013839Y012457D01*
X014021Y012457D01*
X014189Y012387D01*
X014317Y012259D01*
X014387Y012091D01*
X014387Y011909D01*
X014317Y011741D01*
X014189Y011613D01*
X014021Y011543D01*
X013839Y011543D01*
X013685Y011607D01*
X013685Y011393D01*
X013839Y011457D01*
X014021Y011457D01*
X014189Y011387D01*
X014317Y011259D01*
X014387Y011091D01*
X014387Y010909D01*
X014317Y010741D01*
X014189Y010613D01*
X014021Y010543D01*
X013839Y010543D01*
X013685Y010607D01*
X013685Y010393D01*
X013839Y010457D01*
X014021Y010457D01*
X014189Y010387D01*
X014317Y010259D01*
X014387Y010091D01*
X014387Y009909D01*
X014317Y009741D01*
X014189Y009613D01*
X014021Y009543D01*
X013839Y009543D01*
X013685Y009607D01*
X013685Y009393D01*
X013839Y009457D01*
X014021Y009457D01*
X014189Y009387D01*
X014317Y009259D01*
X014387Y009091D01*
X014387Y008909D01*
X014317Y008741D01*
X014189Y008613D01*
X014021Y008543D01*
X013839Y008543D01*
X013685Y008607D01*
X013685Y008410D01*
X013747Y008442D01*
X013818Y008465D01*
X013892Y008477D01*
X013912Y008477D01*
X013912Y008018D01*
X013948Y008018D01*
X013948Y008477D01*
X013968Y008477D01*
X014042Y008465D01*
X014113Y008442D01*
X014180Y008408D01*
X014241Y008364D01*
X014294Y008311D01*
X014338Y008250D01*
X014372Y008183D01*
X014395Y008112D01*
X014407Y008038D01*
X014407Y008018D01*
X013948Y008018D01*
X013948Y007982D01*
X014407Y007982D01*
X014407Y007962D01*
X014395Y007888D01*
X014372Y007817D01*
X014338Y007750D01*
X014294Y007689D01*
X014241Y007636D01*
X014180Y007592D01*
X014113Y007558D01*
X014042Y007535D01*
X013968Y007523D01*
X013948Y007523D01*
X013948Y007982D01*
X013912Y007982D01*
X013912Y007523D01*
X013892Y007523D01*
X013818Y007535D01*
X013747Y007558D01*
X013685Y007590D01*
X013685Y007585D02*
X013694Y007585D01*
X013685Y007427D02*
X017939Y007427D01*
X018015Y007585D02*
X017510Y007585D01*
X017525Y007596D02*
X017458Y007547D01*
X017383Y007509D01*
X017304Y007483D01*
X017222Y007470D01*
X017200Y007470D01*
X017200Y007980D01*
X017200Y008020D01*
X017710Y008020D01*
X017710Y008042D01*
X017697Y008124D01*
X017671Y008203D01*
X017633Y008278D01*
X017584Y008345D01*
X017525Y008404D01*
X017458Y008453D01*
X017383Y008491D01*
X017304Y008517D01*
X017222Y008530D01*
X017200Y008530D01*
X017200Y008020D01*
X017160Y008020D01*
X017160Y008530D01*
X017138Y008530D01*
X017056Y008517D01*
X016977Y008491D01*
X016902Y008453D01*
X016835Y008404D01*
X016776Y008345D01*
X016727Y008278D01*
X016689Y008203D01*
X016663Y008124D01*
X016650Y008042D01*
X016650Y008020D01*
X017160Y008020D01*
X017160Y007980D01*
X017200Y007980D01*
X017710Y007980D01*
X017710Y007958D01*
X017697Y007876D01*
X017671Y007797D01*
X017633Y007722D01*
X017584Y007655D01*
X017525Y007596D01*
X017644Y007744D02*
X018097Y007744D01*
X018224Y007902D02*
X017701Y007902D01*
X017707Y008061D02*
X018350Y008061D01*
X018480Y008219D02*
X017663Y008219D01*
X017552Y008378D02*
X018679Y008378D01*
X018878Y008536D02*
X013685Y008536D01*
X013912Y008378D02*
X013948Y008378D01*
X013948Y008219D02*
X013912Y008219D01*
X013912Y008061D02*
X013948Y008061D01*
X013948Y007902D02*
X013912Y007902D01*
X013912Y007744D02*
X013948Y007744D01*
X013948Y007585D02*
X013912Y007585D01*
X014166Y007585D02*
X014497Y007585D01*
X014489Y007593D02*
X014523Y007559D01*
X014564Y007535D01*
X014609Y007523D01*
X014912Y007523D01*
X014912Y007982D01*
X014948Y007982D01*
X014948Y008018D01*
X014912Y008018D01*
X014912Y008477D01*
X014609Y008477D01*
X014564Y008465D01*
X014523Y008441D01*
X014489Y008407D01*
X014465Y008366D01*
X014453Y008321D01*
X014453Y008018D01*
X014912Y008018D01*
X014912Y007982D01*
X014453Y007982D01*
X014453Y007679D01*
X014465Y007634D01*
X014489Y007593D01*
X014453Y007744D02*
X014333Y007744D01*
X014397Y007902D02*
X014453Y007902D01*
X014453Y008061D02*
X014403Y008061D01*
X014354Y008219D02*
X014453Y008219D01*
X014472Y008378D02*
X014222Y008378D01*
X014271Y008695D02*
X014589Y008695D01*
X014543Y008741D02*
X014671Y008613D01*
X014839Y008543D01*
X015021Y008543D01*
X015189Y008613D01*
X015317Y008741D01*
X015387Y008909D01*
X015387Y009091D01*
X015317Y009259D01*
X015189Y009387D01*
X015021Y009457D01*
X014839Y009457D01*
X014671Y009387D01*
X014543Y009259D01*
X014473Y009091D01*
X014473Y008909D01*
X014543Y008741D01*
X014496Y008853D02*
X014364Y008853D01*
X014387Y009012D02*
X014473Y009012D01*
X014506Y009170D02*
X014354Y009170D01*
X014248Y009329D02*
X014612Y009329D01*
X014671Y009613D02*
X014839Y009543D01*
X015021Y009543D01*
X015189Y009613D01*
X015317Y009741D01*
X015387Y009909D01*
X015387Y010091D01*
X015317Y010259D01*
X015189Y010387D01*
X015021Y010457D01*
X014839Y010457D01*
X014671Y010387D01*
X014543Y010259D01*
X014473Y010091D01*
X014473Y009909D01*
X014543Y009741D01*
X014671Y009613D01*
X014638Y009646D02*
X014222Y009646D01*
X014343Y009804D02*
X014517Y009804D01*
X014473Y009963D02*
X014387Y009963D01*
X014374Y010121D02*
X014486Y010121D01*
X014563Y010280D02*
X014297Y010280D01*
X014066Y010438D02*
X014794Y010438D01*
X014839Y010543D02*
X015021Y010543D01*
X015189Y010613D01*
X015317Y010741D01*
X015387Y010909D01*
X015387Y011091D01*
X015317Y011259D01*
X015189Y011387D01*
X015021Y011457D01*
X014839Y011457D01*
X014671Y011387D01*
X014543Y011259D01*
X014473Y011091D01*
X014473Y010909D01*
X014543Y010741D01*
X014671Y010613D01*
X014839Y010543D01*
X014710Y010597D02*
X014150Y010597D01*
X014323Y010755D02*
X014537Y010755D01*
X014473Y010914D02*
X014387Y010914D01*
X014387Y011072D02*
X014473Y011072D01*
X014531Y011231D02*
X014329Y011231D01*
X014185Y011389D02*
X014675Y011389D01*
X014829Y011548D02*
X014031Y011548D01*
X013829Y011548D02*
X013685Y011548D01*
X014282Y011706D02*
X014578Y011706D01*
X014543Y011741D02*
X014671Y011613D01*
X014839Y011543D01*
X015021Y011543D01*
X015189Y011613D01*
X015317Y011741D01*
X015387Y011909D01*
X015387Y012091D01*
X015317Y012259D01*
X015189Y012387D01*
X015021Y012457D01*
X014839Y012457D01*
X014671Y012387D01*
X014543Y012259D01*
X014473Y012091D01*
X014473Y011909D01*
X014543Y011741D01*
X014492Y011865D02*
X014368Y011865D01*
X014387Y012023D02*
X014473Y012023D01*
X014511Y012182D02*
X014349Y012182D01*
X014236Y012340D02*
X014624Y012340D01*
X014671Y012613D02*
X014839Y012543D01*
X015021Y012543D01*
X015189Y012613D01*
X015317Y012741D01*
X015387Y012909D01*
X015387Y013091D01*
X015317Y013259D01*
X015189Y013387D01*
X015021Y013457D01*
X014839Y013457D01*
X014671Y013387D01*
X014543Y013259D01*
X014473Y013091D01*
X014473Y012909D01*
X014543Y012741D01*
X014671Y012613D01*
X014627Y012657D02*
X014233Y012657D01*
X014348Y012816D02*
X014512Y012816D01*
X014473Y012974D02*
X014387Y012974D01*
X014370Y013133D02*
X014490Y013133D01*
X014575Y013291D02*
X014285Y013291D01*
X014039Y013450D02*
X014821Y013450D01*
X014839Y013543D02*
X015021Y013543D01*
X015189Y013613D01*
X015317Y013741D01*
X015387Y013909D01*
X015387Y014091D01*
X015317Y014259D01*
X015189Y014387D01*
X015021Y014457D01*
X014839Y014457D01*
X014671Y014387D01*
X014543Y014259D01*
X014473Y014091D01*
X014473Y013909D01*
X014543Y013741D01*
X014671Y013613D01*
X014839Y013543D01*
X014683Y013608D02*
X014177Y013608D01*
X014328Y013767D02*
X014532Y013767D01*
X014473Y013925D02*
X014387Y013925D01*
X014387Y014084D02*
X014473Y014084D01*
X014536Y014242D02*
X014324Y014242D01*
X014157Y014401D02*
X014703Y014401D01*
X014801Y014559D02*
X014059Y014559D01*
X013801Y014559D02*
X013685Y014559D01*
X013685Y014401D02*
X013703Y014401D01*
X014294Y014718D02*
X014566Y014718D01*
X014543Y014741D02*
X014671Y014613D01*
X014839Y014543D01*
X015021Y014543D01*
X015189Y014613D01*
X015317Y014741D01*
X015387Y014909D01*
X015387Y015091D01*
X015317Y015259D01*
X015189Y015387D01*
X015021Y015457D01*
X014839Y015457D01*
X014671Y015387D01*
X014543Y015259D01*
X014473Y015091D01*
X014473Y014909D01*
X014543Y014741D01*
X014487Y014876D02*
X014373Y014876D01*
X014387Y015035D02*
X014473Y015035D01*
X014515Y015193D02*
X014345Y015193D01*
X014225Y015352D02*
X014635Y015352D01*
X014671Y015613D02*
X014839Y015543D01*
X015021Y015543D01*
X015189Y015613D01*
X015317Y015741D01*
X015387Y015909D01*
X015387Y016091D01*
X015317Y016259D01*
X015189Y016387D01*
X015021Y016457D01*
X014839Y016457D01*
X014671Y016387D01*
X014543Y016259D01*
X014473Y016091D01*
X014473Y015909D01*
X014543Y015741D01*
X014671Y015613D01*
X014615Y015669D02*
X014245Y015669D01*
X014353Y015827D02*
X014507Y015827D01*
X014473Y015986D02*
X014387Y015986D01*
X014365Y016144D02*
X014495Y016144D01*
X014586Y016303D02*
X014274Y016303D01*
X014196Y016620D02*
X014664Y016620D01*
X014671Y016613D02*
X014839Y016543D01*
X015021Y016543D01*
X015189Y016613D01*
X015317Y016741D01*
X015387Y016909D01*
X015387Y017091D01*
X015317Y017259D01*
X015189Y017387D01*
X015021Y017457D01*
X014839Y017457D01*
X014671Y017387D01*
X014543Y017259D01*
X014473Y017091D01*
X014473Y016909D01*
X014543Y016741D01*
X014671Y016613D01*
X014527Y016778D02*
X014333Y016778D01*
X014387Y016937D02*
X014473Y016937D01*
X014475Y017095D02*
X014385Y017095D01*
X014319Y017254D02*
X014541Y017254D01*
X014731Y017412D02*
X014129Y017412D01*
X014087Y017571D02*
X014773Y017571D01*
X014839Y017543D02*
X015021Y017543D01*
X015189Y017613D01*
X015317Y017741D01*
X015387Y017909D01*
X015387Y018091D01*
X015317Y018259D01*
X015189Y018387D01*
X015021Y018457D01*
X014839Y018457D01*
X014671Y018387D01*
X014543Y018259D01*
X014473Y018091D01*
X014473Y017909D01*
X014543Y017741D01*
X014671Y017613D01*
X014839Y017543D01*
X015087Y017571D02*
X016665Y017571D01*
X016665Y017729D02*
X015305Y017729D01*
X015378Y017888D02*
X016731Y017888D01*
X016801Y018065D02*
X017103Y018065D01*
X017103Y018482D01*
X017257Y018482D01*
X017257Y018065D01*
X017559Y018065D01*
X017604Y018077D01*
X017645Y018101D01*
X017679Y018134D01*
X017703Y018175D01*
X017715Y018221D01*
X017715Y018482D01*
X017257Y018482D01*
X017257Y018637D01*
X017103Y018637D01*
X017103Y019055D01*
X016801Y019055D01*
X016756Y019043D01*
X016715Y019019D01*
X016681Y018985D01*
X016657Y018944D01*
X016645Y018899D01*
X016645Y018637D01*
X017103Y018637D01*
X017103Y018482D01*
X016645Y018482D01*
X016645Y018221D01*
X016657Y018175D01*
X016681Y018134D01*
X016715Y018101D01*
X016756Y018077D01*
X016801Y018065D01*
X016650Y018205D02*
X015340Y018205D01*
X015387Y018046D02*
X018679Y018046D01*
X018521Y017888D02*
X017629Y017888D01*
X017695Y017729D02*
X018362Y017729D01*
X018204Y017571D02*
X017695Y017571D01*
X017695Y017412D02*
X018045Y017412D01*
X017887Y017254D02*
X017695Y017254D01*
X017695Y017095D02*
X017728Y017095D01*
X017355Y016778D02*
X015333Y016778D01*
X015387Y016937D02*
X017196Y016937D01*
X017513Y016620D02*
X015196Y016620D01*
X015274Y016303D02*
X023731Y016303D01*
X023765Y016222D02*
X023902Y016085D01*
X024083Y016010D01*
X024277Y016010D01*
X024458Y016085D01*
X024595Y016222D01*
X024670Y016403D01*
X024670Y016597D01*
X024595Y016778D01*
X024720Y016778D01*
X024595Y016778D02*
X024458Y016915D01*
X024277Y016990D01*
X024083Y016990D01*
X023902Y016915D01*
X023765Y016778D01*
X023755Y016778D01*
X023765Y016778D02*
X023690Y016597D01*
X023690Y016403D01*
X023765Y016222D01*
X023843Y016144D02*
X015365Y016144D01*
X015387Y015986D02*
X018516Y015986D01*
X018514Y015982D02*
X018494Y015934D01*
X018484Y015883D01*
X018484Y015830D01*
X018920Y015830D01*
X019356Y015830D01*
X019356Y015883D01*
X019346Y015934D01*
X019326Y015982D01*
X019297Y016025D01*
X019261Y016061D01*
X019218Y016090D01*
X019170Y016110D01*
X019119Y016120D01*
X018920Y016120D01*
X018920Y015830D01*
X018920Y015830D01*
X018920Y015830D01*
X019356Y015830D01*
X019356Y015777D01*
X019346Y015726D01*
X019326Y015678D01*
X019297Y015635D01*
X019261Y015599D01*
X019218Y015570D01*
X019170Y015550D01*
X019119Y015540D01*
X018920Y015540D01*
X018920Y015830D01*
X018920Y015830D01*
X018920Y015830D01*
X018920Y016120D01*
X018721Y016120D01*
X018670Y016110D01*
X018622Y016090D01*
X018579Y016061D01*
X018543Y016025D01*
X018514Y015982D01*
X018484Y015830D02*
X018484Y015777D01*
X018494Y015726D01*
X018514Y015678D01*
X018543Y015635D01*
X018579Y015599D01*
X018622Y015570D01*
X018670Y015550D01*
X018721Y015540D01*
X018920Y015540D01*
X018920Y015830D01*
X018484Y015830D01*
X018484Y015827D02*
X015353Y015827D01*
X015245Y015669D02*
X018520Y015669D01*
X018920Y015669D02*
X018920Y015669D01*
X018920Y015827D02*
X018920Y015827D01*
X018920Y015986D02*
X018920Y015986D01*
X019324Y015986D02*
X020737Y015986D01*
X020704Y015827D02*
X019356Y015827D01*
X019320Y015669D02*
X020740Y015669D01*
X021503Y015986D02*
X024072Y015986D01*
X024288Y015986D02*
X024720Y015986D01*
X024720Y016144D02*
X024517Y016144D01*
X024629Y016303D02*
X024720Y016303D01*
X024720Y016461D02*
X024670Y016461D01*
X024661Y016620D02*
X024720Y016620D01*
X024720Y016937D02*
X024407Y016937D01*
X024468Y017095D02*
X024720Y017095D01*
X024720Y017254D02*
X024608Y017254D01*
X024670Y017412D02*
X024720Y017412D01*
X024720Y017571D02*
X024670Y017571D01*
X024720Y017729D02*
X024616Y017729D01*
X024720Y017888D02*
X024485Y017888D01*
X024720Y018046D02*
X021182Y018046D01*
X021215Y018205D02*
X024720Y018205D01*
X024720Y018363D02*
X022340Y018363D01*
X022499Y018522D02*
X024720Y018522D01*
X024720Y018680D02*
X022657Y018680D01*
X022816Y018839D02*
X024720Y018839D01*
X024720Y018997D02*
X022974Y018997D01*
X023133Y019156D02*
X024720Y019156D01*
X024720Y019314D02*
X023291Y019314D01*
X023450Y019473D02*
X024720Y019473D01*
X024720Y019631D02*
X023608Y019631D01*
X023767Y019790D02*
X024720Y019790D01*
X024720Y019948D02*
X023925Y019948D01*
X023648Y020265D02*
X022390Y020265D01*
X022390Y020424D02*
X023690Y020424D01*
X023690Y020582D02*
X022809Y020582D01*
X022968Y020741D02*
X023749Y020741D01*
X023886Y020899D02*
X023126Y020899D01*
X023285Y021058D02*
X023968Y021058D01*
X023771Y021216D02*
X023443Y021216D01*
X023602Y021375D02*
X023702Y021375D01*
X024474Y020899D02*
X024484Y020899D01*
X024611Y020741D02*
X024642Y020741D01*
X024670Y020582D02*
X024720Y020582D01*
X024720Y020424D02*
X024670Y020424D01*
X024720Y020265D02*
X024613Y020265D01*
X024720Y020107D02*
X024479Y020107D01*
X025140Y020107D02*
X025970Y020107D01*
X025970Y020265D02*
X025140Y020265D01*
X025140Y020424D02*
X025970Y020424D01*
X025970Y020582D02*
X025140Y020582D01*
X025140Y020741D02*
X025970Y020741D01*
X025970Y020899D02*
X025140Y020899D01*
X025140Y021058D02*
X025970Y021058D01*
X025970Y021216D02*
X025140Y021216D01*
X025140Y021375D02*
X025970Y021375D01*
X025970Y021533D02*
X025140Y021533D01*
X025140Y021692D02*
X025970Y021692D01*
X025970Y021850D02*
X025140Y021850D01*
X025140Y022009D02*
X025970Y022009D01*
X025970Y022167D02*
X025140Y022167D01*
X025140Y022326D02*
X025970Y022326D01*
X025970Y022484D02*
X025140Y022484D01*
X025140Y022643D02*
X025970Y022643D01*
X025970Y022801D02*
X025140Y022801D01*
X025140Y022960D02*
X025970Y022960D01*
X025970Y023118D02*
X025140Y023118D01*
X025140Y023277D02*
X025970Y023277D01*
X025970Y023435D02*
X025140Y023435D01*
X025140Y023594D02*
X025970Y023594D01*
X025970Y023752D02*
X025140Y023752D01*
X025140Y023911D02*
X025970Y023911D01*
X025970Y024069D02*
X025140Y024069D01*
X025140Y024228D02*
X025970Y024228D01*
X025970Y024386D02*
X025140Y024386D01*
X025140Y024545D02*
X025970Y024545D01*
X025970Y024703D02*
X025140Y024703D01*
X025140Y024862D02*
X025970Y024862D01*
X025970Y025020D02*
X025140Y025020D01*
X025140Y025179D02*
X025970Y025179D01*
X025970Y025337D02*
X025140Y025337D01*
X025140Y025496D02*
X025970Y025496D01*
X025970Y025654D02*
X025140Y025654D01*
X025140Y025813D02*
X025970Y025813D01*
X025970Y025971D02*
X025140Y025971D01*
X025140Y026130D02*
X025970Y026130D01*
X025970Y026288D02*
X025140Y026288D01*
X025140Y026447D02*
X025970Y026447D01*
X025970Y026564D02*
X025970Y015913D01*
X026093Y015790D01*
X028366Y015790D01*
X028650Y015601D01*
X028650Y015280D01*
X028782Y015149D01*
X024343Y010710D01*
X023920Y010710D01*
X023920Y010831D01*
X023826Y010925D01*
X023140Y010925D01*
X023140Y011145D01*
X023432Y011145D01*
X023432Y011492D01*
X023448Y011492D01*
X023448Y011508D01*
X023432Y011508D01*
X023432Y011855D01*
X023140Y011855D01*
X023140Y012075D01*
X023826Y012075D01*
X023920Y012169D01*
X023920Y012443D01*
X025000Y013523D01*
X025079Y013490D01*
X025281Y013490D01*
X025469Y013568D01*
X025612Y013711D01*
X025690Y013899D01*
X025690Y014101D01*
X025612Y014289D01*
X025469Y014432D01*
X025281Y014510D01*
X025079Y014510D01*
X024891Y014432D01*
X024748Y014289D01*
X024670Y014101D01*
X024670Y013899D01*
X024703Y013820D01*
X023628Y012745D01*
X023140Y012745D01*
X023140Y013413D01*
X025017Y015290D01*
X025140Y015413D01*
X025140Y026663D01*
X025693Y027216D01*
X025693Y026658D01*
X025787Y026564D01*
X025970Y026564D01*
X025746Y026605D02*
X025140Y026605D01*
X025241Y026764D02*
X025693Y026764D01*
X025693Y026922D02*
X025399Y026922D01*
X025558Y027081D02*
X025693Y027081D01*
X025281Y027398D02*
X024890Y027398D01*
X024890Y027556D02*
X025439Y027556D01*
X025593Y027710D02*
X024890Y027007D01*
X024890Y032265D01*
X024971Y032265D01*
X025065Y032359D01*
X025065Y033321D01*
X025031Y033355D01*
X025065Y033389D01*
X025065Y033995D01*
X025925Y033995D01*
X025922Y033991D01*
X025922Y033009D01*
X026015Y032915D01*
X026470Y032915D01*
X026470Y030578D01*
X026259Y030578D01*
X026259Y030250D01*
X026259Y030250D01*
X026259Y029750D01*
X026259Y029750D01*
X026259Y029250D01*
X026259Y028750D01*
X026259Y028422D01*
X026470Y028422D01*
X026470Y027710D01*
X025593Y027710D01*
X025122Y027239D02*
X024890Y027239D01*
X024890Y027081D02*
X024964Y027081D01*
X024890Y027715D02*
X026470Y027715D01*
X026470Y027873D02*
X024890Y027873D01*
X024890Y028032D02*
X026470Y028032D01*
X026470Y028190D02*
X024890Y028190D01*
X024890Y028349D02*
X026470Y028349D01*
X026259Y028422D02*
X026259Y028750D01*
X026259Y028750D01*
X026259Y028750D01*
X026259Y029078D01*
X026259Y029250D01*
X026259Y029250D01*
X026259Y029250D01*
X026259Y029422D01*
X026259Y029750D01*
X026259Y029750D01*
X026259Y030078D01*
X026259Y030250D01*
X026259Y030250D01*
X026259Y030578D01*
X026019Y030578D01*
X025973Y030565D01*
X025932Y030542D01*
X025898Y030508D01*
X025874Y030467D01*
X025862Y030421D01*
X025862Y030250D01*
X025862Y030079D01*
X025874Y030033D01*
X025893Y030000D01*
X025874Y029967D01*
X025862Y029921D01*
X025862Y029750D01*
X025862Y029579D01*
X025874Y029533D01*
X025893Y029500D01*
X025874Y029467D01*
X025862Y029421D01*
X025862Y029250D01*
X025862Y029079D01*
X025874Y029033D01*
X025893Y029000D01*
X025874Y028967D01*
X025862Y028921D01*
X025862Y028750D01*
X025862Y028579D01*
X025874Y028533D01*
X025898Y028492D01*
X025932Y028458D01*
X025973Y028435D01*
X026019Y028422D01*
X026259Y028422D01*
X026259Y028507D02*
X026259Y028507D01*
X026259Y028666D02*
X026259Y028666D01*
X026259Y028750D02*
X025862Y028750D01*
X026259Y028750D01*
X026259Y028750D01*
X026259Y028824D02*
X026259Y028824D01*
X026259Y028983D02*
X026259Y028983D01*
X026259Y029141D02*
X026259Y029141D01*
X026259Y029250D02*
X025862Y029250D01*
X026259Y029250D01*
X026259Y029250D01*
X026259Y029300D02*
X026259Y029300D01*
X026259Y029458D02*
X026259Y029458D01*
X026259Y029617D02*
X026259Y029617D01*
X026259Y029750D02*
X025862Y029750D01*
X026259Y029750D01*
X026259Y029750D01*
X026259Y029775D02*
X026259Y029775D01*
X026259Y029934D02*
X026259Y029934D01*
X026259Y030092D02*
X026259Y030092D01*
X026259Y030250D02*
X025862Y030250D01*
X026259Y030250D01*
X026259Y030250D01*
X026259Y030251D02*
X026259Y030251D01*
X026259Y030409D02*
X026259Y030409D01*
X026259Y030568D02*
X026259Y030568D01*
X026470Y030726D02*
X024890Y030726D01*
X024890Y030568D02*
X025981Y030568D01*
X025862Y030409D02*
X024890Y030409D01*
X024890Y030251D02*
X025862Y030251D01*
X025862Y030092D02*
X024890Y030092D01*
X024890Y029934D02*
X025865Y029934D01*
X025862Y029775D02*
X024890Y029775D01*
X024890Y029617D02*
X025862Y029617D01*
X025872Y029458D02*
X024890Y029458D01*
X024890Y029300D02*
X025862Y029300D01*
X025862Y029141D02*
X024890Y029141D01*
X024890Y028983D02*
X025883Y028983D01*
X025862Y028824D02*
X024890Y028824D01*
X024890Y028666D02*
X025862Y028666D01*
X025889Y028507D02*
X024890Y028507D01*
X024890Y030885D02*
X026470Y030885D01*
X026470Y031043D02*
X024890Y031043D01*
X024890Y031202D02*
X026470Y031202D01*
X026470Y031360D02*
X024890Y031360D01*
X024890Y031519D02*
X026470Y031519D01*
X026470Y031677D02*
X024890Y031677D01*
X024890Y031836D02*
X026470Y031836D01*
X026470Y031994D02*
X024890Y031994D01*
X024890Y032153D02*
X026470Y032153D01*
X026470Y032311D02*
X025017Y032311D01*
X025065Y032470D02*
X026470Y032470D01*
X026470Y032628D02*
X025065Y032628D01*
X025065Y032787D02*
X026470Y032787D01*
X026890Y032787D02*
X031096Y032787D01*
X030968Y032915D02*
X031470Y032413D01*
X031470Y032015D01*
X031359Y032015D01*
X031265Y031921D01*
X031265Y031079D01*
X031359Y030985D01*
X032121Y030985D01*
X032215Y031079D01*
X032215Y031921D01*
X032121Y032015D01*
X031890Y032015D01*
X031890Y032587D01*
X031438Y033039D01*
X031438Y033633D01*
X032029Y033333D01*
X032599Y032918D01*
X033098Y032419D01*
X033513Y031849D01*
X033833Y031220D01*
X034051Y030549D01*
X034065Y030457D01*
X034042Y030465D01*
X033968Y030477D01*
X033948Y030477D01*
X033948Y030018D01*
X033912Y030018D01*
X033912Y029982D01*
X033948Y029982D01*
X033948Y029523D01*
X033968Y029523D01*
X034042Y029535D01*
X034113Y029558D01*
X034172Y029588D01*
X034175Y029500D01*
X034175Y029410D01*
X034113Y029442D01*
X034042Y029465D01*
X033968Y029477D01*
X033948Y029477D01*
X033948Y029018D01*
X033912Y029018D01*
X033912Y028982D01*
X033948Y028982D01*
X033948Y028523D01*
X033968Y028523D01*
X034042Y028535D01*
X034113Y028558D01*
X034175Y028590D01*
X034175Y028393D01*
X034021Y028457D01*
X033839Y028457D01*
X033671Y028387D01*
X033543Y028259D01*
X033473Y028091D01*
X033473Y027909D01*
X033543Y027741D01*
X033671Y027613D01*
X033839Y027543D01*
X034021Y027543D01*
X034175Y027607D01*
X034175Y027393D01*
X034021Y027457D01*
X033839Y027457D01*
X033671Y027387D01*
X033543Y027259D01*
X033473Y027091D01*
X033473Y026909D01*
X033543Y026741D01*
X033671Y026613D01*
X033839Y026543D01*
X034021Y026543D01*
X034175Y026607D01*
X034175Y026393D01*
X034021Y026457D01*
X033839Y026457D01*
X033671Y026387D01*
X033543Y026259D01*
X033473Y026091D01*
X033473Y025909D01*
X033543Y025741D01*
X033671Y025613D01*
X033839Y025543D01*
X034021Y025543D01*
X034175Y025607D01*
X034175Y025393D01*
X034021Y025457D01*
X033839Y025457D01*
X033671Y025387D01*
X033543Y025259D01*
X033473Y025091D01*
X033473Y024909D01*
X033543Y024741D01*
X033671Y024613D01*
X033839Y024543D01*
X034021Y024543D01*
X034175Y024607D01*
X034175Y024393D01*
X034021Y024457D01*
X033839Y024457D01*
X033671Y024387D01*
X033543Y024259D01*
X033473Y024091D01*
X033473Y023909D01*
X033543Y023741D01*
X033671Y023613D01*
X033839Y023543D01*
X034021Y023543D01*
X034175Y023607D01*
X034175Y023393D01*
X034021Y023457D01*
X033839Y023457D01*
X033671Y023387D01*
X033543Y023259D01*
X033473Y023091D01*
X033473Y022909D01*
X033543Y022741D01*
X033671Y022613D01*
X033839Y022543D01*
X034021Y022543D01*
X034175Y022607D01*
X034175Y022393D01*
X034021Y022457D01*
X033839Y022457D01*
X033671Y022387D01*
X033543Y022259D01*
X033473Y022091D01*
X033473Y021909D01*
X033543Y021741D01*
X033671Y021613D01*
X033839Y021543D01*
X034021Y021543D01*
X034175Y021607D01*
X034175Y021393D01*
X034021Y021457D01*
X033839Y021457D01*
X033790Y021437D01*
X033640Y021587D01*
X033517Y021710D01*
X033286Y021710D01*
X033317Y021741D01*
X033387Y021909D01*
X033387Y022091D01*
X033317Y022259D01*
X033189Y022387D01*
X033021Y022457D01*
X032839Y022457D01*
X032671Y022387D01*
X032543Y022259D01*
X032473Y022091D01*
X032473Y021909D01*
X032543Y021741D01*
X032574Y021710D01*
X032385Y021710D01*
X032385Y021862D01*
X032292Y021955D01*
X031640Y021955D01*
X031640Y026790D01*
X031767Y026790D01*
X031890Y026913D01*
X031890Y028587D01*
X031767Y028710D01*
X031521Y028710D01*
X031521Y028783D01*
X031514Y028790D01*
X031843Y028790D01*
X032493Y028140D01*
X032473Y028091D01*
X032473Y027909D01*
X032543Y027741D01*
X032671Y027613D01*
X032839Y027543D01*
X033021Y027543D01*
X033189Y027613D01*
X033317Y027741D01*
X033387Y027909D01*
X033387Y028091D01*
X033317Y028259D01*
X033189Y028387D01*
X033021Y028457D01*
X032839Y028457D01*
X032790Y028437D01*
X032017Y029210D01*
X031521Y029210D01*
X031521Y029452D01*
X031427Y029546D01*
X030507Y029546D01*
X030414Y029452D01*
X030414Y029210D01*
X030093Y029210D01*
X029970Y029087D01*
X029970Y027837D01*
X029946Y027813D01*
X029946Y028114D01*
X029894Y028165D01*
X029946Y028217D01*
X029946Y028783D01*
X029894Y028835D01*
X029946Y028886D01*
X029946Y029452D01*
X029853Y029546D01*
X029181Y029546D01*
X028267Y030460D01*
X027478Y030460D01*
X027478Y030464D01*
X027384Y030558D01*
X026890Y030558D01*
X026890Y032915D01*
X027467Y032915D01*
X027560Y033009D01*
X027560Y033991D01*
X027557Y033995D01*
X029680Y033995D01*
X029800Y033990D01*
X029800Y033009D01*
X029893Y032915D01*
X030968Y032915D01*
X031255Y032628D02*
X026890Y032628D01*
X026890Y032470D02*
X031413Y032470D01*
X031470Y032311D02*
X026890Y032311D01*
X026890Y032153D02*
X031470Y032153D01*
X031338Y031994D02*
X031051Y031994D01*
X031046Y031999D02*
X031005Y032023D01*
X030959Y032035D01*
X030698Y032035D01*
X030698Y031577D01*
X031115Y031577D01*
X031115Y031879D01*
X031103Y031924D01*
X031079Y031965D01*
X031046Y031999D01*
X031115Y031836D02*
X031265Y031836D01*
X031265Y031677D02*
X031115Y031677D01*
X031265Y031519D02*
X030698Y031519D01*
X030698Y031577D02*
X030698Y031423D01*
X031115Y031423D01*
X031115Y031121D01*
X031103Y031076D01*
X031079Y031035D01*
X031046Y031001D01*
X031005Y030977D01*
X030959Y030965D01*
X030698Y030965D01*
X030698Y031423D01*
X030543Y031423D01*
X030125Y031423D01*
X030125Y031121D01*
X030137Y031076D01*
X030161Y031035D01*
X030195Y031001D01*
X030236Y030977D01*
X030281Y030965D01*
X030543Y030965D01*
X030543Y031423D01*
X030543Y031577D01*
X030125Y031577D01*
X030125Y031879D01*
X030137Y031924D01*
X030161Y031965D01*
X030195Y031999D01*
X030236Y032023D01*
X030281Y032035D01*
X030543Y032035D01*
X030543Y031577D01*
X030698Y031577D01*
X030698Y031677D02*
X030543Y031677D01*
X030543Y031519D02*
X026890Y031519D01*
X026890Y031677D02*
X030125Y031677D01*
X030125Y031836D02*
X026890Y031836D01*
X026890Y031994D02*
X030190Y031994D01*
X030543Y031994D02*
X030698Y031994D01*
X030698Y031836D02*
X030543Y031836D01*
X030543Y031360D02*
X030698Y031360D01*
X030698Y031202D02*
X030543Y031202D01*
X030543Y031043D02*
X030698Y031043D01*
X031084Y031043D02*
X031301Y031043D01*
X031265Y031202D02*
X031115Y031202D01*
X031115Y031360D02*
X031265Y031360D01*
X032179Y031043D02*
X033890Y031043D01*
X033839Y031202D02*
X032215Y031202D01*
X032215Y031360D02*
X033762Y031360D01*
X033681Y031519D02*
X032215Y031519D01*
X032215Y031677D02*
X033600Y031677D01*
X033519Y031836D02*
X032215Y031836D01*
X032142Y031994D02*
X033407Y031994D01*
X033292Y032153D02*
X031890Y032153D01*
X031890Y032311D02*
X033177Y032311D01*
X033048Y032470D02*
X031890Y032470D01*
X031849Y032628D02*
X032889Y032628D01*
X032731Y032787D02*
X031690Y032787D01*
X031532Y032945D02*
X032562Y032945D01*
X032344Y033104D02*
X031438Y033104D01*
X031438Y033262D02*
X032126Y033262D01*
X031856Y033421D02*
X031438Y033421D01*
X031438Y033579D02*
X031545Y033579D01*
X029863Y032945D02*
X027497Y032945D01*
X027560Y033104D02*
X029800Y033104D01*
X029800Y033262D02*
X027560Y033262D01*
X027560Y033421D02*
X029800Y033421D01*
X029800Y033579D02*
X027560Y033579D01*
X027560Y033738D02*
X029800Y033738D01*
X029800Y033896D02*
X027560Y033896D01*
X025922Y033896D02*
X025065Y033896D01*
X025065Y033738D02*
X025922Y033738D01*
X025922Y033579D02*
X025065Y033579D01*
X025065Y033421D02*
X025922Y033421D01*
X025922Y033262D02*
X025065Y033262D01*
X025065Y033104D02*
X025922Y033104D01*
X025985Y032945D02*
X025065Y032945D01*
X026890Y031360D02*
X030125Y031360D01*
X030125Y031202D02*
X026890Y031202D01*
X026890Y031043D02*
X030156Y031043D01*
X028952Y029775D02*
X032509Y029775D01*
X032522Y029750D02*
X032566Y029689D01*
X032619Y029636D01*
X032680Y029592D01*
X032747Y029558D01*
X032818Y029535D01*
X032892Y029523D01*
X032912Y029523D01*
X032912Y029982D01*
X032453Y029982D01*
X032453Y029962D01*
X032465Y029888D01*
X032488Y029817D01*
X032522Y029750D01*
X032647Y029617D02*
X029110Y029617D01*
X028793Y029934D02*
X032458Y029934D01*
X032453Y030018D02*
X032912Y030018D01*
X032912Y029982D01*
X032948Y029982D01*
X032948Y030018D01*
X032912Y030018D01*
X032912Y030477D01*
X032892Y030477D01*
X032818Y030465D01*
X032747Y030442D01*
X032680Y030408D01*
X032619Y030364D01*
X032566Y030311D01*
X032522Y030250D01*
X032488Y030183D01*
X032465Y030112D01*
X032453Y030038D01*
X032453Y030018D01*
X032462Y030092D02*
X028635Y030092D01*
X028476Y030251D02*
X032523Y030251D01*
X032682Y030409D02*
X028318Y030409D01*
X026890Y030568D02*
X034045Y030568D01*
X033912Y030477D02*
X033892Y030477D01*
X033818Y030465D01*
X033747Y030442D01*
X033680Y030408D01*
X033619Y030364D01*
X033566Y030311D01*
X033522Y030250D01*
X033488Y030183D01*
X033465Y030112D01*
X033453Y030038D01*
X033453Y030018D01*
X033912Y030018D01*
X033912Y030477D01*
X033912Y030409D02*
X033948Y030409D01*
X033948Y030251D02*
X033912Y030251D01*
X033912Y030092D02*
X033948Y030092D01*
X033912Y029982D02*
X033453Y029982D01*
X033453Y029962D01*
X033465Y029888D01*
X033488Y029817D01*
X033522Y029750D01*
X033566Y029689D01*
X033619Y029636D01*
X033680Y029592D01*
X033747Y029558D01*
X033818Y029535D01*
X033892Y029523D01*
X033912Y029523D01*
X033912Y029982D01*
X033912Y029934D02*
X033948Y029934D01*
X033948Y029775D02*
X033912Y029775D01*
X033912Y029617D02*
X033948Y029617D01*
X033912Y029477D02*
X033892Y029477D01*
X033818Y029465D01*
X033747Y029442D01*
X033680Y029408D01*
X033619Y029364D01*
X033566Y029311D01*
X033522Y029250D01*
X033488Y029183D01*
X033465Y029112D01*
X033453Y029038D01*
X033453Y029018D01*
X033912Y029018D01*
X033912Y029477D01*
X033912Y029458D02*
X033948Y029458D01*
X034063Y029458D02*
X034175Y029458D01*
X033948Y029300D02*
X033912Y029300D01*
X033912Y029141D02*
X033948Y029141D01*
X033912Y028983D02*
X032948Y028983D01*
X032948Y028982D02*
X032948Y029018D01*
X032912Y029018D01*
X032912Y028982D01*
X032453Y028982D01*
X032453Y028962D01*
X032465Y028888D01*
X032488Y028817D01*
X032522Y028750D01*
X032566Y028689D01*
X032619Y028636D01*
X032680Y028592D01*
X032747Y028558D01*
X032818Y028535D01*
X032892Y028523D01*
X032912Y028523D01*
X032912Y028982D01*
X032948Y028982D01*
X033407Y028982D01*
X033407Y028962D01*
X033395Y028888D01*
X033372Y028817D01*
X033338Y028750D01*
X033294Y028689D01*
X033241Y028636D01*
X033180Y028592D01*
X033113Y028558D01*
X033042Y028535D01*
X032968Y028523D01*
X032948Y028523D01*
X032948Y028982D01*
X032948Y029018D02*
X033407Y029018D01*
X033407Y029038D01*
X033395Y029112D01*
X033372Y029183D01*
X033338Y029250D01*
X033294Y029311D01*
X033241Y029364D01*
X033180Y029408D01*
X033113Y029442D01*
X033042Y029465D01*
X032968Y029477D01*
X032948Y029477D01*
X032948Y029018D01*
X032912Y029018D02*
X032912Y029477D01*
X032892Y029477D01*
X032818Y029465D01*
X032747Y029442D01*
X032680Y029408D01*
X032619Y029364D01*
X032566Y029311D01*
X032522Y029250D01*
X032488Y029183D01*
X032465Y029112D01*
X032453Y029038D01*
X032453Y029018D01*
X032912Y029018D01*
X032912Y028983D02*
X032244Y028983D01*
X032086Y029141D02*
X032474Y029141D01*
X032558Y029300D02*
X031521Y029300D01*
X031515Y029458D02*
X032797Y029458D01*
X032912Y029458D02*
X032948Y029458D01*
X032948Y029523D02*
X032968Y029523D01*
X033042Y029535D01*
X033113Y029558D01*
X033180Y029592D01*
X033241Y029636D01*
X033294Y029689D01*
X033338Y029750D01*
X033372Y029817D01*
X033395Y029888D01*
X033407Y029962D01*
X033407Y029982D01*
X032948Y029982D01*
X032948Y029523D01*
X032948Y029617D02*
X032912Y029617D01*
X032912Y029775D02*
X032948Y029775D01*
X032948Y029934D02*
X032912Y029934D01*
X032948Y030018D02*
X033407Y030018D01*
X033407Y030038D01*
X033395Y030112D01*
X033372Y030183D01*
X033338Y030250D01*
X033294Y030311D01*
X033241Y030364D01*
X033180Y030408D01*
X033113Y030442D01*
X033042Y030465D01*
X032968Y030477D01*
X032948Y030477D01*
X032948Y030018D01*
X032948Y030092D02*
X032912Y030092D01*
X032912Y030251D02*
X032948Y030251D01*
X032948Y030409D02*
X032912Y030409D01*
X033178Y030409D02*
X033682Y030409D01*
X033523Y030251D02*
X033337Y030251D01*
X033398Y030092D02*
X033462Y030092D01*
X033458Y029934D02*
X033402Y029934D01*
X033351Y029775D02*
X033509Y029775D01*
X033647Y029617D02*
X033213Y029617D01*
X033063Y029458D02*
X033797Y029458D01*
X033558Y029300D02*
X033302Y029300D01*
X033386Y029141D02*
X033474Y029141D01*
X033453Y028982D02*
X033453Y028962D01*
X033465Y028888D01*
X033488Y028817D01*
X033522Y028750D01*
X033566Y028689D01*
X033619Y028636D01*
X033680Y028592D01*
X033747Y028558D01*
X033818Y028535D01*
X033892Y028523D01*
X033912Y028523D01*
X033912Y028982D01*
X033453Y028982D01*
X033486Y028824D02*
X033374Y028824D01*
X033270Y028666D02*
X033590Y028666D01*
X033632Y028349D02*
X033228Y028349D01*
X033346Y028190D02*
X033514Y028190D01*
X033473Y028032D02*
X033387Y028032D01*
X033372Y027873D02*
X033488Y027873D01*
X033569Y027715D02*
X033291Y027715D01*
X033052Y027556D02*
X033808Y027556D01*
X033696Y027398D02*
X033164Y027398D01*
X033189Y027387D02*
X033021Y027457D01*
X032839Y027457D01*
X032671Y027387D01*
X032543Y027259D01*
X032473Y027091D01*
X032473Y026909D01*
X032543Y026741D01*
X032671Y026613D01*
X032839Y026543D01*
X033021Y026543D01*
X033189Y026613D01*
X033317Y026741D01*
X033387Y026909D01*
X033387Y027091D01*
X033317Y027259D01*
X033189Y027387D01*
X033325Y027239D02*
X033535Y027239D01*
X033473Y027081D02*
X033387Y027081D01*
X033387Y026922D02*
X033473Y026922D01*
X033533Y026764D02*
X033327Y026764D01*
X033170Y026605D02*
X033690Y026605D01*
X033814Y026447D02*
X033046Y026447D01*
X033021Y026457D02*
X032839Y026457D01*
X032671Y026387D01*
X032543Y026259D01*
X032473Y026091D01*
X032473Y025909D01*
X032543Y025741D01*
X032671Y025613D01*
X032839Y025543D01*
X033021Y025543D01*
X033189Y025613D01*
X033317Y025741D01*
X033387Y025909D01*
X033387Y026091D01*
X033317Y026259D01*
X033189Y026387D01*
X033021Y026457D01*
X032814Y026447D02*
X031640Y026447D01*
X031640Y026605D02*
X032690Y026605D01*
X032533Y026764D02*
X031640Y026764D01*
X031890Y026922D02*
X032473Y026922D01*
X032473Y027081D02*
X031890Y027081D01*
X031890Y027239D02*
X032535Y027239D01*
X032696Y027398D02*
X031890Y027398D01*
X031890Y027556D02*
X032808Y027556D01*
X032569Y027715D02*
X031890Y027715D01*
X031890Y027873D02*
X032488Y027873D01*
X032473Y028032D02*
X031890Y028032D01*
X031890Y028190D02*
X032443Y028190D01*
X032284Y028349D02*
X031890Y028349D01*
X031890Y028507D02*
X032126Y028507D01*
X031967Y028666D02*
X031811Y028666D01*
X032403Y028824D02*
X032486Y028824D01*
X032561Y028666D02*
X032590Y028666D01*
X032720Y028507D02*
X034175Y028507D01*
X033948Y028666D02*
X033912Y028666D01*
X033912Y028824D02*
X033948Y028824D01*
X032948Y028824D02*
X032912Y028824D01*
X032912Y028666D02*
X032948Y028666D01*
X032948Y029141D02*
X032912Y029141D01*
X032912Y029300D02*
X032948Y029300D01*
X033993Y030726D02*
X026890Y030726D01*
X026890Y030885D02*
X033942Y030885D01*
X034052Y027556D02*
X034175Y027556D01*
X034164Y027398D02*
X034175Y027398D01*
X034170Y026605D02*
X034175Y026605D01*
X034175Y026447D02*
X034046Y026447D01*
X033572Y026288D02*
X033288Y026288D01*
X033371Y026130D02*
X033489Y026130D01*
X033473Y025971D02*
X033387Y025971D01*
X033347Y025813D02*
X033513Y025813D01*
X033630Y025654D02*
X033230Y025654D01*
X033189Y025387D02*
X033021Y025457D01*
X032839Y025457D01*
X032671Y025387D01*
X032543Y025259D01*
X032473Y025091D01*
X032473Y024909D01*
X032543Y024741D01*
X032671Y024613D01*
X032839Y024543D01*
X033021Y024543D01*
X033189Y024613D01*
X033317Y024741D01*
X033387Y024909D01*
X033387Y025091D01*
X033317Y025259D01*
X033189Y025387D01*
X033239Y025337D02*
X033621Y025337D01*
X033509Y025179D02*
X033351Y025179D01*
X033387Y025020D02*
X033473Y025020D01*
X033493Y024862D02*
X033367Y024862D01*
X033279Y024703D02*
X033581Y024703D01*
X033836Y024545D02*
X033024Y024545D01*
X033021Y024457D02*
X032839Y024457D01*
X032671Y024387D01*
X032543Y024259D01*
X032473Y024091D01*
X032473Y023909D01*
X032543Y023741D01*
X032671Y023613D01*
X032839Y023543D01*
X033021Y023543D01*
X033189Y023613D01*
X033317Y023741D01*
X033387Y023909D01*
X033387Y024091D01*
X033317Y024259D01*
X033189Y024387D01*
X033021Y024457D01*
X033190Y024386D02*
X033670Y024386D01*
X033530Y024228D02*
X033330Y024228D01*
X033387Y024069D02*
X033473Y024069D01*
X033473Y023911D02*
X033387Y023911D01*
X033322Y023752D02*
X033538Y023752D01*
X033718Y023594D02*
X033142Y023594D01*
X033074Y023435D02*
X033786Y023435D01*
X033560Y023277D02*
X033300Y023277D01*
X033317Y023259D02*
X033189Y023387D01*
X033021Y023457D01*
X032839Y023457D01*
X032671Y023387D01*
X032543Y023259D01*
X032473Y023091D01*
X032473Y022909D01*
X032543Y022741D01*
X032671Y022613D01*
X032839Y022543D01*
X033021Y022543D01*
X033189Y022613D01*
X033317Y022741D01*
X033387Y022909D01*
X033387Y023091D01*
X033317Y023259D01*
X033376Y023118D02*
X033484Y023118D01*
X033473Y022960D02*
X033387Y022960D01*
X033342Y022801D02*
X033518Y022801D01*
X033641Y022643D02*
X033219Y022643D01*
X033251Y022326D02*
X033609Y022326D01*
X033505Y022167D02*
X033355Y022167D01*
X033387Y022009D02*
X033473Y022009D01*
X033498Y021850D02*
X033362Y021850D01*
X033535Y021692D02*
X033592Y021692D01*
X033694Y021533D02*
X034175Y021533D01*
X034175Y022484D02*
X031640Y022484D01*
X031640Y022326D02*
X032609Y022326D01*
X032505Y022167D02*
X031640Y022167D01*
X031640Y022009D02*
X032473Y022009D01*
X032498Y021850D02*
X032385Y021850D01*
X032641Y022643D02*
X031640Y022643D01*
X031640Y022801D02*
X032518Y022801D01*
X032473Y022960D02*
X031640Y022960D01*
X031640Y023118D02*
X032484Y023118D01*
X032560Y023277D02*
X031640Y023277D01*
X031640Y023435D02*
X032786Y023435D01*
X032718Y023594D02*
X031640Y023594D01*
X031640Y023752D02*
X032538Y023752D01*
X032473Y023911D02*
X031640Y023911D01*
X031640Y024069D02*
X032473Y024069D01*
X032530Y024228D02*
X031640Y024228D01*
X031640Y024386D02*
X032670Y024386D01*
X032836Y024545D02*
X031640Y024545D01*
X031640Y024703D02*
X032581Y024703D01*
X032493Y024862D02*
X031640Y024862D01*
X031640Y025020D02*
X032473Y025020D01*
X032509Y025179D02*
X031640Y025179D01*
X031640Y025337D02*
X032621Y025337D01*
X032630Y025654D02*
X031640Y025654D01*
X031640Y025496D02*
X034175Y025496D01*
X034175Y024545D02*
X034024Y024545D01*
X034142Y023594D02*
X034175Y023594D01*
X034175Y023435D02*
X034074Y023435D01*
X032513Y025813D02*
X031640Y025813D01*
X031640Y025971D02*
X032473Y025971D01*
X032489Y026130D02*
X031640Y026130D01*
X031640Y026288D02*
X032572Y026288D01*
X029970Y027873D02*
X029946Y027873D01*
X029946Y028032D02*
X029970Y028032D01*
X029970Y028190D02*
X029919Y028190D01*
X029946Y028349D02*
X029970Y028349D01*
X029970Y028507D02*
X029946Y028507D01*
X029946Y028666D02*
X029970Y028666D01*
X029970Y028824D02*
X029905Y028824D01*
X029946Y028983D02*
X029970Y028983D01*
X029946Y029141D02*
X030024Y029141D01*
X029946Y029300D02*
X030414Y029300D01*
X030420Y029458D02*
X029940Y029458D01*
X028720Y021790D02*
X026640Y021790D01*
X026640Y016710D01*
X028650Y016710D01*
X028650Y016720D01*
X028930Y017000D01*
X028650Y017280D01*
X028650Y017290D01*
X028135Y017290D01*
X028135Y017138D01*
X028042Y017045D01*
X027318Y017045D01*
X027225Y017138D01*
X027225Y017862D01*
X027318Y017955D01*
X028042Y017955D01*
X028135Y017862D01*
X028135Y017710D01*
X028650Y017710D01*
X028650Y017720D01*
X028916Y017986D01*
X028630Y018272D01*
X028630Y018480D01*
X029160Y018480D01*
X029160Y018520D01*
X028630Y018520D01*
X028630Y018728D01*
X028916Y019014D01*
X028650Y019280D01*
X028650Y019290D01*
X028135Y019290D01*
X028135Y019138D01*
X028042Y019045D01*
X027318Y019045D01*
X027225Y019138D01*
X027225Y019862D01*
X027318Y019955D01*
X028042Y019955D01*
X028135Y019862D01*
X028135Y019710D01*
X028650Y019710D01*
X028650Y019720D01*
X028930Y020000D01*
X028650Y020280D01*
X028650Y020720D01*
X028930Y021000D01*
X028650Y021280D01*
X028650Y021720D01*
X028720Y021790D01*
X028650Y021692D02*
X026640Y021692D01*
X026640Y021533D02*
X028650Y021533D01*
X028650Y021375D02*
X026640Y021375D01*
X026640Y021216D02*
X028714Y021216D01*
X028873Y021058D02*
X026640Y021058D01*
X026640Y020899D02*
X028829Y020899D01*
X028671Y020741D02*
X026640Y020741D01*
X026640Y020582D02*
X028650Y020582D01*
X028650Y020424D02*
X026640Y020424D01*
X026640Y020265D02*
X028665Y020265D01*
X028824Y020107D02*
X026640Y020107D01*
X026640Y019948D02*
X027311Y019948D01*
X027225Y019790D02*
X026640Y019790D01*
X026640Y019631D02*
X027225Y019631D01*
X027225Y019473D02*
X026640Y019473D01*
X026640Y019314D02*
X027225Y019314D01*
X027225Y019156D02*
X026640Y019156D01*
X026640Y018997D02*
X028899Y018997D01*
X028775Y019156D02*
X028135Y019156D01*
X028135Y019790D02*
X028720Y019790D01*
X028878Y019948D02*
X028049Y019948D01*
X028741Y018839D02*
X026640Y018839D01*
X026640Y018680D02*
X028630Y018680D01*
X028630Y018522D02*
X026640Y018522D01*
X026640Y018363D02*
X028630Y018363D01*
X028698Y018205D02*
X026640Y018205D01*
X026640Y018046D02*
X028856Y018046D01*
X028818Y017888D02*
X028110Y017888D01*
X028135Y017729D02*
X028659Y017729D01*
X028677Y017254D02*
X028135Y017254D01*
X028092Y017095D02*
X028835Y017095D01*
X028867Y016937D02*
X026640Y016937D01*
X026640Y017095D02*
X027268Y017095D01*
X027225Y017254D02*
X026640Y017254D01*
X026640Y017412D02*
X027225Y017412D01*
X027225Y017571D02*
X026640Y017571D01*
X026640Y017729D02*
X027225Y017729D01*
X027250Y017888D02*
X026640Y017888D01*
X025970Y017888D02*
X025140Y017888D01*
X025140Y018046D02*
X025970Y018046D01*
X025970Y018205D02*
X025140Y018205D01*
X025140Y018363D02*
X025970Y018363D01*
X025970Y018522D02*
X025140Y018522D01*
X025140Y018680D02*
X025970Y018680D01*
X025970Y018839D02*
X025140Y018839D01*
X025140Y018997D02*
X025970Y018997D01*
X025970Y019156D02*
X025140Y019156D01*
X025140Y019314D02*
X025970Y019314D01*
X025970Y019473D02*
X025140Y019473D01*
X025140Y019631D02*
X025970Y019631D01*
X025970Y019790D02*
X025140Y019790D01*
X025140Y019948D02*
X025970Y019948D01*
X025970Y017729D02*
X025140Y017729D01*
X025140Y017571D02*
X025970Y017571D01*
X025970Y017412D02*
X025140Y017412D01*
X025140Y017254D02*
X025970Y017254D01*
X025970Y017095D02*
X025140Y017095D01*
X025140Y016937D02*
X025970Y016937D01*
X025970Y016778D02*
X025140Y016778D01*
X025140Y016620D02*
X025970Y016620D01*
X025970Y016461D02*
X025140Y016461D01*
X025140Y016303D02*
X025970Y016303D01*
X025970Y016144D02*
X025140Y016144D01*
X025140Y015986D02*
X025970Y015986D01*
X026056Y015827D02*
X025140Y015827D01*
X025140Y015669D02*
X028549Y015669D01*
X028650Y015510D02*
X025140Y015510D01*
X025078Y015352D02*
X028650Y015352D01*
X028737Y015193D02*
X024920Y015193D01*
X024761Y015035D02*
X028668Y015035D01*
X028509Y014876D02*
X024603Y014876D01*
X024444Y014718D02*
X028351Y014718D01*
X028192Y014559D02*
X024286Y014559D01*
X024127Y014401D02*
X024859Y014401D01*
X024728Y014242D02*
X023969Y014242D01*
X023810Y014084D02*
X024670Y014084D01*
X024670Y013925D02*
X023652Y013925D01*
X023493Y013767D02*
X024650Y013767D01*
X024491Y013608D02*
X023335Y013608D01*
X023176Y013450D02*
X024333Y013450D01*
X024174Y013291D02*
X023140Y013291D01*
X023140Y013133D02*
X024016Y013133D01*
X023857Y012974D02*
X023140Y012974D01*
X023140Y012816D02*
X023699Y012816D01*
X023975Y012499D02*
X026132Y012499D01*
X026290Y012657D02*
X024134Y012657D01*
X024292Y012816D02*
X026449Y012816D01*
X026607Y012974D02*
X024451Y012974D01*
X024609Y013133D02*
X026766Y013133D01*
X026924Y013291D02*
X024768Y013291D01*
X024926Y013450D02*
X027083Y013450D01*
X027241Y013608D02*
X025509Y013608D01*
X025635Y013767D02*
X027400Y013767D01*
X027558Y013925D02*
X025690Y013925D01*
X025690Y014084D02*
X027717Y014084D01*
X027875Y014242D02*
X025632Y014242D01*
X025501Y014401D02*
X028034Y014401D01*
X028310Y014084D02*
X028847Y014084D01*
X028930Y014000D02*
X028650Y013720D01*
X028650Y013280D01*
X028930Y013000D01*
X028650Y012720D01*
X028650Y012280D01*
X028930Y012000D01*
X028650Y011720D01*
X028650Y011280D01*
X028916Y011014D01*
X028630Y010728D01*
X028630Y010520D01*
X029160Y010520D01*
X029160Y010480D01*
X029200Y010480D01*
X029200Y009950D01*
X029408Y009950D01*
X029694Y010236D01*
X029960Y009970D01*
X030400Y009970D01*
X030710Y010280D01*
X030710Y010720D01*
X030430Y011000D01*
X030710Y011280D01*
X030710Y011720D01*
X030430Y012000D01*
X030710Y012280D01*
X030710Y012720D01*
X030444Y012986D01*
X030730Y013272D01*
X030730Y013480D01*
X030200Y013480D01*
X030200Y013520D01*
X030730Y013520D01*
X030730Y013728D01*
X030444Y014014D01*
X030710Y014280D01*
X030710Y014486D01*
X031220Y014690D01*
X031220Y013163D01*
X031343Y013040D01*
X032473Y013040D01*
X032473Y012909D01*
X032543Y012741D01*
X032671Y012613D01*
X032839Y012543D01*
X033021Y012543D01*
X033189Y012613D01*
X033317Y012741D01*
X033387Y012909D01*
X033387Y013091D01*
X033317Y013259D01*
X033189Y013387D01*
X033021Y013457D01*
X032839Y013457D01*
X032671Y013387D01*
X032640Y013356D01*
X032640Y013644D01*
X032671Y013613D01*
X032839Y013543D01*
X033021Y013543D01*
X033189Y013613D01*
X033317Y013741D01*
X033387Y013909D01*
X033387Y014091D01*
X033317Y014259D01*
X033189Y014387D01*
X033021Y014457D01*
X032839Y014457D01*
X032671Y014387D01*
X032543Y014259D01*
X032522Y014210D01*
X032343Y014210D01*
X032220Y014087D01*
X032220Y013460D01*
X031640Y013460D01*
X031640Y014545D01*
X032292Y014545D01*
X032385Y014638D01*
X032385Y014790D01*
X032522Y014790D01*
X032543Y014741D01*
X032671Y014613D01*
X032839Y014543D01*
X033021Y014543D01*
X033189Y014613D01*
X033317Y014741D01*
X033387Y014909D01*
X033387Y015091D01*
X033317Y015259D01*
X033189Y015387D01*
X033021Y015457D01*
X032839Y015457D01*
X032671Y015387D01*
X032543Y015259D01*
X032522Y015210D01*
X032385Y015210D01*
X032385Y015362D01*
X032292Y015455D01*
X031640Y015455D01*
X031640Y015545D01*
X032292Y015545D01*
X032385Y015638D01*
X032385Y016159D01*
X032790Y016563D01*
X032839Y016543D01*
X033021Y016543D01*
X033189Y016613D01*
X033317Y016741D01*
X033387Y016909D01*
X033387Y017091D01*
X033317Y017259D01*
X033189Y017387D01*
X033021Y017457D01*
X032839Y017457D01*
X032671Y017387D01*
X032543Y017259D01*
X032473Y017091D01*
X032473Y016909D01*
X032493Y016860D01*
X032089Y016455D01*
X031640Y016455D01*
X031640Y019045D01*
X032292Y019045D01*
X032385Y019138D01*
X032385Y019290D01*
X032574Y019290D01*
X032543Y019259D01*
X032473Y019091D01*
X032473Y018909D01*
X032543Y018741D01*
X032671Y018613D01*
X032839Y018543D01*
X033021Y018543D01*
X033189Y018613D01*
X033317Y018741D01*
X033387Y018909D01*
X033387Y019091D01*
X033317Y019259D01*
X033286Y019290D01*
X033517Y019290D01*
X033640Y019413D01*
X033790Y019563D01*
X033839Y019543D01*
X034021Y019543D01*
X034175Y019607D01*
X034175Y019393D01*
X034021Y019457D01*
X033839Y019457D01*
X033671Y019387D01*
X033543Y019259D01*
X033473Y019091D01*
X033473Y018909D01*
X033543Y018741D01*
X033671Y018613D01*
X033839Y018543D01*
X034021Y018543D01*
X034175Y018607D01*
X034175Y018393D01*
X034021Y018457D01*
X033839Y018457D01*
X033671Y018387D01*
X033543Y018259D01*
X033473Y018091D01*
X033473Y017909D01*
X033543Y017741D01*
X033671Y017613D01*
X033839Y017543D01*
X034021Y017543D01*
X034175Y017607D01*
X034175Y017393D01*
X034021Y017457D01*
X033839Y017457D01*
X033671Y017387D01*
X033543Y017259D01*
X033473Y017091D01*
X033473Y016909D01*
X033543Y016741D01*
X033671Y016613D01*
X033839Y016543D01*
X034021Y016543D01*
X034175Y016607D01*
X034175Y016393D01*
X034021Y016457D01*
X033839Y016457D01*
X033671Y016387D01*
X033543Y016259D01*
X033473Y016091D01*
X033473Y015909D01*
X033543Y015741D01*
X033671Y015613D01*
X033839Y015543D01*
X034021Y015543D01*
X034175Y015607D01*
X034175Y015393D01*
X034021Y015457D01*
X033839Y015457D01*
X033671Y015387D01*
X033543Y015259D01*
X033473Y015091D01*
X033473Y014909D01*
X033543Y014741D01*
X033671Y014613D01*
X033839Y014543D01*
X034021Y014543D01*
X034175Y014607D01*
X034175Y014393D01*
X034021Y014457D01*
X033839Y014457D01*
X033671Y014387D01*
X033543Y014259D01*
X033473Y014091D01*
X033473Y013909D01*
X033543Y013741D01*
X033671Y013613D01*
X033839Y013543D01*
X034021Y013543D01*
X034175Y013607D01*
X034175Y013393D01*
X034021Y013457D01*
X033839Y013457D01*
X033671Y013387D01*
X033543Y013259D01*
X033473Y013091D01*
X033473Y012909D01*
X033543Y012741D01*
X033671Y012613D01*
X033839Y012543D01*
X034021Y012543D01*
X034175Y012607D01*
X034175Y012393D01*
X034021Y012457D01*
X033839Y012457D01*
X033671Y012387D01*
X033543Y012259D01*
X033473Y012091D01*
X033473Y011909D01*
X033543Y011741D01*
X033671Y011613D01*
X033839Y011543D01*
X034021Y011543D01*
X034175Y011607D01*
X034175Y011393D01*
X034021Y011457D01*
X033839Y011457D01*
X033671Y011387D01*
X033543Y011259D01*
X033473Y011091D01*
X033473Y010909D01*
X033543Y010741D01*
X033671Y010613D01*
X033839Y010543D01*
X034021Y010543D01*
X034175Y010607D01*
X034175Y010393D01*
X034021Y010457D01*
X033839Y010457D01*
X033671Y010387D01*
X033543Y010259D01*
X033473Y010091D01*
X033473Y009909D01*
X033493Y009860D01*
X033343Y009710D01*
X033286Y009710D01*
X033317Y009741D01*
X033387Y009909D01*
X033387Y010091D01*
X033317Y010259D01*
X033189Y010387D01*
X033021Y010457D01*
X032839Y010457D01*
X032671Y010387D01*
X032543Y010259D01*
X032473Y010091D01*
X032473Y009909D01*
X032543Y009741D01*
X032574Y009710D01*
X029017Y009710D01*
X028017Y010710D01*
X024937Y010710D01*
X028650Y014423D01*
X028650Y014280D01*
X028930Y014000D01*
X028855Y013925D02*
X028152Y013925D01*
X027993Y013767D02*
X028697Y013767D01*
X028650Y013608D02*
X027835Y013608D01*
X027676Y013450D02*
X028650Y013450D01*
X028650Y013291D02*
X027518Y013291D01*
X027359Y013133D02*
X028798Y013133D01*
X028904Y012974D02*
X027201Y012974D01*
X027042Y012816D02*
X028746Y012816D01*
X028650Y012657D02*
X026884Y012657D01*
X026725Y012499D02*
X028650Y012499D01*
X028650Y012340D02*
X026567Y012340D01*
X026408Y012182D02*
X028749Y012182D01*
X028907Y012023D02*
X026250Y012023D01*
X026091Y011865D02*
X028795Y011865D01*
X028650Y011706D02*
X025933Y011706D01*
X025774Y011548D02*
X028650Y011548D01*
X028650Y011389D02*
X025616Y011389D01*
X025457Y011231D02*
X028700Y011231D01*
X028858Y011072D02*
X025299Y011072D01*
X025140Y010914D02*
X028816Y010914D01*
X028657Y010755D02*
X024982Y010755D01*
X024705Y011072D02*
X023140Y011072D01*
X023448Y011145D02*
X023448Y011492D01*
X023940Y011492D01*
X023940Y011301D01*
X023928Y011256D01*
X023904Y011214D01*
X023871Y011181D01*
X023829Y011157D01*
X023784Y011145D01*
X023448Y011145D01*
X023448Y011231D02*
X023432Y011231D01*
X023432Y011389D02*
X023448Y011389D01*
X023448Y011508D02*
X023940Y011508D01*
X023940Y011699D01*
X023928Y011744D01*
X023904Y011786D01*
X023871Y011819D01*
X023829Y011843D01*
X023784Y011855D01*
X023448Y011855D01*
X023448Y011508D01*
X023448Y011548D02*
X023432Y011548D01*
X023432Y011706D02*
X023448Y011706D01*
X023140Y011865D02*
X025498Y011865D01*
X025656Y012023D02*
X023140Y012023D01*
X022720Y012023D02*
X021420Y012023D01*
X021420Y012149D02*
X021408Y012194D01*
X021384Y012236D01*
X021351Y012269D01*
X021309Y012293D01*
X021264Y012305D01*
X021000Y012305D01*
X021000Y011580D01*
X020840Y011580D01*
X020840Y012305D01*
X020576Y012305D01*
X020531Y012293D01*
X020489Y012269D01*
X020456Y012236D01*
X020432Y012194D01*
X020420Y012149D01*
X020420Y011580D01*
X020840Y011580D01*
X020840Y011420D01*
X020420Y011420D01*
X020420Y010851D01*
X020432Y010806D01*
X020456Y010764D01*
X020489Y010731D01*
X020531Y010707D01*
X020576Y010695D01*
X020840Y010695D01*
X020840Y011420D01*
X021000Y011420D01*
X021000Y011580D01*
X021420Y011580D01*
X021420Y012149D01*
X021411Y012182D02*
X022720Y012182D01*
X022720Y012340D02*
X015236Y012340D01*
X015349Y012182D02*
X020429Y012182D01*
X020420Y012023D02*
X015387Y012023D01*
X015368Y011865D02*
X020420Y011865D01*
X020420Y011706D02*
X015282Y011706D01*
X015031Y011548D02*
X020840Y011548D01*
X020840Y011706D02*
X021000Y011706D01*
X021000Y011548D02*
X022720Y011548D01*
X022720Y011706D02*
X021420Y011706D01*
X021420Y011865D02*
X022720Y011865D01*
X022720Y011389D02*
X021420Y011389D01*
X021420Y011420D02*
X021000Y011420D01*
X021000Y010695D01*
X021264Y010695D01*
X021309Y010707D01*
X021351Y010731D01*
X021384Y010764D01*
X021408Y010806D01*
X021420Y010851D01*
X021420Y011420D01*
X021420Y011231D02*
X022720Y011231D01*
X022720Y011072D02*
X021420Y011072D01*
X021420Y010914D02*
X022720Y010914D01*
X022720Y010755D02*
X021375Y010755D01*
X021000Y010755D02*
X020840Y010755D01*
X020840Y010914D02*
X021000Y010914D01*
X021000Y011072D02*
X020840Y011072D01*
X020840Y011231D02*
X021000Y011231D01*
X021000Y011389D02*
X020840Y011389D01*
X020420Y011389D02*
X015185Y011389D01*
X015329Y011231D02*
X020420Y011231D01*
X020420Y011072D02*
X015387Y011072D01*
X015387Y010914D02*
X020420Y010914D01*
X020465Y010755D02*
X015323Y010755D01*
X015150Y010597D02*
X022720Y010597D01*
X022720Y010438D02*
X015066Y010438D01*
X015297Y010280D02*
X022720Y010280D01*
X022762Y010121D02*
X015374Y010121D01*
X015387Y009963D02*
X027421Y009963D01*
X027579Y009804D02*
X015343Y009804D01*
X015222Y009646D02*
X027738Y009646D01*
X027896Y009487D02*
X013685Y009487D01*
X013685Y010438D02*
X013794Y010438D01*
X013710Y010597D02*
X013685Y010597D01*
X015248Y009329D02*
X028055Y009329D01*
X028213Y009170D02*
X015354Y009170D01*
X015387Y009012D02*
X028372Y009012D01*
X028374Y008853D02*
X028530Y008853D01*
X029291Y008290D02*
X032551Y008290D01*
X032522Y008250D01*
X032488Y008183D01*
X032465Y008112D01*
X032453Y008038D01*
X032453Y008018D01*
X032912Y008018D01*
X032912Y007982D01*
X032453Y007982D01*
X032453Y007962D01*
X032465Y007888D01*
X032488Y007817D01*
X032522Y007750D01*
X032566Y007689D01*
X032619Y007636D01*
X032680Y007592D01*
X032747Y007558D01*
X032818Y007535D01*
X032892Y007523D01*
X032912Y007523D01*
X032912Y007982D01*
X032948Y007982D01*
X032948Y008018D01*
X033407Y008018D01*
X033407Y008038D01*
X033395Y008112D01*
X033372Y008183D01*
X033338Y008250D01*
X033309Y008290D01*
X033453Y008290D01*
X033453Y008018D01*
X033912Y008018D01*
X033912Y007982D01*
X033948Y007982D01*
X033948Y007523D01*
X034175Y007523D01*
X034175Y006755D01*
X030141Y006755D01*
X030047Y007166D01*
X029777Y007725D01*
X029390Y008210D01*
X029291Y008290D01*
X029380Y008219D02*
X032506Y008219D01*
X032457Y008061D02*
X029510Y008061D01*
X029390Y008210D02*
X029390Y008210D01*
X029390Y008210D01*
X029636Y007902D02*
X032463Y007902D01*
X032527Y007744D02*
X029763Y007744D01*
X029777Y007725D02*
X029777Y007725D01*
X029845Y007585D02*
X032694Y007585D01*
X032912Y007585D02*
X032948Y007585D01*
X032948Y007523D02*
X032968Y007523D01*
X033042Y007535D01*
X033113Y007558D01*
X033180Y007592D01*
X033241Y007636D01*
X033294Y007689D01*
X033338Y007750D01*
X033372Y007817D01*
X033395Y007888D01*
X033407Y007962D01*
X033407Y007982D01*
X032948Y007982D01*
X032948Y007523D01*
X032948Y007744D02*
X032912Y007744D01*
X032912Y007902D02*
X032948Y007902D01*
X033166Y007585D02*
X033497Y007585D01*
X033489Y007593D02*
X033523Y007559D01*
X033564Y007535D01*
X033609Y007523D01*
X033912Y007523D01*
X033912Y007982D01*
X033453Y007982D01*
X033453Y007679D01*
X033465Y007634D01*
X033489Y007593D01*
X033453Y007744D02*
X033333Y007744D01*
X033397Y007902D02*
X033453Y007902D01*
X033453Y008061D02*
X033403Y008061D01*
X033354Y008219D02*
X033453Y008219D01*
X033704Y008477D02*
X033790Y008563D01*
X033839Y008543D01*
X034021Y008543D01*
X034175Y008607D01*
X034175Y008477D01*
X033948Y008477D01*
X033948Y008018D01*
X033912Y008018D01*
X033912Y008477D01*
X033704Y008477D01*
X033763Y008536D02*
X034175Y008536D01*
X033948Y008378D02*
X033912Y008378D01*
X033912Y008219D02*
X033948Y008219D01*
X033948Y008061D02*
X033912Y008061D01*
X033912Y007902D02*
X033948Y007902D01*
X033948Y007744D02*
X033912Y007744D01*
X033912Y007585D02*
X033948Y007585D01*
X034175Y007427D02*
X029921Y007427D01*
X029998Y007268D02*
X034175Y007268D01*
X034175Y007110D02*
X030060Y007110D01*
X030047Y007166D02*
X030047Y007166D01*
X030096Y006951D02*
X034175Y006951D01*
X034175Y006793D02*
X030132Y006793D01*
X028923Y009804D02*
X032517Y009804D01*
X032473Y009963D02*
X029420Y009963D01*
X029200Y009963D02*
X029160Y009963D01*
X029160Y009950D02*
X029160Y010480D01*
X028630Y010480D01*
X028630Y010272D01*
X028952Y009950D01*
X029160Y009950D01*
X029160Y010121D02*
X029200Y010121D01*
X029200Y010280D02*
X029160Y010280D01*
X029160Y010438D02*
X029200Y010438D01*
X029579Y010121D02*
X029809Y010121D01*
X028940Y009963D02*
X028764Y009963D01*
X028781Y010121D02*
X028606Y010121D01*
X028630Y010280D02*
X028447Y010280D01*
X028289Y010438D02*
X028630Y010438D01*
X028630Y010597D02*
X028130Y010597D01*
X030516Y010914D02*
X032473Y010914D01*
X032473Y010909D02*
X032543Y010741D01*
X032671Y010613D01*
X032839Y010543D01*
X033021Y010543D01*
X033189Y010613D01*
X033317Y010741D01*
X033387Y010909D01*
X033387Y011091D01*
X033317Y011259D01*
X033189Y011387D01*
X033021Y011457D01*
X032839Y011457D01*
X032671Y011387D01*
X032543Y011259D01*
X032473Y011091D01*
X032473Y010909D01*
X032473Y011072D02*
X030502Y011072D01*
X030660Y011231D02*
X032531Y011231D01*
X032675Y011389D02*
X030710Y011389D01*
X030710Y011548D02*
X032829Y011548D01*
X032839Y011543D02*
X033021Y011543D01*
X033189Y011613D01*
X033317Y011741D01*
X033387Y011909D01*
X033387Y012091D01*
X033317Y012259D01*
X033189Y012387D01*
X033021Y012457D01*
X032839Y012457D01*
X032671Y012387D01*
X032543Y012259D01*
X032473Y012091D01*
X032473Y011909D01*
X032543Y011741D01*
X032671Y011613D01*
X032839Y011543D01*
X033031Y011548D02*
X033829Y011548D01*
X034031Y011548D02*
X034175Y011548D01*
X033675Y011389D02*
X033185Y011389D01*
X033329Y011231D02*
X033531Y011231D01*
X033473Y011072D02*
X033387Y011072D01*
X033387Y010914D02*
X033473Y010914D01*
X033537Y010755D02*
X033323Y010755D01*
X033150Y010597D02*
X033710Y010597D01*
X033794Y010438D02*
X033066Y010438D01*
X032794Y010438D02*
X030710Y010438D01*
X030709Y010280D02*
X032563Y010280D01*
X032486Y010121D02*
X030551Y010121D01*
X030710Y010597D02*
X032710Y010597D01*
X032537Y010755D02*
X030675Y010755D01*
X030710Y011706D02*
X032578Y011706D01*
X032492Y011865D02*
X030565Y011865D01*
X030453Y012023D02*
X032473Y012023D01*
X032511Y012182D02*
X030611Y012182D01*
X030710Y012340D02*
X032624Y012340D01*
X032627Y012657D02*
X030710Y012657D01*
X030710Y012499D02*
X034175Y012499D01*
X033627Y012657D02*
X033233Y012657D01*
X033348Y012816D02*
X033512Y012816D01*
X033473Y012974D02*
X033387Y012974D01*
X033370Y013133D02*
X033490Y013133D01*
X033575Y013291D02*
X033285Y013291D01*
X033039Y013450D02*
X033821Y013450D01*
X033683Y013608D02*
X033177Y013608D01*
X033328Y013767D02*
X033532Y013767D01*
X033473Y013925D02*
X033387Y013925D01*
X033387Y014084D02*
X033473Y014084D01*
X033536Y014242D02*
X033324Y014242D01*
X033157Y014401D02*
X033703Y014401D01*
X033801Y014559D02*
X033059Y014559D01*
X032801Y014559D02*
X032306Y014559D01*
X032385Y014718D02*
X032566Y014718D01*
X032703Y014401D02*
X031640Y014401D01*
X031640Y014242D02*
X032536Y014242D01*
X032220Y014084D02*
X031640Y014084D01*
X031640Y013925D02*
X032220Y013925D01*
X032220Y013767D02*
X031640Y013767D01*
X031640Y013608D02*
X032220Y013608D01*
X032640Y013608D02*
X032683Y013608D01*
X032640Y013450D02*
X032821Y013450D01*
X032473Y012974D02*
X030456Y012974D01*
X030590Y013133D02*
X031251Y013133D01*
X031220Y013291D02*
X030730Y013291D01*
X030730Y013450D02*
X031220Y013450D01*
X031220Y013608D02*
X030730Y013608D01*
X030691Y013767D02*
X031220Y013767D01*
X031220Y013925D02*
X030533Y013925D01*
X030513Y014084D02*
X031220Y014084D01*
X031220Y014242D02*
X030672Y014242D01*
X030710Y014401D02*
X031220Y014401D01*
X031220Y014559D02*
X030893Y014559D01*
X031640Y015510D02*
X034175Y015510D01*
X033635Y015352D02*
X033225Y015352D01*
X033345Y015193D02*
X033515Y015193D01*
X033473Y015035D02*
X033387Y015035D01*
X033373Y014876D02*
X033487Y014876D01*
X033566Y014718D02*
X033294Y014718D01*
X034059Y014559D02*
X034175Y014559D01*
X034175Y014401D02*
X034157Y014401D01*
X034175Y013450D02*
X034039Y013450D01*
X033624Y012340D02*
X033236Y012340D01*
X033349Y012182D02*
X033511Y012182D01*
X033473Y012023D02*
X033387Y012023D01*
X033368Y011865D02*
X033492Y011865D01*
X033578Y011706D02*
X033282Y011706D01*
X032512Y012816D02*
X030614Y012816D01*
X028688Y014242D02*
X028469Y014242D01*
X028627Y014401D02*
X028650Y014401D01*
X028708Y016778D02*
X026640Y016778D01*
X024720Y015827D02*
X024546Y015827D01*
X024641Y015669D02*
X024720Y015669D01*
X024023Y015035D02*
X015387Y015035D01*
X015373Y014876D02*
X024009Y014876D01*
X023851Y014718D02*
X015294Y014718D01*
X015059Y014559D02*
X023692Y014559D01*
X023534Y014401D02*
X015157Y014401D01*
X015324Y014242D02*
X023375Y014242D01*
X023217Y014084D02*
X015387Y014084D01*
X015387Y013925D02*
X023058Y013925D01*
X022900Y013767D02*
X015328Y013767D01*
X015177Y013608D02*
X022741Y013608D01*
X022720Y013450D02*
X015039Y013450D01*
X015285Y013291D02*
X022720Y013291D01*
X022720Y013133D02*
X015370Y013133D01*
X015387Y012974D02*
X022720Y012974D01*
X022720Y012816D02*
X015348Y012816D01*
X015233Y012657D02*
X022720Y012657D01*
X022720Y012499D02*
X013685Y012499D01*
X013685Y013450D02*
X013821Y013450D01*
X015345Y015193D02*
X023794Y015193D01*
X023711Y015352D02*
X015225Y015352D01*
X013685Y015510D02*
X023690Y015510D01*
X023690Y016461D02*
X013685Y016461D01*
X013685Y017412D02*
X013731Y017412D01*
X013773Y017571D02*
X013685Y017571D01*
X014305Y017729D02*
X014555Y017729D01*
X014482Y017888D02*
X014378Y017888D01*
X014387Y018046D02*
X014473Y018046D01*
X014520Y018205D02*
X014340Y018205D01*
X014213Y018363D02*
X014647Y018363D01*
X014671Y018613D02*
X014839Y018543D01*
X015021Y018543D01*
X015189Y018613D01*
X015317Y018741D01*
X015387Y018909D01*
X015387Y019091D01*
X015317Y019259D01*
X015189Y019387D01*
X015021Y019457D01*
X014839Y019457D01*
X014671Y019387D01*
X014543Y019259D01*
X014473Y019091D01*
X014473Y018909D01*
X014543Y018741D01*
X014671Y018613D01*
X014604Y018680D02*
X014256Y018680D01*
X014358Y018839D02*
X014502Y018839D01*
X014473Y018997D02*
X014387Y018997D01*
X014360Y019156D02*
X014500Y019156D01*
X014598Y019314D02*
X014262Y019314D01*
X014207Y019631D02*
X014653Y019631D01*
X014671Y019613D02*
X014839Y019543D01*
X015021Y019543D01*
X015189Y019613D01*
X015317Y019741D01*
X015387Y019909D01*
X015387Y020091D01*
X015317Y020259D01*
X015189Y020387D01*
X015021Y020457D01*
X014839Y020457D01*
X014671Y020387D01*
X014543Y020259D01*
X014473Y020091D01*
X014473Y019909D01*
X014543Y019741D01*
X014671Y019613D01*
X014523Y019790D02*
X014337Y019790D01*
X014387Y019948D02*
X014473Y019948D01*
X014480Y020107D02*
X014380Y020107D01*
X014311Y020265D02*
X014549Y020265D01*
X014759Y020424D02*
X014101Y020424D01*
X014115Y020582D02*
X014745Y020582D01*
X014671Y020613D02*
X014839Y020543D01*
X015021Y020543D01*
X015189Y020613D01*
X015317Y020741D01*
X015387Y020909D01*
X015387Y021091D01*
X015317Y021259D01*
X015189Y021387D01*
X015021Y021457D01*
X014839Y021457D01*
X014671Y021387D01*
X014543Y021259D01*
X014473Y021091D01*
X014473Y020909D01*
X014543Y020741D01*
X014671Y020613D01*
X014543Y020741D02*
X014317Y020741D01*
X014383Y020899D02*
X014477Y020899D01*
X014473Y021058D02*
X014387Y021058D01*
X014335Y021216D02*
X014525Y021216D01*
X014658Y021375D02*
X014202Y021375D01*
X014268Y021692D02*
X014592Y021692D01*
X014543Y021741D02*
X014671Y021613D01*
X014839Y021543D01*
X015021Y021543D01*
X015189Y021613D01*
X015317Y021741D01*
X015387Y021909D01*
X015387Y022091D01*
X015317Y022259D01*
X015189Y022387D01*
X015021Y022457D01*
X014839Y022457D01*
X014671Y022387D01*
X014543Y022259D01*
X014473Y022091D01*
X014473Y021909D01*
X014543Y021741D01*
X014498Y021850D02*
X014362Y021850D01*
X014387Y022009D02*
X014473Y022009D01*
X014505Y022167D02*
X014355Y022167D01*
X014251Y022326D02*
X014609Y022326D01*
X014671Y022613D02*
X014839Y022543D01*
X015021Y022543D01*
X015189Y022613D01*
X015317Y022741D01*
X015387Y022909D01*
X015387Y023091D01*
X015317Y023259D01*
X015189Y023387D01*
X015021Y023457D01*
X014839Y023457D01*
X014671Y023387D01*
X014543Y023259D01*
X014473Y023091D01*
X014473Y022909D01*
X014543Y022741D01*
X014671Y022613D01*
X014641Y022643D02*
X014219Y022643D01*
X014342Y022801D02*
X014518Y022801D01*
X014473Y022960D02*
X014387Y022960D01*
X014376Y023118D02*
X014484Y023118D01*
X014560Y023277D02*
X014300Y023277D01*
X014074Y023435D02*
X014786Y023435D01*
X014839Y023543D02*
X015021Y023543D01*
X015189Y023613D01*
X015317Y023741D01*
X015387Y023909D01*
X015387Y024091D01*
X015317Y024259D01*
X015189Y024387D01*
X015021Y024457D01*
X014839Y024457D01*
X014671Y024387D01*
X014543Y024259D01*
X014473Y024091D01*
X014473Y023909D01*
X014543Y023741D01*
X014671Y023613D01*
X014839Y023543D01*
X014718Y023594D02*
X014142Y023594D01*
X014322Y023752D02*
X014538Y023752D01*
X014473Y023911D02*
X014387Y023911D01*
X014387Y024069D02*
X014473Y024069D01*
X014530Y024228D02*
X014330Y024228D01*
X014190Y024386D02*
X014670Y024386D01*
X014671Y024613D02*
X014839Y024543D01*
X015021Y024543D01*
X015189Y024613D01*
X015317Y024741D01*
X015387Y024909D01*
X015387Y025091D01*
X015317Y025259D01*
X015189Y025387D01*
X015021Y025457D01*
X014839Y025457D01*
X014671Y025387D01*
X014543Y025259D01*
X014473Y025091D01*
X014473Y024909D01*
X014543Y024741D01*
X014671Y024613D01*
X014581Y024703D02*
X014279Y024703D01*
X014367Y024862D02*
X014493Y024862D01*
X014473Y025020D02*
X014387Y025020D01*
X014351Y025179D02*
X014509Y025179D01*
X014621Y025337D02*
X014239Y025337D01*
X014230Y025654D02*
X014630Y025654D01*
X014671Y025613D02*
X014543Y025741D01*
X014473Y025909D01*
X014473Y026091D01*
X014543Y026259D01*
X014671Y026387D01*
X014839Y026457D01*
X015021Y026457D01*
X015189Y026387D01*
X015317Y026259D01*
X015387Y026091D01*
X015387Y025909D01*
X015317Y025741D01*
X015189Y025613D01*
X015021Y025543D01*
X014839Y025543D01*
X014671Y025613D01*
X014513Y025813D02*
X014347Y025813D01*
X014387Y025971D02*
X014473Y025971D01*
X014489Y026130D02*
X014371Y026130D01*
X014288Y026288D02*
X014572Y026288D01*
X014814Y026447D02*
X014046Y026447D01*
X014170Y026605D02*
X014690Y026605D01*
X014671Y026613D02*
X014839Y026543D01*
X015021Y026543D01*
X015189Y026613D01*
X015317Y026741D01*
X015387Y026909D01*
X015387Y027091D01*
X015317Y027259D01*
X015189Y027387D01*
X015021Y027457D01*
X014839Y027457D01*
X014671Y027387D01*
X014543Y027259D01*
X014473Y027091D01*
X014473Y026909D01*
X014543Y026741D01*
X014671Y026613D01*
X014533Y026764D02*
X014327Y026764D01*
X014387Y026922D02*
X014473Y026922D01*
X014473Y027081D02*
X014387Y027081D01*
X014325Y027239D02*
X014535Y027239D01*
X014696Y027398D02*
X014164Y027398D01*
X014052Y027556D02*
X014808Y027556D01*
X014839Y027543D02*
X015021Y027543D01*
X015189Y027613D01*
X015317Y027741D01*
X015387Y027909D01*
X015387Y028091D01*
X015317Y028259D01*
X015189Y028387D01*
X015021Y028457D01*
X014839Y028457D01*
X014671Y028387D01*
X014543Y028259D01*
X014473Y028091D01*
X014473Y027909D01*
X014543Y027741D01*
X014671Y027613D01*
X014839Y027543D01*
X015052Y027556D02*
X016621Y027556D01*
X016626Y027537D02*
X016650Y027496D01*
X016684Y027462D01*
X016725Y027439D01*
X016770Y027426D01*
X017022Y027426D01*
X017022Y027932D01*
X017157Y027932D01*
X017157Y027426D01*
X017408Y027426D01*
X017454Y027439D01*
X017495Y027462D01*
X017529Y027496D01*
X017552Y027537D01*
X017565Y027583D01*
X017565Y027932D01*
X017157Y027932D01*
X017157Y028068D01*
X017022Y028068D01*
X017022Y028574D01*
X016770Y028574D01*
X016725Y028561D01*
X016684Y028538D01*
X016650Y028504D01*
X016626Y028463D01*
X016614Y028417D01*
X016614Y028068D01*
X017022Y028068D01*
X017022Y027932D01*
X016614Y027932D01*
X016614Y027583D01*
X016626Y027537D01*
X016614Y027715D02*
X015291Y027715D01*
X015372Y027873D02*
X016614Y027873D01*
X016614Y028190D02*
X015346Y028190D01*
X015387Y028032D02*
X017022Y028032D01*
X017157Y028032D02*
X017815Y028032D01*
X017815Y028190D02*
X017565Y028190D01*
X017565Y028068D02*
X017565Y028417D01*
X017552Y028463D01*
X017529Y028504D01*
X017495Y028538D01*
X017454Y028561D01*
X017408Y028574D01*
X017157Y028574D01*
X017157Y028068D01*
X017565Y028068D01*
X017565Y027873D02*
X017815Y027873D01*
X017815Y027715D02*
X017565Y027715D01*
X017558Y027556D02*
X017815Y027556D01*
X017815Y027540D02*
X017909Y027446D01*
X018632Y027446D01*
X018726Y027540D01*
X018726Y028460D01*
X018640Y028546D01*
X018640Y030215D01*
X018647Y030222D01*
X018708Y030369D01*
X018708Y031002D01*
X018647Y031149D01*
X018535Y031260D01*
X018389Y031321D01*
X018378Y031321D01*
X018393Y031356D01*
X018393Y031990D01*
X018332Y032136D01*
X018220Y032248D01*
X018074Y032308D01*
X017916Y032308D01*
X017770Y032248D01*
X017680Y032158D01*
X017590Y032248D01*
X017444Y032308D01*
X017286Y032308D01*
X017140Y032248D01*
X017028Y032136D01*
X016967Y031990D01*
X016967Y031356D01*
X016976Y031335D01*
X016952Y031331D01*
X016890Y031310D01*
X016831Y031281D01*
X016778Y031242D01*
X016731Y031195D01*
X016693Y031142D01*
X016663Y031084D01*
X016643Y031021D01*
X016632Y030956D01*
X016632Y030923D01*
X016632Y030415D01*
X016643Y030350D01*
X016663Y030287D01*
X016693Y030229D01*
X016731Y030175D01*
X016778Y030129D01*
X016831Y030090D01*
X016890Y030060D01*
X016952Y030040D01*
X017017Y030030D01*
X017050Y030030D01*
X017050Y030923D01*
X017050Y030923D01*
X016632Y030923D01*
X017050Y030923D01*
X017050Y030923D01*
X017050Y030030D01*
X017083Y030030D01*
X017148Y030040D01*
X017210Y030060D01*
X017269Y030090D01*
X017322Y030129D01*
X017369Y030175D01*
X017378Y030188D01*
X017455Y030110D01*
X017601Y030050D01*
X017759Y030050D01*
X017905Y030110D01*
X017995Y030200D01*
X018085Y030110D01*
X018220Y030054D01*
X018220Y028554D01*
X017909Y028554D01*
X017815Y028460D01*
X017815Y027540D01*
X017157Y027556D02*
X017022Y027556D01*
X017022Y027715D02*
X017157Y027715D01*
X017157Y027873D02*
X017022Y027873D01*
X017022Y028190D02*
X017157Y028190D01*
X017157Y028349D02*
X017022Y028349D01*
X017022Y028507D02*
X017157Y028507D01*
X017526Y028507D02*
X017862Y028507D01*
X017815Y028349D02*
X017565Y028349D01*
X018220Y028666D02*
X015242Y028666D01*
X015189Y028613D02*
X015317Y028741D01*
X015387Y028909D01*
X015387Y029091D01*
X015317Y029259D01*
X015189Y029387D01*
X015021Y029457D01*
X014839Y029457D01*
X014671Y029387D01*
X014543Y029259D01*
X014473Y029091D01*
X014473Y028909D01*
X014543Y028741D01*
X014671Y028613D01*
X014839Y028543D01*
X015021Y028543D01*
X015189Y028613D01*
X015352Y028824D02*
X018220Y028824D01*
X018220Y028983D02*
X015387Y028983D01*
X015366Y029141D02*
X018220Y029141D01*
X018220Y029300D02*
X015277Y029300D01*
X015189Y029613D02*
X015317Y029741D01*
X015387Y029909D01*
X015387Y030091D01*
X015317Y030259D01*
X015189Y030387D01*
X015021Y030457D01*
X014839Y030457D01*
X014671Y030387D01*
X014543Y030259D01*
X014473Y030091D01*
X014473Y029909D01*
X014543Y029741D01*
X014671Y029613D01*
X014839Y029543D01*
X015021Y029543D01*
X015189Y029613D01*
X015193Y029617D02*
X018220Y029617D01*
X018220Y029775D02*
X015331Y029775D01*
X015387Y029934D02*
X018220Y029934D01*
X018129Y030092D02*
X017861Y030092D01*
X017499Y030092D02*
X017271Y030092D01*
X017050Y030092D02*
X017050Y030092D01*
X017050Y030251D02*
X017050Y030251D01*
X017050Y030409D02*
X017050Y030409D01*
X017050Y030568D02*
X017050Y030568D01*
X017050Y030726D02*
X017050Y030726D01*
X017050Y030885D02*
X017050Y030885D01*
X016632Y030885D02*
X013918Y030885D01*
X013970Y031043D02*
X016650Y031043D01*
X016738Y031202D02*
X014021Y031202D01*
X014098Y031360D02*
X016967Y031360D01*
X016967Y031519D02*
X014179Y031519D01*
X014260Y031677D02*
X016967Y031677D01*
X016967Y031836D02*
X014341Y031836D01*
X014453Y031994D02*
X016969Y031994D01*
X017044Y032153D02*
X016694Y032153D01*
X016890Y032311D02*
X018470Y032311D01*
X018346Y032435D02*
X018602Y032179D01*
X018936Y032041D01*
X019298Y032041D01*
X019632Y032179D01*
X019888Y032435D01*
X020027Y032770D01*
X020027Y033132D01*
X019888Y033466D01*
X019632Y033722D01*
X019298Y033861D01*
X018936Y033861D01*
X018602Y033722D01*
X018346Y033466D01*
X018207Y033132D01*
X018207Y032770D01*
X018346Y032435D01*
X018331Y032470D02*
X017029Y032470D01*
X017094Y032628D02*
X018266Y032628D01*
X018207Y032787D02*
X017153Y032787D01*
X017153Y032945D02*
X018207Y032945D01*
X018207Y033104D02*
X017153Y033104D01*
X017099Y033262D02*
X018261Y033262D01*
X018327Y033421D02*
X017033Y033421D01*
X016902Y033579D02*
X018458Y033579D01*
X018638Y033738D02*
X016722Y033738D01*
X017290Y033896D02*
X020655Y033896D01*
X020655Y033738D02*
X019596Y033738D01*
X019776Y033579D02*
X020655Y033579D01*
X020655Y033421D02*
X019907Y033421D01*
X019973Y033262D02*
X020655Y033262D01*
X020655Y033104D02*
X020027Y033104D01*
X020027Y032945D02*
X020970Y032945D01*
X020970Y032787D02*
X020027Y032787D01*
X019968Y032628D02*
X020970Y032628D01*
X020970Y032470D02*
X019903Y032470D01*
X019764Y032311D02*
X020970Y032311D01*
X020970Y032153D02*
X019568Y032153D01*
X018666Y032153D02*
X018316Y032153D01*
X018391Y031994D02*
X020970Y031994D01*
X020970Y031836D02*
X018393Y031836D01*
X018393Y031677D02*
X020970Y031677D01*
X020970Y031519D02*
X018393Y031519D01*
X018393Y031360D02*
X020970Y031360D01*
X020970Y031202D02*
X018594Y031202D01*
X018691Y031043D02*
X020926Y031043D01*
X020768Y030885D02*
X018708Y030885D01*
X018708Y030726D02*
X020609Y030726D01*
X020451Y030568D02*
X018708Y030568D01*
X018708Y030409D02*
X020292Y030409D01*
X020134Y030251D02*
X018659Y030251D01*
X018640Y030092D02*
X019975Y030092D01*
X019970Y029934D02*
X018640Y029934D01*
X018640Y029775D02*
X019970Y029775D01*
X019970Y029617D02*
X018640Y029617D01*
X018640Y029458D02*
X019970Y029458D01*
X019970Y029300D02*
X018640Y029300D01*
X018640Y029141D02*
X019970Y029141D01*
X019970Y028983D02*
X018640Y028983D01*
X018640Y028824D02*
X019970Y028824D01*
X019970Y028666D02*
X018640Y028666D01*
X018679Y028507D02*
X019970Y028507D01*
X019970Y028349D02*
X018726Y028349D01*
X018726Y028190D02*
X019970Y028190D01*
X019970Y028032D02*
X018726Y028032D01*
X018726Y027873D02*
X019970Y027873D01*
X019970Y027715D02*
X018726Y027715D01*
X018726Y027556D02*
X019970Y027556D01*
X019970Y027398D02*
X015164Y027398D01*
X015325Y027239D02*
X019970Y027239D01*
X019970Y027081D02*
X015387Y027081D01*
X015387Y026922D02*
X019970Y026922D01*
X019970Y026764D02*
X015327Y026764D01*
X015170Y026605D02*
X019970Y026605D01*
X019970Y026447D02*
X015046Y026447D01*
X015288Y026288D02*
X019970Y026288D01*
X019970Y026130D02*
X015371Y026130D01*
X015387Y025971D02*
X019970Y025971D01*
X019970Y025813D02*
X015347Y025813D01*
X015230Y025654D02*
X019970Y025654D01*
X019970Y025496D02*
X013685Y025496D01*
X013685Y026447D02*
X013814Y026447D01*
X013690Y026605D02*
X013685Y026605D01*
X013685Y027398D02*
X013696Y027398D01*
X013685Y027556D02*
X013808Y027556D01*
X014291Y027715D02*
X014569Y027715D01*
X014488Y027873D02*
X014372Y027873D01*
X014387Y028032D02*
X014473Y028032D01*
X014514Y028190D02*
X014346Y028190D01*
X014228Y028349D02*
X014632Y028349D01*
X014618Y028666D02*
X014242Y028666D01*
X014352Y028824D02*
X014508Y028824D01*
X014473Y028983D02*
X014387Y028983D01*
X014366Y029141D02*
X014494Y029141D01*
X014583Y029300D02*
X014277Y029300D01*
X014193Y029617D02*
X014667Y029617D01*
X014529Y029775D02*
X014331Y029775D01*
X014387Y029934D02*
X014473Y029934D01*
X014474Y030092D02*
X014386Y030092D01*
X014321Y030251D02*
X014539Y030251D01*
X014724Y030409D02*
X014136Y030409D01*
X013815Y030568D02*
X016632Y030568D01*
X016632Y030726D02*
X013867Y030726D01*
X015136Y030409D02*
X016633Y030409D01*
X016682Y030251D02*
X015321Y030251D01*
X015386Y030092D02*
X016829Y030092D01*
X018220Y029458D02*
X013685Y029458D01*
X013685Y028507D02*
X016653Y028507D01*
X016614Y028349D02*
X015228Y028349D01*
X015239Y025337D02*
X019970Y025337D01*
X019970Y025179D02*
X015351Y025179D01*
X015387Y025020D02*
X019970Y025020D01*
X019970Y024862D02*
X015367Y024862D01*
X015279Y024703D02*
X019970Y024703D01*
X019970Y024545D02*
X017597Y024545D01*
X017604Y024543D02*
X017559Y024555D01*
X017257Y024555D01*
X017257Y024137D01*
X017103Y024137D01*
X017103Y024555D01*
X016801Y024555D01*
X016756Y024543D01*
X016715Y024519D01*
X016681Y024485D01*
X016657Y024444D01*
X016645Y024399D01*
X016645Y024137D01*
X017103Y024137D01*
X017103Y023982D01*
X017257Y023982D01*
X017257Y023565D01*
X017559Y023565D01*
X017604Y023577D01*
X017645Y023601D01*
X017679Y023634D01*
X017703Y023675D01*
X017715Y023721D01*
X017715Y023982D01*
X017257Y023982D01*
X017257Y024137D01*
X017715Y024137D01*
X017715Y024399D01*
X017703Y024444D01*
X017679Y024485D01*
X017645Y024519D01*
X017604Y024543D01*
X017715Y024386D02*
X019145Y024386D01*
X019145Y024228D02*
X017715Y024228D01*
X017715Y023911D02*
X019044Y023911D01*
X019145Y024069D02*
X017257Y024069D01*
X017103Y024069D02*
X015387Y024069D01*
X015387Y023911D02*
X016645Y023911D01*
X016645Y023982D02*
X016645Y023721D01*
X016657Y023675D01*
X016681Y023634D01*
X016715Y023601D01*
X016756Y023577D01*
X016801Y023565D01*
X017103Y023565D01*
X017103Y023982D01*
X016645Y023982D01*
X016645Y023752D02*
X015322Y023752D01*
X015142Y023594D02*
X016727Y023594D01*
X016665Y023277D02*
X015300Y023277D01*
X015376Y023118D02*
X016665Y023118D01*
X016665Y022960D02*
X015387Y022960D01*
X015342Y022801D02*
X016665Y022801D01*
X016665Y022643D02*
X015219Y022643D01*
X015251Y022326D02*
X017307Y022326D01*
X017466Y022167D02*
X015355Y022167D01*
X015387Y022009D02*
X017624Y022009D01*
X017783Y021850D02*
X015362Y021850D01*
X015268Y021692D02*
X017941Y021692D01*
X018218Y022009D02*
X018555Y022009D01*
X018060Y022167D02*
X019970Y022167D01*
X019970Y022009D02*
X019285Y022009D01*
X019336Y021850D02*
X019970Y021850D01*
X019970Y021692D02*
X019310Y021692D01*
X018887Y021533D02*
X019970Y021533D01*
X019970Y021375D02*
X015202Y021375D01*
X015335Y021216D02*
X019970Y021216D01*
X019970Y021058D02*
X019265Y021058D01*
X019261Y021061D02*
X019218Y021090D01*
X019170Y021110D01*
X019119Y021120D01*
X018920Y021120D01*
X018920Y020830D01*
X019356Y020830D01*
X019356Y020883D01*
X019346Y020934D01*
X019326Y020982D01*
X019297Y021025D01*
X019261Y021061D01*
X019353Y020899D02*
X019970Y020899D01*
X019970Y020741D02*
X019349Y020741D01*
X019346Y020726D02*
X019356Y020777D01*
X019356Y020830D01*
X018920Y020830D01*
X018920Y020830D01*
X018920Y020830D01*
X018920Y020540D01*
X019119Y020540D01*
X019170Y020550D01*
X019218Y020570D01*
X019261Y020599D01*
X019297Y020635D01*
X019326Y020678D01*
X019346Y020726D01*
X019236Y020582D02*
X019970Y020582D01*
X019970Y020424D02*
X015101Y020424D01*
X015115Y020582D02*
X018604Y020582D01*
X018622Y020570D02*
X018670Y020550D01*
X018721Y020540D01*
X018920Y020540D01*
X018920Y020830D01*
X018920Y020830D01*
X018920Y020830D01*
X018484Y020830D01*
X018484Y020883D01*
X018494Y020934D01*
X018514Y020982D01*
X018543Y021025D01*
X018579Y021061D01*
X018622Y021090D01*
X018670Y021110D01*
X018721Y021120D01*
X018920Y021120D01*
X018920Y020830D01*
X018484Y020830D01*
X018484Y020777D01*
X018494Y020726D01*
X018514Y020678D01*
X018543Y020635D01*
X018579Y020599D01*
X018622Y020570D01*
X018491Y020741D02*
X015317Y020741D01*
X015383Y020899D02*
X018487Y020899D01*
X018575Y021058D02*
X015387Y021058D01*
X015311Y020265D02*
X019970Y020265D01*
X019970Y020107D02*
X015380Y020107D01*
X015387Y019948D02*
X019970Y019948D01*
X019970Y019790D02*
X015337Y019790D01*
X015207Y019631D02*
X019970Y019631D01*
X019970Y019473D02*
X013685Y019473D01*
X013685Y020424D02*
X013759Y020424D01*
X013745Y020582D02*
X013685Y020582D01*
X013685Y021533D02*
X018867Y021533D01*
X018920Y021058D02*
X018920Y021058D01*
X018920Y020899D02*
X018920Y020899D01*
X018920Y020741D02*
X018920Y020741D01*
X018920Y020582D02*
X018920Y020582D01*
X019970Y019314D02*
X015262Y019314D01*
X015360Y019156D02*
X019970Y019156D01*
X020390Y019156D02*
X022539Y019156D01*
X022561Y019314D02*
X022697Y019314D01*
X022635Y019473D02*
X022856Y019473D01*
X023014Y019631D02*
X022635Y019631D01*
X022635Y019790D02*
X023173Y019790D01*
X023331Y019948D02*
X022635Y019948D01*
X022635Y020107D02*
X023490Y020107D01*
X021970Y020265D02*
X020390Y020265D01*
X020390Y020107D02*
X021725Y020107D01*
X021725Y019948D02*
X020390Y019948D01*
X020390Y019790D02*
X021725Y019790D01*
X021725Y019631D02*
X020390Y019631D01*
X020390Y019473D02*
X021725Y019473D01*
X021799Y019314D02*
X020390Y019314D01*
X021139Y018997D02*
X022380Y018997D01*
X022222Y018839D02*
X021215Y018839D01*
X020390Y017888D02*
X023875Y017888D01*
X023744Y017729D02*
X020390Y017729D01*
X020406Y017571D02*
X023690Y017571D01*
X023690Y017412D02*
X020565Y017412D01*
X020723Y017254D02*
X023637Y017254D01*
X023478Y017095D02*
X021354Y017095D01*
X020886Y017095D02*
X020882Y017095D01*
X020605Y016778D02*
X019336Y016778D01*
X019323Y016937D02*
X020446Y016937D01*
X020288Y017095D02*
X019154Y017095D01*
X018686Y017095D02*
X018322Y017095D01*
X018481Y017254D02*
X020129Y017254D01*
X019971Y017412D02*
X018639Y017412D01*
X018798Y017571D02*
X019970Y017571D01*
X019970Y017729D02*
X018956Y017729D01*
X019115Y017888D02*
X019970Y017888D01*
X019145Y018522D02*
X017257Y018522D01*
X017257Y018637D02*
X017715Y018637D01*
X017715Y018899D01*
X017703Y018944D01*
X017679Y018985D01*
X017645Y019019D01*
X017604Y019043D01*
X017559Y019055D01*
X017257Y019055D01*
X017257Y018637D01*
X017257Y018680D02*
X017103Y018680D01*
X017103Y018522D02*
X013685Y018522D01*
X015129Y017412D02*
X016665Y017412D01*
X016665Y017254D02*
X015319Y017254D01*
X015385Y017095D02*
X016665Y017095D01*
X017103Y018205D02*
X017257Y018205D01*
X017257Y018363D02*
X017103Y018363D01*
X016645Y018363D02*
X015213Y018363D01*
X015256Y018680D02*
X016645Y018680D01*
X016645Y018839D02*
X015358Y018839D01*
X015387Y018997D02*
X016693Y018997D01*
X017103Y018997D02*
X017257Y018997D01*
X017257Y018839D02*
X017103Y018839D01*
X017667Y018997D02*
X019221Y018997D01*
X019145Y018839D02*
X017715Y018839D01*
X017715Y018680D02*
X019145Y018680D01*
X018996Y018363D02*
X017715Y018363D01*
X017710Y018205D02*
X018838Y018205D01*
X019253Y016620D02*
X020757Y016620D01*
X023596Y016620D02*
X023699Y016620D01*
X023914Y016937D02*
X023953Y016937D01*
X021970Y020424D02*
X020401Y020424D01*
X020559Y020582D02*
X020845Y020582D01*
X019970Y022326D02*
X018053Y022326D01*
X018211Y022484D02*
X019970Y022484D01*
X019970Y022643D02*
X018370Y022643D01*
X018528Y022801D02*
X019970Y022801D01*
X019970Y022960D02*
X018687Y022960D01*
X018845Y023118D02*
X019970Y023118D01*
X019970Y023277D02*
X019004Y023277D01*
X019162Y023435D02*
X019970Y023435D01*
X018885Y023752D02*
X017715Y023752D01*
X017633Y023594D02*
X018727Y023594D01*
X018568Y023435D02*
X015074Y023435D01*
X015330Y024228D02*
X016645Y024228D01*
X016645Y024386D02*
X015190Y024386D01*
X015024Y024545D02*
X016763Y024545D01*
X017103Y024545D02*
X017257Y024545D01*
X017257Y024386D02*
X017103Y024386D01*
X017103Y024228D02*
X017257Y024228D01*
X017257Y023911D02*
X017103Y023911D01*
X017103Y023752D02*
X017257Y023752D01*
X017257Y023594D02*
X017103Y023594D01*
X017695Y023277D02*
X018410Y023277D01*
X018251Y023118D02*
X017695Y023118D01*
X017695Y022960D02*
X018093Y022960D01*
X017934Y022801D02*
X017695Y022801D01*
X017695Y022643D02*
X017776Y022643D01*
X016740Y022484D02*
X013685Y022484D01*
X013685Y023435D02*
X013786Y023435D01*
X013718Y023594D02*
X013685Y023594D01*
X013685Y024545D02*
X013836Y024545D01*
X014024Y024545D02*
X014836Y024545D01*
X014568Y032153D02*
X015792Y032153D01*
X015596Y032311D02*
X014683Y032311D01*
X014812Y032470D02*
X015457Y032470D01*
X015392Y032628D02*
X014971Y032628D01*
X015129Y032787D02*
X015333Y032787D01*
X015333Y032945D02*
X015298Y032945D01*
X031640Y018997D02*
X032473Y018997D01*
X032500Y019156D02*
X032385Y019156D01*
X032502Y018839D02*
X031640Y018839D01*
X031640Y018680D02*
X032604Y018680D01*
X032671Y018387D02*
X032543Y018259D01*
X032473Y018091D01*
X032473Y017909D01*
X032543Y017741D01*
X032671Y017613D01*
X032839Y017543D01*
X033021Y017543D01*
X033189Y017613D01*
X033317Y017741D01*
X033387Y017909D01*
X033387Y018091D01*
X033317Y018259D01*
X033189Y018387D01*
X033021Y018457D01*
X032839Y018457D01*
X032671Y018387D01*
X032647Y018363D02*
X031640Y018363D01*
X031640Y018205D02*
X032520Y018205D01*
X032473Y018046D02*
X031640Y018046D01*
X031640Y017888D02*
X032482Y017888D01*
X032555Y017729D02*
X031640Y017729D01*
X031640Y017571D02*
X032773Y017571D01*
X032731Y017412D02*
X031640Y017412D01*
X031640Y017254D02*
X032541Y017254D01*
X032475Y017095D02*
X031640Y017095D01*
X031640Y016937D02*
X032473Y016937D01*
X032411Y016778D02*
X031640Y016778D01*
X031640Y016620D02*
X032253Y016620D01*
X032094Y016461D02*
X031640Y016461D01*
X032385Y016144D02*
X032495Y016144D01*
X032473Y016091D02*
X032473Y015909D01*
X032543Y015741D01*
X032671Y015613D01*
X032839Y015543D01*
X033021Y015543D01*
X033189Y015613D01*
X033317Y015741D01*
X033387Y015909D01*
X033387Y016091D01*
X033317Y016259D01*
X033189Y016387D01*
X033021Y016457D01*
X032839Y016457D01*
X032671Y016387D01*
X032543Y016259D01*
X032473Y016091D01*
X032473Y015986D02*
X032385Y015986D01*
X032385Y015827D02*
X032507Y015827D01*
X032615Y015669D02*
X032385Y015669D01*
X032385Y015352D02*
X032635Y015352D01*
X033245Y015669D02*
X033615Y015669D01*
X033507Y015827D02*
X033353Y015827D01*
X033387Y015986D02*
X033473Y015986D01*
X033495Y016144D02*
X033365Y016144D01*
X033274Y016303D02*
X033586Y016303D01*
X033664Y016620D02*
X033196Y016620D01*
X033333Y016778D02*
X033527Y016778D01*
X033473Y016937D02*
X033387Y016937D01*
X033385Y017095D02*
X033475Y017095D01*
X033541Y017254D02*
X033319Y017254D01*
X033129Y017412D02*
X033731Y017412D01*
X033773Y017571D02*
X033087Y017571D01*
X033305Y017729D02*
X033555Y017729D01*
X033482Y017888D02*
X033378Y017888D01*
X033387Y018046D02*
X033473Y018046D01*
X033520Y018205D02*
X033340Y018205D01*
X033213Y018363D02*
X033647Y018363D01*
X033604Y018680D02*
X033256Y018680D01*
X033358Y018839D02*
X033502Y018839D01*
X033473Y018997D02*
X033387Y018997D01*
X033360Y019156D02*
X033500Y019156D01*
X033541Y019314D02*
X033598Y019314D01*
X033700Y019473D02*
X034175Y019473D01*
X034175Y018522D02*
X031640Y018522D01*
X032688Y016461D02*
X034175Y016461D01*
X034175Y017412D02*
X034129Y017412D01*
X034087Y017571D02*
X034175Y017571D01*
X032586Y016303D02*
X032529Y016303D01*
X034150Y010597D02*
X034175Y010597D01*
X034175Y010438D02*
X034066Y010438D01*
X033563Y010280D02*
X033297Y010280D01*
X033374Y010121D02*
X033486Y010121D01*
X033473Y009963D02*
X033387Y009963D01*
X033343Y009804D02*
X033437Y009804D01*
X025973Y012340D02*
X023920Y012340D01*
X023920Y012182D02*
X025815Y012182D01*
X025339Y011706D02*
X023938Y011706D01*
X023940Y011548D02*
X025181Y011548D01*
X025022Y011389D02*
X023940Y011389D01*
X023913Y011231D02*
X024864Y011231D01*
X024547Y010914D02*
X023838Y010914D01*
X023920Y010755D02*
X024388Y010755D01*
X021000Y011865D02*
X020840Y011865D01*
X020840Y012023D02*
X021000Y012023D01*
X021000Y012182D02*
X020840Y012182D01*
X019486Y008853D02*
X015364Y008853D01*
X015271Y008695D02*
X019156Y008695D01*
X017862Y007268D02*
X013685Y007268D01*
X013685Y007110D02*
X017800Y007110D01*
X017764Y006951D02*
X013685Y006951D01*
X013685Y006793D02*
X017728Y006793D01*
X017160Y007470D02*
X017160Y007980D01*
X016650Y007980D01*
X016650Y007958D01*
X016663Y007876D01*
X016689Y007797D01*
X016727Y007722D01*
X016776Y007655D01*
X016835Y007596D01*
X016902Y007547D01*
X016977Y007509D01*
X017056Y007483D01*
X017138Y007470D01*
X017160Y007470D01*
X017160Y007585D02*
X017200Y007585D01*
X017200Y007744D02*
X017160Y007744D01*
X017160Y007902D02*
X017200Y007902D01*
X017200Y008061D02*
X017160Y008061D01*
X017160Y008219D02*
X017200Y008219D01*
X017200Y008378D02*
X017160Y008378D01*
X016808Y008378D02*
X015388Y008378D01*
X015395Y008366D02*
X015371Y008407D01*
X015337Y008441D01*
X015296Y008465D01*
X015251Y008477D01*
X014948Y008477D01*
X014948Y008018D01*
X015407Y008018D01*
X015407Y008321D01*
X015395Y008366D01*
X015407Y008219D02*
X016697Y008219D01*
X016653Y008061D02*
X015407Y008061D01*
X015407Y007982D02*
X014948Y007982D01*
X014948Y007523D01*
X015251Y007523D01*
X015296Y007535D01*
X015337Y007559D01*
X015371Y007593D01*
X015395Y007634D01*
X015407Y007679D01*
X015407Y007982D01*
X015407Y007902D02*
X016659Y007902D01*
X016716Y007744D02*
X015407Y007744D01*
X015363Y007585D02*
X016850Y007585D01*
X014948Y007585D02*
X014912Y007585D01*
X014912Y007744D02*
X014948Y007744D01*
X014948Y007902D02*
X014912Y007902D01*
X014912Y008061D02*
X014948Y008061D01*
X014948Y008219D02*
X014912Y008219D01*
X014912Y008378D02*
X014948Y008378D01*
D29*
X022180Y019750D03*
X027180Y015000D03*
X027680Y017500D03*
X027680Y019500D03*
X031930Y019500D03*
X031930Y021500D03*
X030180Y023500D03*
X031930Y016000D03*
X031930Y015000D03*
X021430Y026500D03*
X025680Y031500D03*
D30*
X024680Y032750D02*
X024490Y032840D01*
X024680Y032750D02*
X024680Y022250D01*
X024430Y022000D01*
X023930Y022000D01*
X022680Y020750D01*
X022180Y020750D01*
X022180Y019750D01*
X022180Y020750D02*
X021180Y020750D01*
X021120Y020830D01*
X020930Y021250D02*
X020180Y020500D01*
X020180Y030000D01*
X021180Y031000D01*
X021180Y033500D01*
X021230Y033570D01*
X018310Y030923D02*
X018430Y030750D01*
X018430Y028000D01*
X018271Y028000D01*
X021230Y030030D02*
X021430Y030000D01*
X021430Y026500D01*
X020740Y024000D02*
X022680Y024000D01*
X024180Y022500D01*
X024180Y021500D02*
X024930Y020750D01*
X024930Y026750D01*
X025680Y027500D01*
X026680Y027500D01*
X026680Y033500D01*
X026741Y033500D01*
X027101Y030250D02*
X028180Y030250D01*
X029180Y029250D01*
X029393Y029169D01*
X030180Y029000D02*
X030930Y029000D01*
X030967Y029169D01*
X031180Y029000D01*
X031930Y029000D01*
X032930Y028000D01*
X031680Y028500D02*
X031680Y027000D01*
X031430Y027000D01*
X031430Y015000D01*
X030180Y014500D01*
X029680Y014750D02*
X029680Y013000D01*
X030180Y012500D01*
X031430Y013250D02*
X031430Y015000D01*
X031930Y015000D02*
X032930Y015000D01*
X032930Y014000D02*
X032430Y014000D01*
X032430Y013750D01*
X032430Y013250D01*
X031430Y013250D01*
X030430Y015000D02*
X029930Y015000D01*
X029680Y014750D01*
X029430Y015000D02*
X028930Y015000D01*
X024430Y010500D01*
X023680Y010500D01*
X023440Y010590D01*
X022930Y010250D02*
X022930Y013500D01*
X024930Y015500D01*
X024930Y020750D01*
X024180Y020500D02*
X022180Y018500D01*
X020740Y018500D01*
X019620Y018500D02*
X019430Y018500D01*
X017680Y016750D01*
X017180Y017250D01*
X017180Y017440D01*
X017680Y016750D02*
X018930Y016750D01*
X018920Y016830D01*
X020180Y017500D02*
X020930Y016750D01*
X021120Y016830D01*
X021180Y016750D01*
X023430Y016750D01*
X024180Y017500D01*
X023930Y015750D02*
X024180Y015500D01*
X023930Y015750D02*
X021180Y015750D01*
X021120Y015830D01*
X020180Y017500D02*
X020180Y020500D01*
X020930Y021250D02*
X020930Y021750D01*
X021120Y021830D01*
X018930Y021750D02*
X018920Y021830D01*
X018930Y021750D02*
X018180Y021750D01*
X017680Y022250D01*
X019430Y024000D01*
X019620Y024000D01*
X017680Y022250D02*
X017180Y022750D01*
X017180Y022940D01*
X026430Y022000D02*
X026430Y016500D01*
X029180Y016500D01*
X028430Y016000D02*
X026180Y016000D01*
X026180Y027000D01*
X026089Y027000D01*
X026680Y027500D02*
X026680Y025000D01*
X029180Y022500D01*
X029680Y022250D02*
X029430Y022000D01*
X026430Y022000D01*
X027680Y019500D02*
X029180Y019500D01*
X029680Y021000D02*
X029680Y015250D01*
X029430Y015000D01*
X029180Y015500D02*
X028430Y016000D01*
X029180Y017500D02*
X027680Y017500D01*
X030430Y015000D02*
X030930Y015250D01*
X030930Y028000D01*
X030967Y027831D01*
X030967Y028500D02*
X031680Y028500D01*
X030180Y029000D02*
X030180Y027750D01*
X029680Y027250D01*
X029680Y022250D01*
X030180Y022500D02*
X030180Y023500D01*
X030180Y022500D02*
X030180Y021500D01*
X029680Y021000D01*
X031930Y021500D02*
X033430Y021500D01*
X033930Y021000D01*
X033930Y020000D02*
X033430Y019500D01*
X031930Y019500D01*
X032930Y017000D02*
X031930Y016000D01*
X027930Y010500D02*
X028930Y009500D01*
X033430Y009500D01*
X033930Y010000D01*
X033930Y009000D02*
X033430Y008500D01*
X029180Y008500D01*
X027430Y010250D01*
X022930Y010250D01*
X024430Y010500D02*
X027930Y010500D01*
X025180Y014000D02*
X023680Y012500D01*
X023440Y012410D01*
X027180Y027000D02*
X027271Y027000D01*
X027180Y027000D02*
X027180Y028750D01*
X027101Y028750D01*
X027101Y029250D02*
X027680Y029250D01*
X029180Y027750D01*
X029393Y027831D01*
X029393Y028500D02*
X029180Y028500D01*
X027930Y029750D01*
X027101Y029750D01*
X030619Y033500D02*
X030680Y033500D01*
X031680Y032500D01*
X031680Y031500D01*
X031740Y031500D01*
M02*
