G75*
%MOIN*%
%OFA0B0*%
%FSLAX24Y24*%
%IPPOS*%
%LPD*%
%AMOC8*
5,1,8,0,0,1.08239X$1,22.5*
%
%ADD10C,0.0000*%
%ADD11C,0.0050*%
D10*
X022535Y030360D02*
X022537Y030396D01*
X022543Y030431D01*
X022553Y030466D01*
X022566Y030499D01*
X022583Y030530D01*
X022604Y030560D01*
X022627Y030587D01*
X022653Y030611D01*
X022682Y030632D01*
X022713Y030650D01*
X022746Y030664D01*
X022780Y030675D01*
X022815Y030682D01*
X022851Y030685D01*
X022887Y030684D01*
X022922Y030679D01*
X022957Y030670D01*
X022991Y030658D01*
X023022Y030641D01*
X023052Y030622D01*
X023080Y030599D01*
X023105Y030573D01*
X023127Y030545D01*
X023146Y030515D01*
X023161Y030482D01*
X023173Y030448D01*
X023181Y030413D01*
X023185Y030378D01*
X023185Y030342D01*
X023181Y030307D01*
X023173Y030272D01*
X023161Y030238D01*
X023146Y030205D01*
X023127Y030175D01*
X023105Y030147D01*
X023080Y030121D01*
X023052Y030098D01*
X023023Y030079D01*
X022991Y030062D01*
X022957Y030050D01*
X022922Y030041D01*
X022887Y030036D01*
X022851Y030035D01*
X022815Y030038D01*
X022780Y030045D01*
X022746Y030056D01*
X022713Y030070D01*
X022682Y030088D01*
X022653Y030109D01*
X022627Y030133D01*
X022604Y030160D01*
X022583Y030190D01*
X022566Y030221D01*
X022553Y030254D01*
X022543Y030289D01*
X022537Y030324D01*
X022535Y030360D01*
X022535Y033120D02*
X022537Y033156D01*
X022543Y033191D01*
X022553Y033226D01*
X022566Y033259D01*
X022583Y033290D01*
X022604Y033320D01*
X022627Y033347D01*
X022653Y033371D01*
X022682Y033392D01*
X022713Y033410D01*
X022746Y033424D01*
X022780Y033435D01*
X022815Y033442D01*
X022851Y033445D01*
X022887Y033444D01*
X022922Y033439D01*
X022957Y033430D01*
X022991Y033418D01*
X023022Y033401D01*
X023052Y033382D01*
X023080Y033359D01*
X023105Y033333D01*
X023127Y033305D01*
X023146Y033275D01*
X023161Y033242D01*
X023173Y033208D01*
X023181Y033173D01*
X023185Y033138D01*
X023185Y033102D01*
X023181Y033067D01*
X023173Y033032D01*
X023161Y032998D01*
X023146Y032965D01*
X023127Y032935D01*
X023105Y032907D01*
X023080Y032881D01*
X023052Y032858D01*
X023023Y032839D01*
X022991Y032822D01*
X022957Y032810D01*
X022922Y032801D01*
X022887Y032796D01*
X022851Y032795D01*
X022815Y032798D01*
X022780Y032805D01*
X022746Y032816D01*
X022713Y032830D01*
X022682Y032848D01*
X022653Y032869D01*
X022627Y032893D01*
X022604Y032920D01*
X022583Y032950D01*
X022566Y032981D01*
X022553Y033014D01*
X022543Y033049D01*
X022537Y033084D01*
X022535Y033120D01*
D11*
X018180Y006250D02*
X013180Y006250D01*
X013180Y029500D01*
X013182Y029640D01*
X013188Y029780D01*
X013198Y029920D01*
X013211Y030060D01*
X013229Y030199D01*
X013251Y030338D01*
X013276Y030475D01*
X013305Y030613D01*
X013338Y030749D01*
X013375Y030884D01*
X013416Y031018D01*
X013461Y031151D01*
X013509Y031283D01*
X013561Y031413D01*
X013616Y031542D01*
X013675Y031669D01*
X013738Y031795D01*
X013804Y031919D01*
X013873Y032040D01*
X013946Y032160D01*
X014023Y032278D01*
X014102Y032393D01*
X014185Y032507D01*
X014271Y032617D01*
X014360Y032726D01*
X014452Y032832D01*
X014547Y032935D01*
X014644Y033036D01*
X014745Y033133D01*
X014848Y033228D01*
X014954Y033320D01*
X015063Y033409D01*
X015173Y033495D01*
X015287Y033578D01*
X015402Y033657D01*
X015520Y033734D01*
X015640Y033807D01*
X015761Y033876D01*
X015885Y033942D01*
X016011Y034005D01*
X016138Y034064D01*
X016267Y034119D01*
X016397Y034171D01*
X016529Y034219D01*
X016662Y034264D01*
X016796Y034305D01*
X016931Y034342D01*
X017067Y034375D01*
X017205Y034404D01*
X017342Y034429D01*
X017481Y034451D01*
X017620Y034469D01*
X017760Y034482D01*
X017900Y034492D01*
X018040Y034498D01*
X018180Y034500D01*
X029680Y034500D01*
X029820Y034498D01*
X029960Y034492D01*
X030100Y034482D01*
X030240Y034469D01*
X030379Y034451D01*
X030518Y034429D01*
X030655Y034404D01*
X030793Y034375D01*
X030929Y034342D01*
X031064Y034305D01*
X031198Y034264D01*
X031331Y034219D01*
X031463Y034171D01*
X031593Y034119D01*
X031722Y034064D01*
X031849Y034005D01*
X031975Y033942D01*
X032099Y033876D01*
X032220Y033807D01*
X032340Y033734D01*
X032458Y033657D01*
X032573Y033578D01*
X032687Y033495D01*
X032797Y033409D01*
X032906Y033320D01*
X033012Y033228D01*
X033115Y033133D01*
X033216Y033036D01*
X033313Y032935D01*
X033408Y032832D01*
X033500Y032726D01*
X033589Y032617D01*
X033675Y032507D01*
X033758Y032393D01*
X033837Y032278D01*
X033914Y032160D01*
X033987Y032040D01*
X034056Y031919D01*
X034122Y031795D01*
X034185Y031669D01*
X034244Y031542D01*
X034299Y031413D01*
X034351Y031283D01*
X034399Y031151D01*
X034444Y031018D01*
X034485Y030884D01*
X034522Y030749D01*
X034555Y030613D01*
X034584Y030475D01*
X034609Y030338D01*
X034631Y030199D01*
X034649Y030060D01*
X034662Y029920D01*
X034672Y029780D01*
X034678Y029640D01*
X034680Y029500D01*
X034680Y006250D01*
X029680Y006250D01*
X029678Y006343D01*
X029672Y006436D01*
X029663Y006528D01*
X029649Y006620D01*
X029632Y006712D01*
X029611Y006802D01*
X029586Y006892D01*
X029558Y006981D01*
X029526Y007068D01*
X029490Y007154D01*
X029451Y007238D01*
X029409Y007321D01*
X029363Y007402D01*
X029314Y007481D01*
X029261Y007557D01*
X029206Y007632D01*
X029147Y007704D01*
X029085Y007774D01*
X029021Y007841D01*
X028954Y007905D01*
X028884Y007967D01*
X028812Y008026D01*
X028737Y008081D01*
X028661Y008134D01*
X028582Y008183D01*
X028501Y008229D01*
X028418Y008271D01*
X028334Y008310D01*
X028248Y008346D01*
X028161Y008378D01*
X028072Y008406D01*
X027982Y008431D01*
X027892Y008452D01*
X027800Y008469D01*
X027708Y008483D01*
X027616Y008492D01*
X027523Y008498D01*
X027430Y008500D01*
X020430Y008500D01*
X020337Y008498D01*
X020244Y008492D01*
X020152Y008483D01*
X020060Y008469D01*
X019968Y008452D01*
X019878Y008431D01*
X019788Y008406D01*
X019699Y008378D01*
X019612Y008346D01*
X019526Y008310D01*
X019442Y008271D01*
X019359Y008229D01*
X019278Y008183D01*
X019199Y008134D01*
X019123Y008081D01*
X019048Y008026D01*
X018976Y007967D01*
X018906Y007905D01*
X018839Y007841D01*
X018775Y007774D01*
X018713Y007704D01*
X018654Y007632D01*
X018599Y007557D01*
X018546Y007481D01*
X018497Y007402D01*
X018451Y007321D01*
X018409Y007238D01*
X018370Y007154D01*
X018334Y007068D01*
X018302Y006981D01*
X018274Y006892D01*
X018249Y006802D01*
X018228Y006712D01*
X018211Y006620D01*
X018197Y006528D01*
X018188Y006436D01*
X018182Y006343D01*
X018180Y006250D01*
M02*
