G75*
%MOIN*%
%OFA0B0*%
%FSLAX24Y24*%
%IPPOS*%
%LPD*%
%AMOC8*
5,1,8,0,0,1.08239X$1,22.5*
%
%ADD10C,0.0030*%
%ADD11C,0.1500*%
%ADD12C,0.0476*%
%ADD13OC8,0.0740*%
%ADD14C,0.0660*%
%ADD15R,0.0594X0.0594*%
%ADD16C,0.0594*%
%ADD17C,0.0700*%
%ADD18C,0.0160*%
%ADD19R,0.0591X0.0591*%
%ADD20C,0.0100*%
D10*
X016893Y026015D02*
X016893Y026385D01*
X017078Y026200D01*
X016831Y026200D01*
X017199Y026015D02*
X017446Y026015D01*
X017323Y026015D02*
X017323Y026385D01*
X017446Y026262D01*
X017568Y026324D02*
X017815Y026077D01*
X017753Y026015D01*
X017629Y026015D01*
X017568Y026077D01*
X017568Y026324D01*
X017629Y026385D01*
X017753Y026385D01*
X017815Y026324D01*
X017815Y026077D01*
X017936Y026015D02*
X018183Y026015D01*
X017936Y026262D01*
X017936Y026324D01*
X017998Y026385D01*
X018121Y026385D01*
X018183Y026324D01*
X018304Y026262D02*
X018489Y026262D01*
X018551Y026200D01*
X018489Y026138D01*
X018366Y026138D01*
X018304Y026077D01*
X018366Y026015D01*
X018551Y026015D01*
X018673Y026015D02*
X018673Y026200D01*
X018734Y026262D01*
X018796Y026200D01*
X018796Y026015D01*
X018919Y026015D02*
X018919Y026262D01*
X018858Y026262D01*
X018796Y026200D01*
X019042Y026262D02*
X019042Y025953D01*
X019103Y025892D01*
X019165Y025892D01*
X019042Y026385D02*
X019042Y026447D01*
D11*
X019117Y032951D03*
X016243Y032951D03*
D12*
X017365Y031911D02*
X017365Y031435D01*
X017995Y031435D02*
X017995Y031911D01*
X018310Y030923D02*
X018310Y030448D01*
X017680Y030448D02*
X017680Y030923D01*
X017050Y030923D02*
X017050Y030448D01*
D13*
X029180Y022500D03*
X029180Y021500D03*
X029180Y020500D03*
X029180Y019500D03*
X030180Y019500D03*
X030180Y020500D03*
X030180Y021500D03*
X030180Y022500D03*
X030180Y018500D03*
X030180Y017500D03*
X030180Y016500D03*
X030180Y015500D03*
X029180Y015500D03*
X029180Y016500D03*
X029180Y017500D03*
X029180Y018500D03*
X029180Y014500D03*
X029180Y013500D03*
X029180Y012500D03*
X029180Y011500D03*
X030180Y011500D03*
X030180Y012500D03*
X030180Y013500D03*
X030180Y014500D03*
X030180Y010500D03*
X029180Y010500D03*
D14*
X024180Y015500D03*
X024180Y016500D03*
X024180Y017500D03*
X024180Y020500D03*
X024180Y021500D03*
X024180Y022500D03*
D15*
X014930Y008000D03*
X033930Y008000D03*
D16*
X033930Y009000D03*
X033930Y010000D03*
X033930Y011000D03*
X032930Y011000D03*
X032930Y010000D03*
X032930Y009000D03*
X032930Y008000D03*
X032930Y012000D03*
X032930Y013000D03*
X032930Y014000D03*
X032930Y015000D03*
X033930Y015000D03*
X033930Y014000D03*
X033930Y013000D03*
X033930Y012000D03*
X033930Y016000D03*
X033930Y017000D03*
X033930Y018000D03*
X032930Y018000D03*
X032930Y017000D03*
X032930Y016000D03*
X032930Y019000D03*
X032930Y020000D03*
X032930Y021000D03*
X032930Y022000D03*
X033930Y022000D03*
X033930Y021000D03*
X033930Y020000D03*
X033930Y019000D03*
X033930Y023000D03*
X033930Y024000D03*
X033930Y025000D03*
X033930Y026000D03*
X032930Y026000D03*
X032930Y025000D03*
X032930Y024000D03*
X032930Y023000D03*
X032930Y027000D03*
X032930Y028000D03*
X032930Y029000D03*
X032930Y030000D03*
X033930Y030000D03*
X033930Y029000D03*
X033930Y028000D03*
X033930Y027000D03*
X014930Y027000D03*
X014930Y028000D03*
X014930Y029000D03*
X014930Y030000D03*
X013930Y030000D03*
X013930Y029000D03*
X013930Y028000D03*
X013930Y027000D03*
X013930Y026000D03*
X013930Y025000D03*
X013930Y024000D03*
X013930Y023000D03*
X014930Y023000D03*
X014930Y024000D03*
X014930Y025000D03*
X014930Y026000D03*
X014930Y022000D03*
X014930Y021000D03*
X014930Y020000D03*
X014930Y019000D03*
X013930Y019000D03*
X013930Y020000D03*
X013930Y021000D03*
X013930Y022000D03*
X013930Y018000D03*
X013930Y017000D03*
X013930Y016000D03*
X014930Y016000D03*
X014930Y017000D03*
X014930Y018000D03*
X014930Y015000D03*
X014930Y014000D03*
X014930Y013000D03*
X014930Y012000D03*
X013930Y012000D03*
X013930Y013000D03*
X013930Y014000D03*
X013930Y015000D03*
X013930Y011000D03*
X013930Y010000D03*
X013930Y009000D03*
X013930Y008000D03*
X014930Y009000D03*
X014930Y010000D03*
X014930Y011000D03*
D17*
X017180Y008000D03*
X025180Y014000D03*
D18*
X013685Y007590D02*
X013685Y006755D01*
X017719Y006755D01*
X017813Y007166D01*
X017813Y007166D01*
X018083Y007725D01*
X018083Y007725D01*
X018470Y008210D01*
X018470Y008210D01*
X018470Y008210D01*
X018955Y008597D01*
X018955Y008597D01*
X019514Y008867D01*
X019514Y008867D01*
X020120Y009005D01*
X027740Y009005D01*
X028346Y008867D01*
X028346Y008867D01*
X028905Y008597D01*
X028905Y008597D01*
X029390Y008210D01*
X029390Y008210D01*
X029777Y007725D01*
X029777Y007725D01*
X030047Y007166D01*
X030141Y006755D01*
X034175Y006755D01*
X034175Y007523D01*
X033948Y007523D01*
X033948Y007982D01*
X033912Y007982D01*
X033912Y007523D01*
X033609Y007523D01*
X033564Y007535D01*
X033523Y007559D01*
X033489Y007593D01*
X033465Y007634D01*
X033453Y007679D01*
X033453Y007982D01*
X033912Y007982D01*
X033912Y008018D01*
X033453Y008018D01*
X033453Y008321D01*
X033465Y008366D01*
X033489Y008407D01*
X033523Y008441D01*
X033564Y008465D01*
X033609Y008477D01*
X033912Y008477D01*
X033912Y008018D01*
X033948Y008018D01*
X033948Y008477D01*
X034175Y008477D01*
X034175Y008607D01*
X034021Y008543D01*
X033839Y008543D01*
X033671Y008613D01*
X033543Y008741D01*
X033473Y008909D01*
X033473Y009091D01*
X033543Y009259D01*
X033671Y009387D01*
X033839Y009457D01*
X034021Y009457D01*
X034175Y009393D01*
X034175Y009607D01*
X034021Y009543D01*
X033839Y009543D01*
X033671Y009613D01*
X033543Y009741D01*
X033473Y009909D01*
X033473Y010091D01*
X033543Y010259D01*
X033671Y010387D01*
X033839Y010457D01*
X034021Y010457D01*
X034175Y010393D01*
X034175Y010607D01*
X034021Y010543D01*
X033839Y010543D01*
X033671Y010613D01*
X033543Y010741D01*
X033473Y010909D01*
X033473Y011091D01*
X033543Y011259D01*
X033671Y011387D01*
X033839Y011457D01*
X034021Y011457D01*
X034175Y011393D01*
X034175Y011607D01*
X034021Y011543D01*
X033839Y011543D01*
X033671Y011613D01*
X033543Y011741D01*
X033473Y011909D01*
X033473Y012091D01*
X033543Y012259D01*
X033671Y012387D01*
X033839Y012457D01*
X034021Y012457D01*
X034175Y012393D01*
X034175Y012607D01*
X034021Y012543D01*
X033839Y012543D01*
X033671Y012613D01*
X033543Y012741D01*
X033473Y012909D01*
X033473Y013091D01*
X033543Y013259D01*
X033671Y013387D01*
X033839Y013457D01*
X034021Y013457D01*
X034175Y013393D01*
X034175Y013607D01*
X034021Y013543D01*
X033839Y013543D01*
X033671Y013613D01*
X033543Y013741D01*
X033473Y013909D01*
X033473Y014091D01*
X033543Y014259D01*
X033671Y014387D01*
X033839Y014457D01*
X034021Y014457D01*
X034175Y014393D01*
X034175Y014607D01*
X034021Y014543D01*
X033839Y014543D01*
X033671Y014613D01*
X033543Y014741D01*
X033473Y014909D01*
X033473Y015091D01*
X033543Y015259D01*
X033671Y015387D01*
X033839Y015457D01*
X034021Y015457D01*
X034175Y015393D01*
X034175Y015607D01*
X034021Y015543D01*
X033839Y015543D01*
X033671Y015613D01*
X033543Y015741D01*
X033473Y015909D01*
X033473Y016091D01*
X033543Y016259D01*
X033671Y016387D01*
X033839Y016457D01*
X034021Y016457D01*
X034175Y016393D01*
X034175Y016607D01*
X034021Y016543D01*
X033839Y016543D01*
X033671Y016613D01*
X033543Y016741D01*
X033473Y016909D01*
X033473Y017091D01*
X033543Y017259D01*
X033671Y017387D01*
X033839Y017457D01*
X034021Y017457D01*
X034175Y017393D01*
X034175Y017607D01*
X034021Y017543D01*
X033839Y017543D01*
X033671Y017613D01*
X033543Y017741D01*
X033473Y017909D01*
X033473Y018091D01*
X033543Y018259D01*
X033671Y018387D01*
X033839Y018457D01*
X034021Y018457D01*
X034175Y018393D01*
X034175Y018607D01*
X034021Y018543D01*
X033839Y018543D01*
X033671Y018613D01*
X033543Y018741D01*
X033473Y018909D01*
X033473Y019091D01*
X033543Y019259D01*
X033671Y019387D01*
X033839Y019457D01*
X034021Y019457D01*
X034175Y019393D01*
X034175Y019607D01*
X034021Y019543D01*
X033839Y019543D01*
X033671Y019613D01*
X033543Y019741D01*
X033473Y019909D01*
X033473Y020091D01*
X033543Y020259D01*
X033671Y020387D01*
X033839Y020457D01*
X034021Y020457D01*
X034175Y020393D01*
X034175Y020607D01*
X034021Y020543D01*
X033839Y020543D01*
X033671Y020613D01*
X033543Y020741D01*
X033473Y020909D01*
X033473Y021091D01*
X033543Y021259D01*
X033671Y021387D01*
X033839Y021457D01*
X034021Y021457D01*
X034175Y021393D01*
X034175Y021607D01*
X034021Y021543D01*
X033839Y021543D01*
X033671Y021613D01*
X033543Y021741D01*
X033473Y021909D01*
X033473Y022091D01*
X033543Y022259D01*
X033671Y022387D01*
X033839Y022457D01*
X034021Y022457D01*
X034175Y022393D01*
X034175Y022607D01*
X034021Y022543D01*
X033839Y022543D01*
X033671Y022613D01*
X033543Y022741D01*
X033473Y022909D01*
X033473Y023091D01*
X033543Y023259D01*
X033671Y023387D01*
X033839Y023457D01*
X034021Y023457D01*
X034175Y023393D01*
X034175Y023607D01*
X034021Y023543D01*
X033839Y023543D01*
X033671Y023613D01*
X033543Y023741D01*
X033473Y023909D01*
X033473Y024091D01*
X033543Y024259D01*
X033671Y024387D01*
X033839Y024457D01*
X034021Y024457D01*
X034175Y024393D01*
X034175Y024607D01*
X034021Y024543D01*
X033839Y024543D01*
X033671Y024613D01*
X033543Y024741D01*
X033473Y024909D01*
X033473Y025091D01*
X033543Y025259D01*
X033671Y025387D01*
X033839Y025457D01*
X034021Y025457D01*
X034175Y025393D01*
X034175Y025607D01*
X034021Y025543D01*
X033839Y025543D01*
X033671Y025613D01*
X033543Y025741D01*
X033473Y025909D01*
X033473Y026091D01*
X033543Y026259D01*
X033671Y026387D01*
X033839Y026457D01*
X034021Y026457D01*
X034175Y026393D01*
X034175Y026607D01*
X034021Y026543D01*
X033839Y026543D01*
X033671Y026613D01*
X033543Y026741D01*
X033473Y026909D01*
X033473Y027091D01*
X033543Y027259D01*
X033671Y027387D01*
X033839Y027457D01*
X034021Y027457D01*
X034175Y027393D01*
X034175Y027607D01*
X034021Y027543D01*
X033839Y027543D01*
X033671Y027613D01*
X033543Y027741D01*
X033473Y027909D01*
X033473Y028091D01*
X033543Y028259D01*
X033671Y028387D01*
X033839Y028457D01*
X034021Y028457D01*
X034175Y028393D01*
X034175Y028590D01*
X034113Y028558D01*
X034042Y028535D01*
X033968Y028523D01*
X033948Y028523D01*
X033948Y028982D01*
X033912Y028982D01*
X033912Y028523D01*
X033892Y028523D01*
X033818Y028535D01*
X033747Y028558D01*
X033680Y028592D01*
X033619Y028636D01*
X033566Y028689D01*
X033522Y028750D01*
X033488Y028817D01*
X033465Y028888D01*
X033453Y028962D01*
X033453Y028982D01*
X033912Y028982D01*
X033912Y029018D01*
X033453Y029018D01*
X033453Y029038D01*
X033465Y029112D01*
X033488Y029183D01*
X033522Y029250D01*
X033566Y029311D01*
X033619Y029364D01*
X033680Y029408D01*
X033747Y029442D01*
X033818Y029465D01*
X033892Y029477D01*
X033912Y029477D01*
X033912Y029018D01*
X033948Y029018D01*
X033948Y029477D01*
X033968Y029477D01*
X034042Y029465D01*
X034113Y029442D01*
X034175Y029410D01*
X034175Y029500D01*
X034172Y029588D01*
X034113Y029558D01*
X034042Y029535D01*
X033968Y029523D01*
X033948Y029523D01*
X033948Y029982D01*
X033912Y029982D01*
X033453Y029982D01*
X033453Y029962D01*
X033465Y029888D01*
X033488Y029817D01*
X033522Y029750D01*
X033566Y029689D01*
X033619Y029636D01*
X033680Y029592D01*
X033747Y029558D01*
X033818Y029535D01*
X033892Y029523D01*
X033912Y029523D01*
X033912Y029982D01*
X033912Y030018D01*
X033453Y030018D01*
X033453Y030038D01*
X033465Y030112D01*
X033488Y030183D01*
X033522Y030250D01*
X033566Y030311D01*
X033619Y030364D01*
X033680Y030408D01*
X033747Y030442D01*
X033818Y030465D01*
X033892Y030477D01*
X033912Y030477D01*
X033912Y030018D01*
X033948Y030018D01*
X033948Y030477D01*
X033968Y030477D01*
X034042Y030465D01*
X034065Y030457D01*
X034051Y030549D01*
X033833Y031220D01*
X033513Y031849D01*
X033098Y032419D01*
X032599Y032918D01*
X032029Y033333D01*
X031400Y033653D01*
X030729Y033871D01*
X030033Y033981D01*
X029680Y033995D01*
X018180Y033995D01*
X017827Y033981D01*
X017131Y033871D01*
X016721Y033738D01*
X016758Y033722D01*
X017014Y033466D01*
X017153Y033132D01*
X017153Y032770D01*
X017014Y032435D01*
X016758Y032179D01*
X016424Y032041D01*
X016062Y032041D01*
X015728Y032179D01*
X015472Y032435D01*
X015333Y032770D01*
X015333Y032971D01*
X015261Y032918D01*
X015261Y032918D01*
X014762Y032419D01*
X014347Y031849D01*
X014027Y031220D01*
X013809Y030549D01*
X013791Y030437D01*
X013839Y030457D01*
X014021Y030457D01*
X014189Y030387D01*
X014317Y030259D01*
X014387Y030091D01*
X014387Y029909D01*
X014317Y029741D01*
X014189Y029613D01*
X014021Y029543D01*
X013839Y029543D01*
X013689Y029605D01*
X013685Y029500D01*
X013685Y029393D01*
X013839Y029457D01*
X014021Y029457D01*
X014189Y029387D01*
X014317Y029259D01*
X014387Y029091D01*
X014387Y028909D01*
X014317Y028741D01*
X014189Y028613D01*
X014021Y028543D01*
X013839Y028543D01*
X013685Y028607D01*
X013685Y028393D01*
X013839Y028457D01*
X014021Y028457D01*
X014189Y028387D01*
X014317Y028259D01*
X014387Y028091D01*
X014387Y027909D01*
X014317Y027741D01*
X014189Y027613D01*
X014021Y027543D01*
X013839Y027543D01*
X013685Y027607D01*
X013685Y027393D01*
X013839Y027457D01*
X014021Y027457D01*
X014189Y027387D01*
X014317Y027259D01*
X014387Y027091D01*
X014387Y026909D01*
X014317Y026741D01*
X014189Y026613D01*
X014021Y026543D01*
X013839Y026543D01*
X013685Y026607D01*
X013685Y026393D01*
X013839Y026457D01*
X014021Y026457D01*
X014189Y026387D01*
X014317Y026259D01*
X014387Y026091D01*
X014387Y025909D01*
X014317Y025741D01*
X014189Y025613D01*
X014021Y025543D01*
X013839Y025543D01*
X013685Y025607D01*
X013685Y025393D01*
X013839Y025457D01*
X014021Y025457D01*
X014189Y025387D01*
X014317Y025259D01*
X014387Y025091D01*
X014387Y024909D01*
X014317Y024741D01*
X014189Y024613D01*
X014021Y024543D01*
X013839Y024543D01*
X013685Y024607D01*
X013685Y024393D01*
X013839Y024457D01*
X014021Y024457D01*
X014189Y024387D01*
X014317Y024259D01*
X014387Y024091D01*
X014387Y023909D01*
X014317Y023741D01*
X014189Y023613D01*
X014021Y023543D01*
X013839Y023543D01*
X013685Y023607D01*
X013685Y023393D01*
X013839Y023457D01*
X014021Y023457D01*
X014189Y023387D01*
X014317Y023259D01*
X014387Y023091D01*
X014387Y022909D01*
X014317Y022741D01*
X014189Y022613D01*
X014021Y022543D01*
X013839Y022543D01*
X013685Y022607D01*
X013685Y022393D01*
X013839Y022457D01*
X014021Y022457D01*
X014189Y022387D01*
X014317Y022259D01*
X014387Y022091D01*
X014387Y021909D01*
X014317Y021741D01*
X014189Y021613D01*
X014021Y021543D01*
X013839Y021543D01*
X013685Y021607D01*
X013685Y021393D01*
X013839Y021457D01*
X014021Y021457D01*
X014189Y021387D01*
X014317Y021259D01*
X014387Y021091D01*
X014387Y020909D01*
X014317Y020741D01*
X014189Y020613D01*
X014021Y020543D01*
X013839Y020543D01*
X013685Y020607D01*
X013685Y020393D01*
X013839Y020457D01*
X014021Y020457D01*
X014189Y020387D01*
X014317Y020259D01*
X014387Y020091D01*
X014387Y019909D01*
X014317Y019741D01*
X014189Y019613D01*
X014021Y019543D01*
X013839Y019543D01*
X013685Y019607D01*
X013685Y019393D01*
X013839Y019457D01*
X014021Y019457D01*
X014189Y019387D01*
X014317Y019259D01*
X014387Y019091D01*
X014387Y018909D01*
X014317Y018741D01*
X014189Y018613D01*
X014021Y018543D01*
X013839Y018543D01*
X013685Y018607D01*
X013685Y018393D01*
X013839Y018457D01*
X014021Y018457D01*
X014189Y018387D01*
X014317Y018259D01*
X014387Y018091D01*
X014387Y017909D01*
X014317Y017741D01*
X014189Y017613D01*
X014021Y017543D01*
X013839Y017543D01*
X013685Y017607D01*
X013685Y017393D01*
X013839Y017457D01*
X014021Y017457D01*
X014189Y017387D01*
X014317Y017259D01*
X014387Y017091D01*
X014387Y016909D01*
X014317Y016741D01*
X014189Y016613D01*
X014021Y016543D01*
X013839Y016543D01*
X013685Y016607D01*
X013685Y016393D01*
X013839Y016457D01*
X014021Y016457D01*
X014189Y016387D01*
X014317Y016259D01*
X014387Y016091D01*
X014387Y015909D01*
X014317Y015741D01*
X014189Y015613D01*
X014021Y015543D01*
X013839Y015543D01*
X013685Y015607D01*
X013685Y015393D01*
X013839Y015457D01*
X014021Y015457D01*
X014189Y015387D01*
X014317Y015259D01*
X014387Y015091D01*
X014387Y014909D01*
X014317Y014741D01*
X014189Y014613D01*
X014021Y014543D01*
X013839Y014543D01*
X013685Y014607D01*
X013685Y014393D01*
X013839Y014457D01*
X014021Y014457D01*
X014189Y014387D01*
X014317Y014259D01*
X014387Y014091D01*
X014387Y013909D01*
X014317Y013741D01*
X014189Y013613D01*
X014021Y013543D01*
X013839Y013543D01*
X013685Y013607D01*
X013685Y013393D01*
X013839Y013457D01*
X014021Y013457D01*
X014189Y013387D01*
X014317Y013259D01*
X014387Y013091D01*
X014387Y012909D01*
X014317Y012741D01*
X014189Y012613D01*
X014021Y012543D01*
X013839Y012543D01*
X013685Y012607D01*
X013685Y012393D01*
X013839Y012457D01*
X014021Y012457D01*
X014189Y012387D01*
X014317Y012259D01*
X014387Y012091D01*
X014387Y011909D01*
X014317Y011741D01*
X014189Y011613D01*
X014021Y011543D01*
X013839Y011543D01*
X013685Y011607D01*
X013685Y011393D01*
X013839Y011457D01*
X014021Y011457D01*
X014189Y011387D01*
X014317Y011259D01*
X014387Y011091D01*
X014387Y010909D01*
X014317Y010741D01*
X014189Y010613D01*
X014021Y010543D01*
X013839Y010543D01*
X013685Y010607D01*
X013685Y010393D01*
X013839Y010457D01*
X014021Y010457D01*
X014189Y010387D01*
X014317Y010259D01*
X014387Y010091D01*
X014387Y009909D01*
X014317Y009741D01*
X014189Y009613D01*
X014021Y009543D01*
X013839Y009543D01*
X013685Y009607D01*
X013685Y009393D01*
X013839Y009457D01*
X014021Y009457D01*
X014189Y009387D01*
X014317Y009259D01*
X014387Y009091D01*
X014387Y008909D01*
X014317Y008741D01*
X014189Y008613D01*
X014021Y008543D01*
X013839Y008543D01*
X013685Y008607D01*
X013685Y008410D01*
X013747Y008442D01*
X013818Y008465D01*
X013892Y008477D01*
X013912Y008477D01*
X013912Y008018D01*
X013948Y008018D01*
X013948Y008477D01*
X013968Y008477D01*
X014042Y008465D01*
X014113Y008442D01*
X014180Y008408D01*
X014241Y008364D01*
X014294Y008311D01*
X014338Y008250D01*
X014372Y008183D01*
X014395Y008112D01*
X014407Y008038D01*
X014407Y008018D01*
X013948Y008018D01*
X013948Y007982D01*
X014407Y007982D01*
X014407Y007962D01*
X014395Y007888D01*
X014372Y007817D01*
X014338Y007750D01*
X014294Y007689D01*
X014241Y007636D01*
X014180Y007592D01*
X014113Y007558D01*
X014042Y007535D01*
X013968Y007523D01*
X013948Y007523D01*
X013948Y007982D01*
X013912Y007982D01*
X013912Y007523D01*
X013892Y007523D01*
X013818Y007535D01*
X013747Y007558D01*
X013685Y007590D01*
X013685Y007585D02*
X013694Y007585D01*
X013685Y007427D02*
X017939Y007427D01*
X018015Y007585D02*
X017510Y007585D01*
X017525Y007596D02*
X017458Y007547D01*
X017383Y007509D01*
X017304Y007483D01*
X017222Y007470D01*
X017200Y007470D01*
X017200Y007980D01*
X017200Y008020D01*
X017710Y008020D01*
X017710Y008042D01*
X017697Y008124D01*
X017671Y008203D01*
X017633Y008278D01*
X017584Y008345D01*
X017525Y008404D01*
X017458Y008453D01*
X017383Y008491D01*
X017304Y008517D01*
X017222Y008530D01*
X017200Y008530D01*
X017200Y008020D01*
X017160Y008020D01*
X017160Y008530D01*
X017138Y008530D01*
X017056Y008517D01*
X016977Y008491D01*
X016902Y008453D01*
X016835Y008404D01*
X016776Y008345D01*
X016727Y008278D01*
X016689Y008203D01*
X016663Y008124D01*
X016650Y008042D01*
X016650Y008020D01*
X017160Y008020D01*
X017160Y007980D01*
X017200Y007980D01*
X017710Y007980D01*
X017710Y007958D01*
X017697Y007876D01*
X017671Y007797D01*
X017633Y007722D01*
X017584Y007655D01*
X017525Y007596D01*
X017644Y007744D02*
X018097Y007744D01*
X018224Y007902D02*
X017701Y007902D01*
X017707Y008061D02*
X018350Y008061D01*
X018480Y008219D02*
X017663Y008219D01*
X017552Y008378D02*
X018679Y008378D01*
X018878Y008536D02*
X013685Y008536D01*
X013912Y008378D02*
X013948Y008378D01*
X013948Y008219D02*
X013912Y008219D01*
X013912Y008061D02*
X013948Y008061D01*
X013948Y007902D02*
X013912Y007902D01*
X013912Y007744D02*
X013948Y007744D01*
X013948Y007585D02*
X013912Y007585D01*
X014166Y007585D02*
X014497Y007585D01*
X014489Y007593D02*
X014523Y007559D01*
X014564Y007535D01*
X014609Y007523D01*
X014912Y007523D01*
X014912Y007982D01*
X014948Y007982D01*
X014948Y008018D01*
X014912Y008018D01*
X014912Y008477D01*
X014609Y008477D01*
X014564Y008465D01*
X014523Y008441D01*
X014489Y008407D01*
X014465Y008366D01*
X014453Y008321D01*
X014453Y008018D01*
X014912Y008018D01*
X014912Y007982D01*
X014453Y007982D01*
X014453Y007679D01*
X014465Y007634D01*
X014489Y007593D01*
X014453Y007744D02*
X014333Y007744D01*
X014397Y007902D02*
X014453Y007902D01*
X014453Y008061D02*
X014403Y008061D01*
X014354Y008219D02*
X014453Y008219D01*
X014472Y008378D02*
X014222Y008378D01*
X014271Y008695D02*
X014589Y008695D01*
X014543Y008741D02*
X014671Y008613D01*
X014839Y008543D01*
X015021Y008543D01*
X015189Y008613D01*
X015317Y008741D01*
X015387Y008909D01*
X015387Y009091D01*
X015317Y009259D01*
X015189Y009387D01*
X015021Y009457D01*
X014839Y009457D01*
X014671Y009387D01*
X014543Y009259D01*
X014473Y009091D01*
X014473Y008909D01*
X014543Y008741D01*
X014496Y008853D02*
X014364Y008853D01*
X014387Y009012D02*
X014473Y009012D01*
X014506Y009170D02*
X014354Y009170D01*
X014248Y009329D02*
X014612Y009329D01*
X014671Y009613D02*
X014839Y009543D01*
X015021Y009543D01*
X015189Y009613D01*
X015317Y009741D01*
X015387Y009909D01*
X015387Y010091D01*
X015317Y010259D01*
X015189Y010387D01*
X015021Y010457D01*
X014839Y010457D01*
X014671Y010387D01*
X014543Y010259D01*
X014473Y010091D01*
X014473Y009909D01*
X014543Y009741D01*
X014671Y009613D01*
X014638Y009646D02*
X014222Y009646D01*
X014343Y009804D02*
X014517Y009804D01*
X014473Y009963D02*
X014387Y009963D01*
X014374Y010121D02*
X014486Y010121D01*
X014563Y010280D02*
X014297Y010280D01*
X014066Y010438D02*
X014794Y010438D01*
X014839Y010543D02*
X015021Y010543D01*
X015189Y010613D01*
X015317Y010741D01*
X015387Y010909D01*
X015387Y011091D01*
X015317Y011259D01*
X015189Y011387D01*
X015021Y011457D01*
X014839Y011457D01*
X014671Y011387D01*
X014543Y011259D01*
X014473Y011091D01*
X014473Y010909D01*
X014543Y010741D01*
X014671Y010613D01*
X014839Y010543D01*
X014710Y010597D02*
X014150Y010597D01*
X014323Y010755D02*
X014537Y010755D01*
X014473Y010914D02*
X014387Y010914D01*
X014387Y011072D02*
X014473Y011072D01*
X014531Y011231D02*
X014329Y011231D01*
X014185Y011389D02*
X014675Y011389D01*
X014829Y011548D02*
X014031Y011548D01*
X013829Y011548D02*
X013685Y011548D01*
X014282Y011706D02*
X014578Y011706D01*
X014543Y011741D02*
X014671Y011613D01*
X014839Y011543D01*
X015021Y011543D01*
X015189Y011613D01*
X015317Y011741D01*
X015387Y011909D01*
X015387Y012091D01*
X015317Y012259D01*
X015189Y012387D01*
X015021Y012457D01*
X014839Y012457D01*
X014671Y012387D01*
X014543Y012259D01*
X014473Y012091D01*
X014473Y011909D01*
X014543Y011741D01*
X014492Y011865D02*
X014368Y011865D01*
X014387Y012023D02*
X014473Y012023D01*
X014511Y012182D02*
X014349Y012182D01*
X014236Y012340D02*
X014624Y012340D01*
X014671Y012613D02*
X014839Y012543D01*
X015021Y012543D01*
X015189Y012613D01*
X015317Y012741D01*
X015387Y012909D01*
X015387Y013091D01*
X015317Y013259D01*
X015189Y013387D01*
X015021Y013457D01*
X014839Y013457D01*
X014671Y013387D01*
X014543Y013259D01*
X014473Y013091D01*
X014473Y012909D01*
X014543Y012741D01*
X014671Y012613D01*
X014627Y012657D02*
X014233Y012657D01*
X014348Y012816D02*
X014512Y012816D01*
X014473Y012974D02*
X014387Y012974D01*
X014370Y013133D02*
X014490Y013133D01*
X014575Y013291D02*
X014285Y013291D01*
X014039Y013450D02*
X014821Y013450D01*
X014839Y013543D02*
X015021Y013543D01*
X015189Y013613D01*
X015317Y013741D01*
X015387Y013909D01*
X015387Y014091D01*
X015317Y014259D01*
X015189Y014387D01*
X015021Y014457D01*
X014839Y014457D01*
X014671Y014387D01*
X014543Y014259D01*
X014473Y014091D01*
X014473Y013909D01*
X014543Y013741D01*
X014671Y013613D01*
X014839Y013543D01*
X014683Y013608D02*
X014177Y013608D01*
X014328Y013767D02*
X014532Y013767D01*
X014473Y013925D02*
X014387Y013925D01*
X014387Y014084D02*
X014473Y014084D01*
X014536Y014242D02*
X014324Y014242D01*
X014157Y014401D02*
X014703Y014401D01*
X014801Y014559D02*
X014059Y014559D01*
X013801Y014559D02*
X013685Y014559D01*
X013685Y014401D02*
X013703Y014401D01*
X014294Y014718D02*
X014566Y014718D01*
X014543Y014741D02*
X014671Y014613D01*
X014839Y014543D01*
X015021Y014543D01*
X015189Y014613D01*
X015317Y014741D01*
X015387Y014909D01*
X015387Y015091D01*
X015317Y015259D01*
X015189Y015387D01*
X015021Y015457D01*
X014839Y015457D01*
X014671Y015387D01*
X014543Y015259D01*
X014473Y015091D01*
X014473Y014909D01*
X014543Y014741D01*
X014487Y014876D02*
X014373Y014876D01*
X014387Y015035D02*
X014473Y015035D01*
X014515Y015193D02*
X014345Y015193D01*
X014225Y015352D02*
X014635Y015352D01*
X014671Y015613D02*
X014839Y015543D01*
X015021Y015543D01*
X015189Y015613D01*
X015317Y015741D01*
X015387Y015909D01*
X015387Y016091D01*
X015317Y016259D01*
X015189Y016387D01*
X015021Y016457D01*
X014839Y016457D01*
X014671Y016387D01*
X014543Y016259D01*
X014473Y016091D01*
X014473Y015909D01*
X014543Y015741D01*
X014671Y015613D01*
X014615Y015669D02*
X014245Y015669D01*
X014353Y015827D02*
X014507Y015827D01*
X014473Y015986D02*
X014387Y015986D01*
X014365Y016144D02*
X014495Y016144D01*
X014586Y016303D02*
X014274Y016303D01*
X014196Y016620D02*
X014664Y016620D01*
X014671Y016613D02*
X014839Y016543D01*
X015021Y016543D01*
X015189Y016613D01*
X015317Y016741D01*
X015387Y016909D01*
X015387Y017091D01*
X015317Y017259D01*
X015189Y017387D01*
X015021Y017457D01*
X014839Y017457D01*
X014671Y017387D01*
X014543Y017259D01*
X014473Y017091D01*
X014473Y016909D01*
X014543Y016741D01*
X014671Y016613D01*
X014527Y016778D02*
X014333Y016778D01*
X014387Y016937D02*
X014473Y016937D01*
X014475Y017095D02*
X014385Y017095D01*
X014319Y017254D02*
X014541Y017254D01*
X014731Y017412D02*
X014129Y017412D01*
X014087Y017571D02*
X014773Y017571D01*
X014839Y017543D02*
X015021Y017543D01*
X015189Y017613D01*
X015317Y017741D01*
X015387Y017909D01*
X015387Y018091D01*
X015317Y018259D01*
X015189Y018387D01*
X015021Y018457D01*
X014839Y018457D01*
X014671Y018387D01*
X014543Y018259D01*
X014473Y018091D01*
X014473Y017909D01*
X014543Y017741D01*
X014671Y017613D01*
X014839Y017543D01*
X015087Y017571D02*
X021812Y017571D01*
X021654Y017729D02*
X015305Y017729D01*
X015378Y017888D02*
X021495Y017888D01*
X021337Y018046D02*
X015387Y018046D01*
X015340Y018205D02*
X021220Y018205D01*
X021220Y018163D02*
X023718Y015665D01*
X023690Y015597D01*
X023690Y015403D01*
X023765Y015222D01*
X023902Y015085D01*
X024083Y015010D01*
X024277Y015010D01*
X024458Y015085D01*
X024595Y015222D01*
X024670Y015403D01*
X024670Y015597D01*
X024595Y015778D01*
X024458Y015915D01*
X024277Y015990D01*
X024083Y015990D01*
X024015Y015962D01*
X021640Y018337D01*
X021640Y026045D01*
X021792Y026045D01*
X021885Y026138D01*
X021885Y026862D01*
X021792Y026955D01*
X021068Y026955D01*
X020975Y026862D01*
X020975Y026138D01*
X021068Y026045D01*
X021220Y026045D01*
X021220Y018337D01*
X021220Y018163D01*
X021220Y018363D02*
X015213Y018363D01*
X015189Y018613D02*
X015317Y018741D01*
X015387Y018909D01*
X015387Y019091D01*
X015317Y019259D01*
X015189Y019387D01*
X015021Y019457D01*
X014839Y019457D01*
X014671Y019387D01*
X014543Y019259D01*
X014473Y019091D01*
X014473Y018909D01*
X014543Y018741D01*
X014671Y018613D01*
X014839Y018543D01*
X015021Y018543D01*
X015189Y018613D01*
X015256Y018680D02*
X021220Y018680D01*
X021220Y018522D02*
X013685Y018522D01*
X014213Y018363D02*
X014647Y018363D01*
X014520Y018205D02*
X014340Y018205D01*
X014387Y018046D02*
X014473Y018046D01*
X014482Y017888D02*
X014378Y017888D01*
X014305Y017729D02*
X014555Y017729D01*
X015129Y017412D02*
X021971Y017412D01*
X022129Y017254D02*
X015319Y017254D01*
X015385Y017095D02*
X022288Y017095D01*
X022446Y016937D02*
X015387Y016937D01*
X015333Y016778D02*
X022605Y016778D01*
X022763Y016620D02*
X015196Y016620D01*
X015274Y016303D02*
X023080Y016303D01*
X022922Y016461D02*
X013685Y016461D01*
X013685Y015510D02*
X023690Y015510D01*
X023711Y015352D02*
X015225Y015352D01*
X015345Y015193D02*
X023794Y015193D01*
X024023Y015035D02*
X015387Y015035D01*
X015373Y014876D02*
X028806Y014876D01*
X028930Y015000D02*
X028650Y014720D01*
X028650Y014280D01*
X028930Y014000D01*
X028650Y013720D01*
X028650Y013280D01*
X028930Y013000D01*
X028650Y012720D01*
X028650Y012280D01*
X028930Y012000D01*
X028650Y011720D01*
X028650Y011280D01*
X028916Y011014D01*
X028630Y010728D01*
X028630Y010520D01*
X029160Y010520D01*
X029160Y010480D01*
X028630Y010480D01*
X028630Y010272D01*
X028952Y009950D01*
X029160Y009950D01*
X029160Y010480D01*
X029200Y010480D01*
X029200Y009950D01*
X029408Y009950D01*
X029694Y010236D01*
X029960Y009970D01*
X030400Y009970D01*
X030710Y010280D01*
X030710Y010720D01*
X030430Y011000D01*
X030710Y011280D01*
X030710Y011720D01*
X030430Y012000D01*
X030710Y012280D01*
X030710Y012483D01*
X032017Y013790D01*
X032140Y013913D01*
X032140Y014545D01*
X032292Y014545D01*
X032385Y014638D01*
X032385Y015362D01*
X032292Y015455D01*
X031568Y015455D01*
X031475Y015362D01*
X031475Y014638D01*
X031568Y014545D01*
X031720Y014545D01*
X031720Y014087D01*
X030531Y012898D01*
X030444Y012986D01*
X030730Y013272D01*
X030730Y013480D01*
X030200Y013480D01*
X030200Y013520D01*
X030730Y013520D01*
X030730Y013728D01*
X030444Y014014D01*
X030710Y014280D01*
X030710Y014720D01*
X030430Y015000D01*
X030710Y015280D01*
X030710Y015720D01*
X030640Y015790D01*
X031475Y015790D01*
X031475Y015638D01*
X031568Y015545D01*
X032292Y015545D01*
X032385Y015638D01*
X032385Y016362D01*
X032292Y016455D01*
X031568Y016455D01*
X031475Y016362D01*
X031475Y016210D01*
X030668Y016210D01*
X030730Y016272D01*
X030730Y016480D01*
X030200Y016480D01*
X030200Y016520D01*
X030730Y016520D01*
X030730Y016728D01*
X030444Y017014D01*
X030710Y017280D01*
X030710Y017720D01*
X030578Y017851D01*
X030640Y017913D01*
X031771Y019045D01*
X032292Y019045D01*
X032385Y019138D01*
X032385Y019862D01*
X032292Y019955D01*
X031568Y019955D01*
X031475Y019862D01*
X031475Y019341D01*
X030710Y018577D01*
X030710Y018720D01*
X030430Y019000D01*
X030710Y019280D01*
X030710Y019720D01*
X030578Y019851D01*
X030640Y019913D01*
X031771Y021045D01*
X032292Y021045D01*
X032385Y021138D01*
X032385Y021862D01*
X032292Y021955D01*
X031568Y021955D01*
X031475Y021862D01*
X031475Y021341D01*
X030730Y020597D01*
X030730Y020728D01*
X030444Y021014D01*
X030710Y021280D01*
X030710Y021720D01*
X030430Y022000D01*
X030710Y022280D01*
X030710Y022720D01*
X030400Y023030D01*
X029960Y023030D01*
X029680Y022750D01*
X029400Y023030D01*
X028960Y023030D01*
X028650Y022720D01*
X028650Y022280D01*
X028930Y022000D01*
X028650Y021720D01*
X028650Y021280D01*
X028930Y021000D01*
X028650Y020720D01*
X028650Y020280D01*
X028930Y020000D01*
X028650Y019720D01*
X028650Y019280D01*
X028916Y019014D01*
X028630Y018728D01*
X028630Y018520D01*
X029160Y018520D01*
X029160Y018480D01*
X028630Y018480D01*
X028630Y018272D01*
X028916Y017986D01*
X028650Y017720D01*
X028650Y017280D01*
X028930Y017000D01*
X028650Y016720D01*
X028650Y016280D01*
X028930Y016000D01*
X028650Y015720D01*
X028650Y015280D01*
X028930Y015000D01*
X028896Y015035D02*
X024337Y015035D01*
X024566Y015193D02*
X028737Y015193D01*
X028650Y015352D02*
X024649Y015352D01*
X024670Y015510D02*
X028650Y015510D01*
X028650Y015669D02*
X024641Y015669D01*
X024546Y015827D02*
X028757Y015827D01*
X028916Y015986D02*
X024288Y015986D01*
X024277Y016010D02*
X024458Y016085D01*
X024595Y016222D01*
X024670Y016403D01*
X024670Y016597D01*
X024595Y016778D01*
X028708Y016778D01*
X028650Y016620D02*
X024661Y016620D01*
X024670Y016461D02*
X028650Y016461D01*
X028650Y016303D02*
X024629Y016303D01*
X024517Y016144D02*
X028786Y016144D01*
X028867Y016937D02*
X024407Y016937D01*
X024458Y016915D02*
X024277Y016990D01*
X024083Y016990D01*
X024015Y016962D01*
X022390Y018587D01*
X022390Y019295D01*
X022542Y019295D01*
X022635Y019388D01*
X022635Y020112D01*
X022542Y020205D01*
X021818Y020205D01*
X021725Y020112D01*
X021725Y019388D01*
X021818Y019295D01*
X021970Y019295D01*
X021970Y018413D01*
X022093Y018290D01*
X023718Y016665D01*
X023690Y016597D01*
X023690Y016403D01*
X023765Y016222D01*
X023902Y016085D01*
X024083Y016010D01*
X024277Y016010D01*
X024072Y015986D02*
X023991Y015986D01*
X023843Y016144D02*
X023833Y016144D01*
X023731Y016303D02*
X023674Y016303D01*
X023690Y016461D02*
X023516Y016461D01*
X023357Y016620D02*
X023699Y016620D01*
X023605Y016778D02*
X023199Y016778D01*
X023040Y016937D02*
X023446Y016937D01*
X023288Y017095D02*
X022882Y017095D01*
X022723Y017254D02*
X023129Y017254D01*
X022971Y017412D02*
X022565Y017412D01*
X022406Y017571D02*
X022812Y017571D01*
X022654Y017729D02*
X022248Y017729D01*
X022089Y017888D02*
X022495Y017888D01*
X022337Y018046D02*
X021931Y018046D01*
X021772Y018205D02*
X022178Y018205D01*
X022020Y018363D02*
X021640Y018363D01*
X021640Y018522D02*
X021970Y018522D01*
X021970Y018680D02*
X021640Y018680D01*
X021640Y018839D02*
X021970Y018839D01*
X021970Y018997D02*
X021640Y018997D01*
X021640Y019156D02*
X021970Y019156D01*
X021799Y019314D02*
X021640Y019314D01*
X021640Y019473D02*
X021725Y019473D01*
X021725Y019631D02*
X021640Y019631D01*
X021640Y019790D02*
X021725Y019790D01*
X021725Y019948D02*
X021640Y019948D01*
X021640Y020107D02*
X021725Y020107D01*
X021640Y020265D02*
X023220Y020265D01*
X023220Y020163D02*
X025970Y017413D01*
X026093Y017290D01*
X027225Y017290D01*
X027225Y017138D01*
X027318Y017045D01*
X028042Y017045D01*
X028135Y017138D01*
X028135Y017862D01*
X028042Y017955D01*
X027318Y017955D01*
X027225Y017862D01*
X027225Y017710D01*
X026267Y017710D01*
X023640Y020337D01*
X023640Y021663D01*
X024015Y022038D01*
X024083Y022010D01*
X024277Y022010D01*
X024458Y022085D01*
X024595Y022222D01*
X024670Y022403D01*
X024670Y022597D01*
X024595Y022778D01*
X024458Y022915D01*
X024277Y022990D01*
X024083Y022990D01*
X023902Y022915D01*
X023765Y022778D01*
X023690Y022597D01*
X023690Y022403D01*
X023718Y022335D01*
X023343Y021960D01*
X023220Y021837D01*
X023220Y020163D01*
X023276Y020107D02*
X022635Y020107D01*
X022635Y019948D02*
X023435Y019948D01*
X023593Y019790D02*
X022635Y019790D01*
X022635Y019631D02*
X023752Y019631D01*
X023910Y019473D02*
X022635Y019473D01*
X022561Y019314D02*
X024069Y019314D01*
X024227Y019156D02*
X022390Y019156D01*
X022390Y018997D02*
X024386Y018997D01*
X024544Y018839D02*
X022390Y018839D01*
X022390Y018680D02*
X024703Y018680D01*
X024861Y018522D02*
X022455Y018522D01*
X022614Y018363D02*
X025020Y018363D01*
X025178Y018205D02*
X022772Y018205D01*
X022931Y018046D02*
X025337Y018046D01*
X025495Y017888D02*
X024485Y017888D01*
X024458Y017915D02*
X024277Y017990D01*
X024083Y017990D01*
X023902Y017915D01*
X023765Y017778D01*
X023690Y017597D01*
X023690Y017403D01*
X023765Y017222D01*
X023902Y017085D01*
X024083Y017010D01*
X024277Y017010D01*
X024458Y017085D01*
X024595Y017222D01*
X024670Y017403D01*
X024670Y017597D01*
X024595Y017778D01*
X024458Y017915D01*
X024616Y017729D02*
X025654Y017729D01*
X025812Y017571D02*
X024670Y017571D01*
X024670Y017412D02*
X025971Y017412D01*
X026248Y017729D02*
X027225Y017729D01*
X027250Y017888D02*
X026089Y017888D01*
X025931Y018046D02*
X028856Y018046D01*
X028818Y017888D02*
X028110Y017888D01*
X028135Y017729D02*
X028659Y017729D01*
X028650Y017571D02*
X028135Y017571D01*
X028135Y017412D02*
X028650Y017412D01*
X028677Y017254D02*
X028135Y017254D01*
X028092Y017095D02*
X028835Y017095D01*
X028698Y018205D02*
X025772Y018205D01*
X025614Y018363D02*
X028630Y018363D01*
X028630Y018522D02*
X025455Y018522D01*
X025297Y018680D02*
X028630Y018680D01*
X028741Y018839D02*
X025138Y018839D01*
X024980Y018997D02*
X028899Y018997D01*
X028775Y019156D02*
X028135Y019156D01*
X028135Y019138D02*
X028135Y019862D01*
X028042Y019955D01*
X027890Y019955D01*
X027890Y020413D01*
X027890Y020587D01*
X027767Y020710D01*
X024623Y020710D01*
X024595Y020778D01*
X024458Y020915D01*
X024277Y020990D01*
X024083Y020990D01*
X023902Y020915D01*
X023765Y020778D01*
X023690Y020597D01*
X023690Y020403D01*
X023765Y020222D01*
X023902Y020085D01*
X024083Y020010D01*
X024277Y020010D01*
X024458Y020085D01*
X024595Y020222D01*
X024623Y020290D01*
X027470Y020290D01*
X027470Y019955D01*
X027318Y019955D01*
X027225Y019862D01*
X027225Y019138D01*
X027318Y019045D01*
X028042Y019045D01*
X028135Y019138D01*
X028135Y019314D02*
X028650Y019314D01*
X028650Y019473D02*
X028135Y019473D01*
X028135Y019631D02*
X028650Y019631D01*
X028720Y019790D02*
X028135Y019790D01*
X028049Y019948D02*
X028878Y019948D01*
X028824Y020107D02*
X027890Y020107D01*
X027890Y020265D02*
X028665Y020265D01*
X028650Y020424D02*
X027890Y020424D01*
X027890Y020582D02*
X028650Y020582D01*
X028671Y020741D02*
X024611Y020741D01*
X024474Y020899D02*
X028829Y020899D01*
X028873Y021058D02*
X024392Y021058D01*
X024458Y021085D02*
X024595Y021222D01*
X024670Y021403D01*
X024670Y021597D01*
X024595Y021778D01*
X024458Y021915D01*
X024277Y021990D01*
X024083Y021990D01*
X023902Y021915D01*
X023765Y021778D01*
X023690Y021597D01*
X023690Y021403D01*
X023765Y021222D01*
X023902Y021085D01*
X024083Y021010D01*
X024277Y021010D01*
X024458Y021085D01*
X024589Y021216D02*
X028714Y021216D01*
X028650Y021375D02*
X024658Y021375D01*
X024670Y021533D02*
X028650Y021533D01*
X028650Y021692D02*
X024631Y021692D01*
X024523Y021850D02*
X028780Y021850D01*
X028922Y022009D02*
X023986Y022009D01*
X023837Y021850D02*
X023827Y021850D01*
X023729Y021692D02*
X023669Y021692D01*
X023690Y021533D02*
X023640Y021533D01*
X023640Y021375D02*
X023702Y021375D01*
X023640Y021216D02*
X023771Y021216D01*
X023640Y021058D02*
X023968Y021058D01*
X023886Y020899D02*
X023640Y020899D01*
X023640Y020741D02*
X023749Y020741D01*
X023690Y020582D02*
X023640Y020582D01*
X023640Y020424D02*
X023690Y020424D01*
X023712Y020265D02*
X023747Y020265D01*
X023870Y020107D02*
X023881Y020107D01*
X024029Y019948D02*
X027311Y019948D01*
X027225Y019790D02*
X024187Y019790D01*
X024346Y019631D02*
X027225Y019631D01*
X027225Y019473D02*
X024504Y019473D01*
X024663Y019314D02*
X027225Y019314D01*
X027225Y019156D02*
X024821Y019156D01*
X024479Y020107D02*
X027470Y020107D01*
X027470Y020265D02*
X024613Y020265D01*
X023220Y020424D02*
X021640Y020424D01*
X021640Y020582D02*
X023220Y020582D01*
X023220Y020741D02*
X021640Y020741D01*
X021640Y020899D02*
X023220Y020899D01*
X023220Y021058D02*
X021640Y021058D01*
X021640Y021216D02*
X023220Y021216D01*
X023220Y021375D02*
X021640Y021375D01*
X021640Y021533D02*
X023220Y021533D01*
X023220Y021692D02*
X021640Y021692D01*
X021640Y021850D02*
X023233Y021850D01*
X023343Y021960D02*
X023343Y021960D01*
X023392Y022009D02*
X021640Y022009D01*
X021640Y022167D02*
X023550Y022167D01*
X023709Y022326D02*
X021640Y022326D01*
X021640Y022484D02*
X023690Y022484D01*
X023709Y022643D02*
X021640Y022643D01*
X021640Y022801D02*
X023788Y022801D01*
X024009Y022960D02*
X021640Y022960D01*
X021640Y023118D02*
X029745Y023118D01*
X029725Y023138D02*
X029818Y023045D01*
X030542Y023045D01*
X030635Y023138D01*
X030635Y023862D01*
X030542Y023955D01*
X029909Y023955D01*
X020317Y030910D01*
X020267Y030960D01*
X020248Y030960D01*
X020233Y030971D01*
X020163Y030960D01*
X018708Y030960D01*
X018708Y031002D01*
X018647Y031149D01*
X018535Y031260D01*
X018389Y031321D01*
X018378Y031321D01*
X018393Y031356D01*
X018393Y031990D01*
X018332Y032136D01*
X018220Y032248D01*
X018074Y032308D01*
X017916Y032308D01*
X017770Y032248D01*
X017680Y032158D01*
X017590Y032248D01*
X017444Y032308D01*
X017286Y032308D01*
X017140Y032248D01*
X017028Y032136D01*
X016967Y031990D01*
X016967Y031356D01*
X016976Y031335D01*
X016952Y031331D01*
X016890Y031310D01*
X016831Y031281D01*
X016778Y031242D01*
X016731Y031195D01*
X016693Y031142D01*
X016663Y031084D01*
X016643Y031021D01*
X016632Y030956D01*
X016632Y030923D01*
X016632Y030415D01*
X016643Y030350D01*
X016663Y030287D01*
X016693Y030229D01*
X016731Y030175D01*
X016778Y030129D01*
X016831Y030090D01*
X016890Y030060D01*
X016952Y030040D01*
X017017Y030030D01*
X017050Y030030D01*
X017050Y030923D01*
X017050Y030923D01*
X016632Y030923D01*
X017050Y030923D01*
X017050Y030923D01*
X017050Y030030D01*
X017083Y030030D01*
X017148Y030040D01*
X017210Y030060D01*
X017269Y030090D01*
X017322Y030129D01*
X017369Y030175D01*
X017378Y030188D01*
X017455Y030110D01*
X017601Y030050D01*
X017759Y030050D01*
X017905Y030110D01*
X017995Y030200D01*
X018085Y030110D01*
X018231Y030050D01*
X018389Y030050D01*
X018535Y030110D01*
X018647Y030222D01*
X018708Y030369D01*
X018708Y030540D01*
X020112Y030540D01*
X029725Y023571D01*
X029725Y023138D01*
X029725Y023277D02*
X021640Y023277D01*
X021640Y023435D02*
X029725Y023435D01*
X029693Y023594D02*
X021640Y023594D01*
X021640Y023752D02*
X029475Y023752D01*
X029256Y023911D02*
X021640Y023911D01*
X021640Y024069D02*
X029037Y024069D01*
X028819Y024228D02*
X021640Y024228D01*
X021640Y024386D02*
X028600Y024386D01*
X028381Y024545D02*
X021640Y024545D01*
X021640Y024703D02*
X028163Y024703D01*
X027944Y024862D02*
X021640Y024862D01*
X021640Y025020D02*
X027726Y025020D01*
X027507Y025179D02*
X021640Y025179D01*
X021640Y025337D02*
X027288Y025337D01*
X027070Y025496D02*
X021640Y025496D01*
X021640Y025654D02*
X026851Y025654D01*
X026633Y025813D02*
X021640Y025813D01*
X021640Y025971D02*
X026414Y025971D01*
X026195Y026130D02*
X021877Y026130D01*
X021885Y026288D02*
X025977Y026288D01*
X025758Y026447D02*
X021885Y026447D01*
X021885Y026605D02*
X025539Y026605D01*
X025321Y026764D02*
X021885Y026764D01*
X021825Y026922D02*
X025102Y026922D01*
X024884Y027081D02*
X015387Y027081D01*
X015387Y027091D02*
X015317Y027259D01*
X015189Y027387D01*
X015021Y027457D01*
X014839Y027457D01*
X014671Y027387D01*
X014543Y027259D01*
X014473Y027091D01*
X014473Y026909D01*
X014543Y026741D01*
X014671Y026613D01*
X014839Y026543D01*
X015021Y026543D01*
X015189Y026613D01*
X015317Y026741D01*
X015387Y026909D01*
X015387Y027091D01*
X015325Y027239D02*
X024665Y027239D01*
X024446Y027398D02*
X015164Y027398D01*
X015052Y027556D02*
X024228Y027556D01*
X024009Y027715D02*
X015291Y027715D01*
X015317Y027741D02*
X015387Y027909D01*
X015387Y028091D01*
X015317Y028259D01*
X015189Y028387D01*
X015021Y028457D01*
X014839Y028457D01*
X014671Y028387D01*
X014543Y028259D01*
X014473Y028091D01*
X014473Y027909D01*
X014543Y027741D01*
X014671Y027613D01*
X014839Y027543D01*
X015021Y027543D01*
X015189Y027613D01*
X015317Y027741D01*
X015372Y027873D02*
X023790Y027873D01*
X023572Y028032D02*
X015387Y028032D01*
X015346Y028190D02*
X023353Y028190D01*
X023135Y028349D02*
X015228Y028349D01*
X015189Y028613D02*
X015317Y028741D01*
X015387Y028909D01*
X015387Y029091D01*
X015317Y029259D01*
X015189Y029387D01*
X015021Y029457D01*
X014839Y029457D01*
X014671Y029387D01*
X014543Y029259D01*
X014473Y029091D01*
X014473Y028909D01*
X014543Y028741D01*
X014671Y028613D01*
X014839Y028543D01*
X015021Y028543D01*
X015189Y028613D01*
X015242Y028666D02*
X022697Y028666D01*
X022479Y028824D02*
X015352Y028824D01*
X015387Y028983D02*
X022260Y028983D01*
X022041Y029141D02*
X015366Y029141D01*
X015277Y029300D02*
X021823Y029300D01*
X021604Y029458D02*
X013685Y029458D01*
X014193Y029617D02*
X014667Y029617D01*
X014671Y029613D02*
X014839Y029543D01*
X015021Y029543D01*
X015189Y029613D01*
X015317Y029741D01*
X015387Y029909D01*
X015387Y030091D01*
X015317Y030259D01*
X015189Y030387D01*
X015021Y030457D01*
X014839Y030457D01*
X014671Y030387D01*
X014543Y030259D01*
X014473Y030091D01*
X014473Y029909D01*
X014543Y029741D01*
X014671Y029613D01*
X014529Y029775D02*
X014331Y029775D01*
X014387Y029934D02*
X014473Y029934D01*
X014474Y030092D02*
X014386Y030092D01*
X014321Y030251D02*
X014539Y030251D01*
X014724Y030409D02*
X014136Y030409D01*
X013815Y030568D02*
X016632Y030568D01*
X016632Y030726D02*
X013867Y030726D01*
X013918Y030885D02*
X016632Y030885D01*
X016650Y031043D02*
X013970Y031043D01*
X014021Y031202D02*
X016738Y031202D01*
X016967Y031360D02*
X014098Y031360D01*
X014179Y031519D02*
X016967Y031519D01*
X016967Y031677D02*
X014260Y031677D01*
X014341Y031836D02*
X016967Y031836D01*
X016969Y031994D02*
X014453Y031994D01*
X014568Y032153D02*
X015792Y032153D01*
X015596Y032311D02*
X014683Y032311D01*
X014812Y032470D02*
X015457Y032470D01*
X015392Y032628D02*
X014971Y032628D01*
X015129Y032787D02*
X015333Y032787D01*
X015333Y032945D02*
X015298Y032945D01*
X016694Y032153D02*
X017044Y032153D01*
X016890Y032311D02*
X018470Y032311D01*
X018346Y032435D02*
X018602Y032179D01*
X018936Y032041D01*
X019298Y032041D01*
X019632Y032179D01*
X019888Y032435D01*
X020027Y032770D01*
X020027Y033132D01*
X019888Y033466D01*
X019632Y033722D01*
X019298Y033861D01*
X018936Y033861D01*
X018602Y033722D01*
X018346Y033466D01*
X018207Y033132D01*
X018207Y032770D01*
X018346Y032435D01*
X018331Y032470D02*
X017029Y032470D01*
X017094Y032628D02*
X018266Y032628D01*
X018207Y032787D02*
X017153Y032787D01*
X017153Y032945D02*
X018207Y032945D01*
X018207Y033104D02*
X017153Y033104D01*
X017099Y033262D02*
X018261Y033262D01*
X018327Y033421D02*
X017033Y033421D01*
X016902Y033579D02*
X018458Y033579D01*
X018638Y033738D02*
X016722Y033738D01*
X017290Y033896D02*
X022630Y033896D01*
X022700Y033925D02*
X022404Y033802D01*
X022178Y033576D01*
X022055Y033280D01*
X022055Y032960D01*
X022178Y032664D01*
X022404Y032438D01*
X022700Y032315D01*
X023020Y032315D01*
X023316Y032438D01*
X023542Y032664D01*
X023665Y032960D01*
X023665Y033280D01*
X023542Y033576D01*
X023316Y033802D01*
X023020Y033925D01*
X022700Y033925D01*
X023090Y033896D02*
X030570Y033896D01*
X031139Y033738D02*
X023381Y033738D01*
X023539Y033579D02*
X031545Y033579D01*
X031856Y033421D02*
X023607Y033421D01*
X023665Y033262D02*
X032126Y033262D01*
X032344Y033104D02*
X023665Y033104D01*
X023659Y032945D02*
X032562Y032945D01*
X032731Y032787D02*
X023593Y032787D01*
X023506Y032628D02*
X032889Y032628D01*
X033048Y032470D02*
X023348Y032470D01*
X022372Y032470D02*
X019903Y032470D01*
X019968Y032628D02*
X022214Y032628D01*
X022127Y032787D02*
X020027Y032787D01*
X020027Y032945D02*
X022061Y032945D01*
X022055Y033104D02*
X020027Y033104D01*
X019973Y033262D02*
X022055Y033262D01*
X022113Y033421D02*
X019907Y033421D01*
X019776Y033579D02*
X022181Y033579D01*
X022339Y033738D02*
X019596Y033738D01*
X019764Y032311D02*
X033177Y032311D01*
X033292Y032153D02*
X019568Y032153D01*
X018666Y032153D02*
X018316Y032153D01*
X018391Y031994D02*
X033407Y031994D01*
X033519Y031836D02*
X018393Y031836D01*
X018393Y031677D02*
X033600Y031677D01*
X033681Y031519D02*
X018393Y031519D01*
X018393Y031360D02*
X033762Y031360D01*
X033839Y031202D02*
X018594Y031202D01*
X018691Y031043D02*
X022405Y031043D01*
X022404Y031042D02*
X022178Y030816D01*
X022055Y030520D01*
X022055Y030200D01*
X022178Y029904D01*
X022404Y029678D01*
X022700Y029555D01*
X023020Y029555D01*
X023316Y029678D01*
X023542Y029904D01*
X023665Y030200D01*
X023665Y030520D01*
X023542Y030816D01*
X023316Y031042D01*
X023020Y031165D01*
X022700Y031165D01*
X022404Y031042D01*
X022246Y030885D02*
X020352Y030885D01*
X020571Y030726D02*
X022140Y030726D01*
X022075Y030568D02*
X020789Y030568D01*
X021008Y030409D02*
X022055Y030409D01*
X022055Y030251D02*
X021227Y030251D01*
X021445Y030092D02*
X022100Y030092D01*
X022165Y029934D02*
X021664Y029934D01*
X021883Y029775D02*
X022307Y029775D01*
X022101Y029617D02*
X022551Y029617D01*
X022320Y029458D02*
X032797Y029458D01*
X032818Y029465D02*
X032747Y029442D01*
X032680Y029408D01*
X032619Y029364D01*
X032566Y029311D01*
X032522Y029250D01*
X032488Y029183D01*
X032465Y029112D01*
X032453Y029038D01*
X032453Y029018D01*
X032912Y029018D01*
X032912Y028982D01*
X032453Y028982D01*
X032453Y028962D01*
X032465Y028888D01*
X032488Y028817D01*
X032522Y028750D01*
X032566Y028689D01*
X032619Y028636D01*
X032680Y028592D01*
X032747Y028558D01*
X032818Y028535D01*
X032892Y028523D01*
X032912Y028523D01*
X032912Y028982D01*
X032948Y028982D01*
X032948Y029018D01*
X032912Y029018D01*
X032912Y029477D01*
X032892Y029477D01*
X032818Y029465D01*
X032818Y029535D02*
X032892Y029523D01*
X032912Y029523D01*
X032912Y029982D01*
X032453Y029982D01*
X032453Y029962D01*
X032465Y029888D01*
X032488Y029817D01*
X032522Y029750D01*
X032566Y029689D01*
X032619Y029636D01*
X032680Y029592D01*
X032747Y029558D01*
X032818Y029535D01*
X032912Y029458D02*
X032948Y029458D01*
X032948Y029477D02*
X032948Y029018D01*
X033407Y029018D01*
X033407Y029038D01*
X033395Y029112D01*
X033372Y029183D01*
X033338Y029250D01*
X033294Y029311D01*
X033241Y029364D01*
X033180Y029408D01*
X033113Y029442D01*
X033042Y029465D01*
X032968Y029477D01*
X032948Y029477D01*
X032948Y029523D02*
X032968Y029523D01*
X033042Y029535D01*
X033113Y029558D01*
X033180Y029592D01*
X033241Y029636D01*
X033294Y029689D01*
X033338Y029750D01*
X033372Y029817D01*
X033395Y029888D01*
X033407Y029962D01*
X033407Y029982D01*
X032948Y029982D01*
X032948Y030018D01*
X032912Y030018D01*
X032912Y029982D01*
X032948Y029982D01*
X032948Y029523D01*
X032948Y029617D02*
X032912Y029617D01*
X032912Y029775D02*
X032948Y029775D01*
X032948Y029934D02*
X032912Y029934D01*
X032912Y030018D02*
X032453Y030018D01*
X032453Y030038D01*
X032465Y030112D01*
X032488Y030183D01*
X032522Y030250D01*
X032566Y030311D01*
X032619Y030364D01*
X032680Y030408D01*
X032747Y030442D01*
X032818Y030465D01*
X032892Y030477D01*
X032912Y030477D01*
X032912Y030018D01*
X032948Y030018D02*
X032948Y030477D01*
X032968Y030477D01*
X033042Y030465D01*
X033113Y030442D01*
X033180Y030408D01*
X033241Y030364D01*
X033294Y030311D01*
X033338Y030250D01*
X033372Y030183D01*
X033395Y030112D01*
X033407Y030038D01*
X033407Y030018D01*
X032948Y030018D01*
X032948Y030092D02*
X032912Y030092D01*
X032912Y030251D02*
X032948Y030251D01*
X032948Y030409D02*
X032912Y030409D01*
X032682Y030409D02*
X023665Y030409D01*
X023665Y030251D02*
X032523Y030251D01*
X032462Y030092D02*
X023620Y030092D01*
X023555Y029934D02*
X032458Y029934D01*
X032509Y029775D02*
X023413Y029775D01*
X023169Y029617D02*
X032647Y029617D01*
X032558Y029300D02*
X022538Y029300D01*
X022757Y029141D02*
X032474Y029141D01*
X032486Y028824D02*
X023194Y028824D01*
X022976Y028983D02*
X032912Y028983D01*
X032948Y028983D02*
X033912Y028983D01*
X033912Y029141D02*
X033948Y029141D01*
X033948Y029300D02*
X033912Y029300D01*
X033912Y029458D02*
X033948Y029458D01*
X034063Y029458D02*
X034175Y029458D01*
X033948Y029617D02*
X033912Y029617D01*
X033912Y029775D02*
X033948Y029775D01*
X033948Y029934D02*
X033912Y029934D01*
X033912Y030092D02*
X033948Y030092D01*
X033948Y030251D02*
X033912Y030251D01*
X033912Y030409D02*
X033948Y030409D01*
X034045Y030568D02*
X023645Y030568D01*
X023580Y030726D02*
X033993Y030726D01*
X033942Y030885D02*
X023474Y030885D01*
X023315Y031043D02*
X033890Y031043D01*
X033682Y030409D02*
X033178Y030409D01*
X033337Y030251D02*
X033523Y030251D01*
X033462Y030092D02*
X033398Y030092D01*
X033402Y029934D02*
X033458Y029934D01*
X033509Y029775D02*
X033351Y029775D01*
X033213Y029617D02*
X033647Y029617D01*
X033797Y029458D02*
X033063Y029458D01*
X032948Y029300D02*
X032912Y029300D01*
X032912Y029141D02*
X032948Y029141D01*
X032948Y028982D02*
X033407Y028982D01*
X033407Y028962D01*
X033395Y028888D01*
X033372Y028817D01*
X033338Y028750D01*
X033294Y028689D01*
X033241Y028636D01*
X033180Y028592D01*
X033113Y028558D01*
X033042Y028535D01*
X032968Y028523D01*
X032948Y028523D01*
X032948Y028982D01*
X032948Y028824D02*
X032912Y028824D01*
X032912Y028666D02*
X032948Y028666D01*
X033021Y028457D02*
X032839Y028457D01*
X032671Y028387D01*
X032543Y028259D01*
X032473Y028091D01*
X032473Y027909D01*
X032543Y027741D01*
X032671Y027613D01*
X032839Y027543D01*
X033021Y027543D01*
X033189Y027613D01*
X033317Y027741D01*
X033387Y027909D01*
X033387Y028091D01*
X033317Y028259D01*
X033189Y028387D01*
X033021Y028457D01*
X033228Y028349D02*
X033632Y028349D01*
X033514Y028190D02*
X033346Y028190D01*
X033387Y028032D02*
X033473Y028032D01*
X033488Y027873D02*
X033372Y027873D01*
X033291Y027715D02*
X033569Y027715D01*
X033808Y027556D02*
X033052Y027556D01*
X033021Y027457D02*
X032839Y027457D01*
X032671Y027387D01*
X032543Y027259D01*
X032473Y027091D01*
X032473Y026909D01*
X032543Y026741D01*
X032671Y026613D01*
X032839Y026543D01*
X033021Y026543D01*
X033189Y026613D01*
X033317Y026741D01*
X033387Y026909D01*
X033387Y027091D01*
X033317Y027259D01*
X033189Y027387D01*
X033021Y027457D01*
X033164Y027398D02*
X033696Y027398D01*
X033535Y027239D02*
X033325Y027239D01*
X033387Y027081D02*
X033473Y027081D01*
X033473Y026922D02*
X033387Y026922D01*
X033327Y026764D02*
X033533Y026764D01*
X033690Y026605D02*
X033170Y026605D01*
X033046Y026447D02*
X033814Y026447D01*
X034046Y026447D02*
X034175Y026447D01*
X034170Y026605D02*
X034175Y026605D01*
X033572Y026288D02*
X033288Y026288D01*
X033317Y026259D02*
X033189Y026387D01*
X033021Y026457D01*
X032839Y026457D01*
X032671Y026387D01*
X032543Y026259D01*
X032473Y026091D01*
X032473Y025909D01*
X032543Y025741D01*
X032671Y025613D01*
X032839Y025543D01*
X033021Y025543D01*
X033189Y025613D01*
X033317Y025741D01*
X033387Y025909D01*
X033387Y026091D01*
X033317Y026259D01*
X033371Y026130D02*
X033489Y026130D01*
X033473Y025971D02*
X033387Y025971D01*
X033347Y025813D02*
X033513Y025813D01*
X033630Y025654D02*
X033230Y025654D01*
X033189Y025387D02*
X033021Y025457D01*
X032839Y025457D01*
X032671Y025387D01*
X032543Y025259D01*
X032473Y025091D01*
X032473Y024909D01*
X032543Y024741D01*
X032671Y024613D01*
X032839Y024543D01*
X033021Y024543D01*
X033189Y024613D01*
X033317Y024741D01*
X033387Y024909D01*
X033387Y025091D01*
X033317Y025259D01*
X033189Y025387D01*
X033239Y025337D02*
X033621Y025337D01*
X033509Y025179D02*
X033351Y025179D01*
X033387Y025020D02*
X033473Y025020D01*
X033493Y024862D02*
X033367Y024862D01*
X033279Y024703D02*
X033581Y024703D01*
X033836Y024545D02*
X033024Y024545D01*
X033021Y024457D02*
X032839Y024457D01*
X032671Y024387D01*
X032543Y024259D01*
X032473Y024091D01*
X032473Y023909D01*
X032543Y023741D01*
X032671Y023613D01*
X032839Y023543D01*
X033021Y023543D01*
X033189Y023613D01*
X033317Y023741D01*
X033387Y023909D01*
X033387Y024091D01*
X033317Y024259D01*
X033189Y024387D01*
X033021Y024457D01*
X033190Y024386D02*
X033670Y024386D01*
X033530Y024228D02*
X033330Y024228D01*
X033387Y024069D02*
X033473Y024069D01*
X033473Y023911D02*
X033387Y023911D01*
X033322Y023752D02*
X033538Y023752D01*
X033718Y023594D02*
X033142Y023594D01*
X033074Y023435D02*
X033786Y023435D01*
X033560Y023277D02*
X033300Y023277D01*
X033317Y023259D02*
X033189Y023387D01*
X033021Y023457D01*
X032839Y023457D01*
X032671Y023387D01*
X032543Y023259D01*
X032473Y023091D01*
X032473Y022909D01*
X032543Y022741D01*
X032671Y022613D01*
X032839Y022543D01*
X033021Y022543D01*
X033189Y022613D01*
X033317Y022741D01*
X033387Y022909D01*
X033387Y023091D01*
X033317Y023259D01*
X033376Y023118D02*
X033484Y023118D01*
X033473Y022960D02*
X033387Y022960D01*
X033342Y022801D02*
X033518Y022801D01*
X033641Y022643D02*
X033219Y022643D01*
X033189Y022387D02*
X033021Y022457D01*
X032839Y022457D01*
X032671Y022387D01*
X032543Y022259D01*
X032473Y022091D01*
X032473Y021909D01*
X032543Y021741D01*
X032671Y021613D01*
X032839Y021543D01*
X033021Y021543D01*
X033189Y021613D01*
X033317Y021741D01*
X033387Y021909D01*
X033387Y022091D01*
X033317Y022259D01*
X033189Y022387D01*
X033251Y022326D02*
X033609Y022326D01*
X033505Y022167D02*
X033355Y022167D01*
X033387Y022009D02*
X033473Y022009D01*
X033498Y021850D02*
X033362Y021850D01*
X033268Y021692D02*
X033592Y021692D01*
X033658Y021375D02*
X033202Y021375D01*
X033189Y021387D02*
X033021Y021457D01*
X032839Y021457D01*
X032671Y021387D01*
X032543Y021259D01*
X032473Y021091D01*
X032473Y020909D01*
X032543Y020741D01*
X032671Y020613D01*
X032839Y020543D01*
X033021Y020543D01*
X033189Y020613D01*
X033317Y020741D01*
X033387Y020909D01*
X033387Y021091D01*
X033317Y021259D01*
X033189Y021387D01*
X033335Y021216D02*
X033525Y021216D01*
X033473Y021058D02*
X033387Y021058D01*
X033383Y020899D02*
X033477Y020899D01*
X033543Y020741D02*
X033317Y020741D01*
X033115Y020582D02*
X033745Y020582D01*
X033759Y020424D02*
X033101Y020424D01*
X033021Y020457D02*
X032839Y020457D01*
X032671Y020387D01*
X032543Y020259D01*
X032473Y020091D01*
X032473Y019909D01*
X032543Y019741D01*
X032671Y019613D01*
X032839Y019543D01*
X033021Y019543D01*
X033189Y019613D01*
X033317Y019741D01*
X033387Y019909D01*
X033387Y020091D01*
X033317Y020259D01*
X033189Y020387D01*
X033021Y020457D01*
X032759Y020424D02*
X031151Y020424D01*
X031309Y020582D02*
X032745Y020582D01*
X032543Y020741D02*
X031468Y020741D01*
X031626Y020899D02*
X032477Y020899D01*
X032473Y021058D02*
X032305Y021058D01*
X032385Y021216D02*
X032525Y021216D01*
X032658Y021375D02*
X032385Y021375D01*
X032385Y021533D02*
X034175Y021533D01*
X034175Y020582D02*
X034115Y020582D01*
X034101Y020424D02*
X034175Y020424D01*
X033549Y020265D02*
X033311Y020265D01*
X033380Y020107D02*
X033480Y020107D01*
X033473Y019948D02*
X033387Y019948D01*
X033337Y019790D02*
X033523Y019790D01*
X033653Y019631D02*
X033207Y019631D01*
X033189Y019387D02*
X033021Y019457D01*
X032839Y019457D01*
X032671Y019387D01*
X032543Y019259D01*
X032473Y019091D01*
X032473Y018909D01*
X032543Y018741D01*
X032671Y018613D01*
X032839Y018543D01*
X033021Y018543D01*
X033189Y018613D01*
X033317Y018741D01*
X033387Y018909D01*
X033387Y019091D01*
X033317Y019259D01*
X033189Y019387D01*
X033262Y019314D02*
X033598Y019314D01*
X033500Y019156D02*
X033360Y019156D01*
X033387Y018997D02*
X033473Y018997D01*
X033502Y018839D02*
X033358Y018839D01*
X033256Y018680D02*
X033604Y018680D01*
X033647Y018363D02*
X033213Y018363D01*
X033189Y018387D02*
X033021Y018457D01*
X032839Y018457D01*
X032671Y018387D01*
X032543Y018259D01*
X032473Y018091D01*
X032473Y017909D01*
X032543Y017741D01*
X032671Y017613D01*
X032839Y017543D01*
X033021Y017543D01*
X033189Y017613D01*
X033317Y017741D01*
X033387Y017909D01*
X033387Y018091D01*
X033317Y018259D01*
X033189Y018387D01*
X033340Y018205D02*
X033520Y018205D01*
X033473Y018046D02*
X033387Y018046D01*
X033378Y017888D02*
X033482Y017888D01*
X033555Y017729D02*
X033305Y017729D01*
X033087Y017571D02*
X033773Y017571D01*
X033731Y017412D02*
X033129Y017412D01*
X033189Y017387D02*
X033021Y017457D01*
X032839Y017457D01*
X032671Y017387D01*
X032543Y017259D01*
X032473Y017091D01*
X032473Y016909D01*
X032543Y016741D01*
X032671Y016613D01*
X032839Y016543D01*
X033021Y016543D01*
X033189Y016613D01*
X033317Y016741D01*
X033387Y016909D01*
X033387Y017091D01*
X033317Y017259D01*
X033189Y017387D01*
X033319Y017254D02*
X033541Y017254D01*
X033475Y017095D02*
X033385Y017095D01*
X033387Y016937D02*
X033473Y016937D01*
X033527Y016778D02*
X033333Y016778D01*
X033196Y016620D02*
X033664Y016620D01*
X033586Y016303D02*
X033274Y016303D01*
X033317Y016259D02*
X033189Y016387D01*
X033021Y016457D01*
X032839Y016457D01*
X032671Y016387D01*
X032543Y016259D01*
X032473Y016091D01*
X032473Y015909D01*
X032543Y015741D01*
X032671Y015613D01*
X032839Y015543D01*
X033021Y015543D01*
X033189Y015613D01*
X033317Y015741D01*
X033387Y015909D01*
X033387Y016091D01*
X033317Y016259D01*
X033365Y016144D02*
X033495Y016144D01*
X033473Y015986D02*
X033387Y015986D01*
X033353Y015827D02*
X033507Y015827D01*
X033615Y015669D02*
X033245Y015669D01*
X033189Y015387D02*
X033021Y015457D01*
X032839Y015457D01*
X032671Y015387D01*
X032543Y015259D01*
X032473Y015091D01*
X032473Y014909D01*
X032543Y014741D01*
X032671Y014613D01*
X032839Y014543D01*
X033021Y014543D01*
X033189Y014613D01*
X033317Y014741D01*
X033387Y014909D01*
X033387Y015091D01*
X033317Y015259D01*
X033189Y015387D01*
X033225Y015352D02*
X033635Y015352D01*
X033515Y015193D02*
X033345Y015193D01*
X033387Y015035D02*
X033473Y015035D01*
X033487Y014876D02*
X033373Y014876D01*
X033294Y014718D02*
X033566Y014718D01*
X033801Y014559D02*
X033059Y014559D01*
X033021Y014457D02*
X032839Y014457D01*
X032671Y014387D01*
X032543Y014259D01*
X032473Y014091D01*
X032473Y013909D01*
X032543Y013741D01*
X032671Y013613D01*
X032839Y013543D01*
X033021Y013543D01*
X033189Y013613D01*
X033317Y013741D01*
X033387Y013909D01*
X033387Y014091D01*
X033317Y014259D01*
X033189Y014387D01*
X033021Y014457D01*
X033157Y014401D02*
X033703Y014401D01*
X033536Y014242D02*
X033324Y014242D01*
X033387Y014084D02*
X033473Y014084D01*
X033473Y013925D02*
X033387Y013925D01*
X033328Y013767D02*
X033532Y013767D01*
X033683Y013608D02*
X033177Y013608D01*
X033039Y013450D02*
X033821Y013450D01*
X034039Y013450D02*
X034175Y013450D01*
X033575Y013291D02*
X033285Y013291D01*
X033317Y013259D02*
X033189Y013387D01*
X033021Y013457D01*
X032839Y013457D01*
X032671Y013387D01*
X032543Y013259D01*
X032473Y013091D01*
X032473Y012909D01*
X032543Y012741D01*
X032671Y012613D01*
X032839Y012543D01*
X033021Y012543D01*
X033189Y012613D01*
X033317Y012741D01*
X033387Y012909D01*
X033387Y013091D01*
X033317Y013259D01*
X033370Y013133D02*
X033490Y013133D01*
X033473Y012974D02*
X033387Y012974D01*
X033348Y012816D02*
X033512Y012816D01*
X033627Y012657D02*
X033233Y012657D01*
X033189Y012387D02*
X033021Y012457D01*
X032839Y012457D01*
X032671Y012387D01*
X032543Y012259D01*
X032473Y012091D01*
X032473Y011909D01*
X032543Y011741D01*
X032671Y011613D01*
X032839Y011543D01*
X033021Y011543D01*
X033189Y011613D01*
X033317Y011741D01*
X033387Y011909D01*
X033387Y012091D01*
X033317Y012259D01*
X033189Y012387D01*
X033236Y012340D02*
X033624Y012340D01*
X033511Y012182D02*
X033349Y012182D01*
X033387Y012023D02*
X033473Y012023D01*
X033492Y011865D02*
X033368Y011865D01*
X033282Y011706D02*
X033578Y011706D01*
X033829Y011548D02*
X033031Y011548D01*
X033021Y011457D02*
X032839Y011457D01*
X032671Y011387D01*
X032543Y011259D01*
X032473Y011091D01*
X032473Y010909D01*
X032543Y010741D01*
X032671Y010613D01*
X032839Y010543D01*
X033021Y010543D01*
X033189Y010613D01*
X033317Y010741D01*
X033387Y010909D01*
X033387Y011091D01*
X033317Y011259D01*
X033189Y011387D01*
X033021Y011457D01*
X033185Y011389D02*
X033675Y011389D01*
X033531Y011231D02*
X033329Y011231D01*
X033387Y011072D02*
X033473Y011072D01*
X033473Y010914D02*
X033387Y010914D01*
X033323Y010755D02*
X033537Y010755D01*
X033710Y010597D02*
X033150Y010597D01*
X033066Y010438D02*
X033794Y010438D01*
X034066Y010438D02*
X034175Y010438D01*
X034175Y010597D02*
X034150Y010597D01*
X033563Y010280D02*
X033297Y010280D01*
X033317Y010259D02*
X033189Y010387D01*
X033021Y010457D01*
X032839Y010457D01*
X032671Y010387D01*
X032543Y010259D01*
X032473Y010091D01*
X032473Y009909D01*
X032543Y009741D01*
X032671Y009613D01*
X032839Y009543D01*
X033021Y009543D01*
X033189Y009613D01*
X033317Y009741D01*
X033387Y009909D01*
X033387Y010091D01*
X033317Y010259D01*
X033374Y010121D02*
X033486Y010121D01*
X033473Y009963D02*
X033387Y009963D01*
X033343Y009804D02*
X033517Y009804D01*
X033638Y009646D02*
X033222Y009646D01*
X033189Y009387D02*
X033021Y009457D01*
X032839Y009457D01*
X032671Y009387D01*
X032543Y009259D01*
X032473Y009091D01*
X032473Y008909D01*
X032543Y008741D01*
X032671Y008613D01*
X032839Y008543D01*
X033021Y008543D01*
X033189Y008613D01*
X033317Y008741D01*
X033387Y008909D01*
X033387Y009091D01*
X033317Y009259D01*
X033189Y009387D01*
X033248Y009329D02*
X033612Y009329D01*
X033506Y009170D02*
X033354Y009170D01*
X033387Y009012D02*
X033473Y009012D01*
X033496Y008853D02*
X033364Y008853D01*
X033271Y008695D02*
X033589Y008695D01*
X033472Y008378D02*
X033222Y008378D01*
X033241Y008364D02*
X033180Y008408D01*
X033113Y008442D01*
X033042Y008465D01*
X032968Y008477D01*
X032948Y008477D01*
X032948Y008018D01*
X032912Y008018D01*
X032912Y007982D01*
X032453Y007982D01*
X032453Y007962D01*
X032465Y007888D01*
X032488Y007817D01*
X032522Y007750D01*
X032566Y007689D01*
X032619Y007636D01*
X032680Y007592D01*
X032747Y007558D01*
X032818Y007535D01*
X032892Y007523D01*
X032912Y007523D01*
X032912Y007982D01*
X032948Y007982D01*
X032948Y008018D01*
X033407Y008018D01*
X033407Y008038D01*
X033395Y008112D01*
X033372Y008183D01*
X033338Y008250D01*
X033294Y008311D01*
X033241Y008364D01*
X033354Y008219D02*
X033453Y008219D01*
X033453Y008061D02*
X033403Y008061D01*
X033407Y007982D02*
X032948Y007982D01*
X032948Y007523D01*
X032968Y007523D01*
X033042Y007535D01*
X033113Y007558D01*
X033180Y007592D01*
X033241Y007636D01*
X033294Y007689D01*
X033338Y007750D01*
X033372Y007817D01*
X033395Y007888D01*
X033407Y007962D01*
X033407Y007982D01*
X033397Y007902D02*
X033453Y007902D01*
X033453Y007744D02*
X033333Y007744D01*
X033497Y007585D02*
X033166Y007585D01*
X032948Y007585D02*
X032912Y007585D01*
X032912Y007744D02*
X032948Y007744D01*
X032948Y007902D02*
X032912Y007902D01*
X032912Y008018D02*
X032453Y008018D01*
X032453Y008038D01*
X032465Y008112D01*
X032488Y008183D01*
X032522Y008250D01*
X032566Y008311D01*
X032619Y008364D01*
X032680Y008408D01*
X032747Y008442D01*
X032818Y008465D01*
X032892Y008477D01*
X032912Y008477D01*
X032912Y008018D01*
X032912Y008061D02*
X032948Y008061D01*
X032948Y008219D02*
X032912Y008219D01*
X032912Y008378D02*
X032948Y008378D01*
X032638Y008378D02*
X029181Y008378D01*
X028982Y008536D02*
X034175Y008536D01*
X033948Y008378D02*
X033912Y008378D01*
X033912Y008219D02*
X033948Y008219D01*
X033948Y008061D02*
X033912Y008061D01*
X033912Y007902D02*
X033948Y007902D01*
X033948Y007744D02*
X033912Y007744D01*
X033912Y007585D02*
X033948Y007585D01*
X034175Y007427D02*
X029921Y007427D01*
X029845Y007585D02*
X032694Y007585D01*
X032527Y007744D02*
X029763Y007744D01*
X029636Y007902D02*
X032463Y007902D01*
X032457Y008061D02*
X029510Y008061D01*
X029380Y008219D02*
X032506Y008219D01*
X032589Y008695D02*
X028704Y008695D01*
X028374Y008853D02*
X032496Y008853D01*
X032473Y009012D02*
X015387Y009012D01*
X015364Y008853D02*
X019486Y008853D01*
X019156Y008695D02*
X015271Y008695D01*
X015251Y008477D02*
X014948Y008477D01*
X014948Y008018D01*
X015407Y008018D01*
X015407Y008321D01*
X015395Y008366D01*
X015371Y008407D01*
X015337Y008441D01*
X015296Y008465D01*
X015251Y008477D01*
X015388Y008378D02*
X016808Y008378D01*
X016697Y008219D02*
X015407Y008219D01*
X015407Y008061D02*
X016653Y008061D01*
X016650Y007980D02*
X016650Y007958D01*
X016663Y007876D01*
X016689Y007797D01*
X016727Y007722D01*
X016776Y007655D01*
X016835Y007596D01*
X016902Y007547D01*
X016977Y007509D01*
X017056Y007483D01*
X017138Y007470D01*
X017160Y007470D01*
X017160Y007980D01*
X016650Y007980D01*
X016659Y007902D02*
X015407Y007902D01*
X015407Y007982D02*
X015407Y007679D01*
X015395Y007634D01*
X015371Y007593D01*
X015337Y007559D01*
X015296Y007535D01*
X015251Y007523D01*
X014948Y007523D01*
X014948Y007982D01*
X015407Y007982D01*
X015407Y007744D02*
X016716Y007744D01*
X016850Y007585D02*
X015363Y007585D01*
X014948Y007585D02*
X014912Y007585D01*
X014912Y007744D02*
X014948Y007744D01*
X014948Y007902D02*
X014912Y007902D01*
X014912Y008061D02*
X014948Y008061D01*
X014948Y008219D02*
X014912Y008219D01*
X014912Y008378D02*
X014948Y008378D01*
X015354Y009170D02*
X032506Y009170D01*
X032612Y009329D02*
X015248Y009329D01*
X015222Y009646D02*
X032638Y009646D01*
X032517Y009804D02*
X015343Y009804D01*
X015387Y009963D02*
X028940Y009963D01*
X029160Y009963D02*
X029200Y009963D01*
X029200Y010121D02*
X029160Y010121D01*
X029160Y010280D02*
X029200Y010280D01*
X029200Y010438D02*
X029160Y010438D01*
X028781Y010121D02*
X015374Y010121D01*
X015297Y010280D02*
X028630Y010280D01*
X028630Y010438D02*
X015066Y010438D01*
X015150Y010597D02*
X028630Y010597D01*
X028657Y010755D02*
X015323Y010755D01*
X015387Y010914D02*
X028816Y010914D01*
X028858Y011072D02*
X015387Y011072D01*
X015329Y011231D02*
X028700Y011231D01*
X028650Y011389D02*
X015185Y011389D01*
X015031Y011548D02*
X028650Y011548D01*
X028650Y011706D02*
X015282Y011706D01*
X015368Y011865D02*
X028795Y011865D01*
X028907Y012023D02*
X015387Y012023D01*
X015349Y012182D02*
X028749Y012182D01*
X028650Y012340D02*
X015236Y012340D01*
X015233Y012657D02*
X028650Y012657D01*
X028650Y012499D02*
X013685Y012499D01*
X013685Y013450D02*
X013821Y013450D01*
X015039Y013450D02*
X028650Y013450D01*
X028650Y013608D02*
X025509Y013608D01*
X025469Y013568D02*
X025612Y013711D01*
X025690Y013899D01*
X025690Y014101D01*
X025612Y014289D01*
X025469Y014432D01*
X025281Y014510D01*
X025079Y014510D01*
X024891Y014432D01*
X024748Y014289D01*
X024670Y014101D01*
X024670Y013899D01*
X024748Y013711D01*
X024891Y013568D01*
X025079Y013490D01*
X025281Y013490D01*
X025469Y013568D01*
X025635Y013767D02*
X028697Y013767D01*
X028855Y013925D02*
X025690Y013925D01*
X025690Y014084D02*
X028847Y014084D01*
X028688Y014242D02*
X025632Y014242D01*
X025501Y014401D02*
X028650Y014401D01*
X028650Y014559D02*
X015059Y014559D01*
X015157Y014401D02*
X024859Y014401D01*
X024728Y014242D02*
X015324Y014242D01*
X015387Y014084D02*
X024670Y014084D01*
X024670Y013925D02*
X015387Y013925D01*
X015328Y013767D02*
X024725Y013767D01*
X024851Y013608D02*
X015177Y013608D01*
X015285Y013291D02*
X028650Y013291D01*
X028798Y013133D02*
X015370Y013133D01*
X015387Y012974D02*
X028904Y012974D01*
X028746Y012816D02*
X015348Y012816D01*
X015294Y014718D02*
X028650Y014718D01*
X030464Y015035D02*
X031475Y015035D01*
X031475Y015193D02*
X030623Y015193D01*
X030710Y015352D02*
X031475Y015352D01*
X031475Y015669D02*
X030710Y015669D01*
X030710Y015510D02*
X034175Y015510D01*
X034175Y016461D02*
X030730Y016461D01*
X030730Y016303D02*
X031475Y016303D01*
X030730Y016620D02*
X032664Y016620D01*
X032527Y016778D02*
X030680Y016778D01*
X030521Y016937D02*
X032473Y016937D01*
X032475Y017095D02*
X030525Y017095D01*
X030683Y017254D02*
X032541Y017254D01*
X032731Y017412D02*
X030710Y017412D01*
X030710Y017571D02*
X032773Y017571D01*
X032555Y017729D02*
X030701Y017729D01*
X030615Y017888D02*
X032482Y017888D01*
X032473Y018046D02*
X030773Y018046D01*
X030932Y018205D02*
X032520Y018205D01*
X032647Y018363D02*
X031090Y018363D01*
X031249Y018522D02*
X034175Y018522D01*
X034175Y017571D02*
X034087Y017571D01*
X034129Y017412D02*
X034175Y017412D01*
X032586Y016303D02*
X032385Y016303D01*
X032385Y016144D02*
X032495Y016144D01*
X032473Y015986D02*
X032385Y015986D01*
X032385Y015827D02*
X032507Y015827D01*
X032615Y015669D02*
X032385Y015669D01*
X032385Y015352D02*
X032635Y015352D01*
X032515Y015193D02*
X032385Y015193D01*
X032385Y015035D02*
X032473Y015035D01*
X032487Y014876D02*
X032385Y014876D01*
X032385Y014718D02*
X032566Y014718D01*
X032801Y014559D02*
X032306Y014559D01*
X032140Y014401D02*
X032703Y014401D01*
X032536Y014242D02*
X032140Y014242D01*
X032140Y014084D02*
X032473Y014084D01*
X032473Y013925D02*
X032140Y013925D01*
X031993Y013767D02*
X032532Y013767D01*
X032683Y013608D02*
X031835Y013608D01*
X031676Y013450D02*
X032821Y013450D01*
X032575Y013291D02*
X031518Y013291D01*
X031359Y013133D02*
X032490Y013133D01*
X032473Y012974D02*
X031201Y012974D01*
X031042Y012816D02*
X032512Y012816D01*
X032627Y012657D02*
X030884Y012657D01*
X030725Y012499D02*
X034175Y012499D01*
X034175Y011548D02*
X034031Y011548D01*
X032829Y011548D02*
X030710Y011548D01*
X030710Y011706D02*
X032578Y011706D01*
X032492Y011865D02*
X030565Y011865D01*
X030453Y012023D02*
X032473Y012023D01*
X032511Y012182D02*
X030611Y012182D01*
X030710Y012340D02*
X032624Y012340D01*
X032675Y011389D02*
X030710Y011389D01*
X030660Y011231D02*
X032531Y011231D01*
X032473Y011072D02*
X030502Y011072D01*
X030516Y010914D02*
X032473Y010914D01*
X032537Y010755D02*
X030675Y010755D01*
X030710Y010597D02*
X032710Y010597D01*
X032794Y010438D02*
X030710Y010438D01*
X030709Y010280D02*
X032563Y010280D01*
X032486Y010121D02*
X030551Y010121D01*
X029809Y010121D02*
X029579Y010121D01*
X029420Y009963D02*
X032473Y009963D01*
X034175Y009487D02*
X013685Y009487D01*
X013685Y010438D02*
X013794Y010438D01*
X013710Y010597D02*
X013685Y010597D01*
X013685Y007268D02*
X017862Y007268D01*
X017800Y007110D02*
X013685Y007110D01*
X013685Y006951D02*
X017764Y006951D01*
X017728Y006793D02*
X013685Y006793D01*
X017160Y007585D02*
X017200Y007585D01*
X017200Y007744D02*
X017160Y007744D01*
X017160Y007902D02*
X017200Y007902D01*
X017200Y008061D02*
X017160Y008061D01*
X017160Y008219D02*
X017200Y008219D01*
X017200Y008378D02*
X017160Y008378D01*
X015245Y015669D02*
X023714Y015669D01*
X023556Y015827D02*
X015353Y015827D01*
X015387Y015986D02*
X023397Y015986D01*
X023239Y016144D02*
X015365Y016144D01*
X013773Y017571D02*
X013685Y017571D01*
X013685Y017412D02*
X013731Y017412D01*
X014256Y018680D02*
X014604Y018680D01*
X014502Y018839D02*
X014358Y018839D01*
X014387Y018997D02*
X014473Y018997D01*
X014500Y019156D02*
X014360Y019156D01*
X014262Y019314D02*
X014598Y019314D01*
X014671Y019613D02*
X014839Y019543D01*
X015021Y019543D01*
X015189Y019613D01*
X015317Y019741D01*
X015387Y019909D01*
X015387Y020091D01*
X015317Y020259D01*
X015189Y020387D01*
X015021Y020457D01*
X014839Y020457D01*
X014671Y020387D01*
X014543Y020259D01*
X014473Y020091D01*
X014473Y019909D01*
X014543Y019741D01*
X014671Y019613D01*
X014653Y019631D02*
X014207Y019631D01*
X014337Y019790D02*
X014523Y019790D01*
X014473Y019948D02*
X014387Y019948D01*
X014380Y020107D02*
X014480Y020107D01*
X014549Y020265D02*
X014311Y020265D01*
X014101Y020424D02*
X014759Y020424D01*
X014839Y020543D02*
X015021Y020543D01*
X015189Y020613D01*
X015317Y020741D01*
X015387Y020909D01*
X015387Y021091D01*
X015317Y021259D01*
X015189Y021387D01*
X015021Y021457D01*
X014839Y021457D01*
X014671Y021387D01*
X014543Y021259D01*
X014473Y021091D01*
X014473Y020909D01*
X014543Y020741D01*
X014671Y020613D01*
X014839Y020543D01*
X014745Y020582D02*
X014115Y020582D01*
X014317Y020741D02*
X014543Y020741D01*
X014477Y020899D02*
X014383Y020899D01*
X014387Y021058D02*
X014473Y021058D01*
X014525Y021216D02*
X014335Y021216D01*
X014202Y021375D02*
X014658Y021375D01*
X014671Y021613D02*
X014839Y021543D01*
X015021Y021543D01*
X015189Y021613D01*
X015317Y021741D01*
X015387Y021909D01*
X015387Y022091D01*
X015317Y022259D01*
X015189Y022387D01*
X015021Y022457D01*
X014839Y022457D01*
X014671Y022387D01*
X014543Y022259D01*
X014473Y022091D01*
X014473Y021909D01*
X014543Y021741D01*
X014671Y021613D01*
X014592Y021692D02*
X014268Y021692D01*
X014362Y021850D02*
X014498Y021850D01*
X014473Y022009D02*
X014387Y022009D01*
X014355Y022167D02*
X014505Y022167D01*
X014609Y022326D02*
X014251Y022326D01*
X014219Y022643D02*
X014641Y022643D01*
X014671Y022613D02*
X014839Y022543D01*
X015021Y022543D01*
X015189Y022613D01*
X015317Y022741D01*
X015387Y022909D01*
X015387Y023091D01*
X015317Y023259D01*
X015189Y023387D01*
X015021Y023457D01*
X014839Y023457D01*
X014671Y023387D01*
X014543Y023259D01*
X014473Y023091D01*
X014473Y022909D01*
X014543Y022741D01*
X014671Y022613D01*
X014518Y022801D02*
X014342Y022801D01*
X014387Y022960D02*
X014473Y022960D01*
X014484Y023118D02*
X014376Y023118D01*
X014300Y023277D02*
X014560Y023277D01*
X014786Y023435D02*
X014074Y023435D01*
X014142Y023594D02*
X014718Y023594D01*
X014671Y023613D02*
X014839Y023543D01*
X015021Y023543D01*
X015189Y023613D01*
X015317Y023741D01*
X015387Y023909D01*
X015387Y024091D01*
X015317Y024259D01*
X015189Y024387D01*
X015021Y024457D01*
X014839Y024457D01*
X014671Y024387D01*
X014543Y024259D01*
X014473Y024091D01*
X014473Y023909D01*
X014543Y023741D01*
X014671Y023613D01*
X014538Y023752D02*
X014322Y023752D01*
X014387Y023911D02*
X014473Y023911D01*
X014473Y024069D02*
X014387Y024069D01*
X014330Y024228D02*
X014530Y024228D01*
X014670Y024386D02*
X014190Y024386D01*
X014024Y024545D02*
X014836Y024545D01*
X014839Y024543D02*
X015021Y024543D01*
X015189Y024613D01*
X015317Y024741D01*
X015387Y024909D01*
X015387Y025091D01*
X015317Y025259D01*
X015189Y025387D01*
X015021Y025457D01*
X014839Y025457D01*
X014671Y025387D01*
X014543Y025259D01*
X014473Y025091D01*
X014473Y024909D01*
X014543Y024741D01*
X014671Y024613D01*
X014839Y024543D01*
X015024Y024545D02*
X021220Y024545D01*
X021220Y024703D02*
X015279Y024703D01*
X015367Y024862D02*
X021220Y024862D01*
X021220Y025020D02*
X015387Y025020D01*
X015351Y025179D02*
X021220Y025179D01*
X021220Y025337D02*
X015239Y025337D01*
X015189Y025613D02*
X015317Y025741D01*
X015387Y025909D01*
X015387Y026091D01*
X015317Y026259D01*
X015189Y026387D01*
X015021Y026457D01*
X014839Y026457D01*
X014671Y026387D01*
X014543Y026259D01*
X014473Y026091D01*
X014473Y025909D01*
X014543Y025741D01*
X014671Y025613D01*
X014839Y025543D01*
X015021Y025543D01*
X015189Y025613D01*
X015230Y025654D02*
X021220Y025654D01*
X021220Y025496D02*
X013685Y025496D01*
X014230Y025654D02*
X014630Y025654D01*
X014513Y025813D02*
X014347Y025813D01*
X014387Y025971D02*
X014473Y025971D01*
X014489Y026130D02*
X014371Y026130D01*
X014288Y026288D02*
X014572Y026288D01*
X014814Y026447D02*
X014046Y026447D01*
X014170Y026605D02*
X014690Y026605D01*
X014533Y026764D02*
X014327Y026764D01*
X014387Y026922D02*
X014473Y026922D01*
X014473Y027081D02*
X014387Y027081D01*
X014325Y027239D02*
X014535Y027239D01*
X014696Y027398D02*
X014164Y027398D01*
X014052Y027556D02*
X014808Y027556D01*
X014569Y027715D02*
X014291Y027715D01*
X014372Y027873D02*
X014488Y027873D01*
X014473Y028032D02*
X014387Y028032D01*
X014346Y028190D02*
X014514Y028190D01*
X014632Y028349D02*
X014228Y028349D01*
X014242Y028666D02*
X014618Y028666D01*
X014508Y028824D02*
X014352Y028824D01*
X014387Y028983D02*
X014473Y028983D01*
X014494Y029141D02*
X014366Y029141D01*
X014277Y029300D02*
X014583Y029300D01*
X015193Y029617D02*
X021386Y029617D01*
X021167Y029775D02*
X015331Y029775D01*
X015387Y029934D02*
X020948Y029934D01*
X020730Y030092D02*
X018491Y030092D01*
X018659Y030251D02*
X020511Y030251D01*
X020293Y030409D02*
X018708Y030409D01*
X018129Y030092D02*
X017861Y030092D01*
X017499Y030092D02*
X017271Y030092D01*
X017050Y030092D02*
X017050Y030092D01*
X017050Y030251D02*
X017050Y030251D01*
X017050Y030409D02*
X017050Y030409D01*
X017050Y030568D02*
X017050Y030568D01*
X017050Y030726D02*
X017050Y030726D01*
X017050Y030885D02*
X017050Y030885D01*
X016633Y030409D02*
X015136Y030409D01*
X015321Y030251D02*
X016682Y030251D01*
X016829Y030092D02*
X015386Y030092D01*
X013685Y028507D02*
X022916Y028507D01*
X023413Y028666D02*
X032590Y028666D01*
X032632Y028349D02*
X023850Y028349D01*
X023632Y028507D02*
X034175Y028507D01*
X033948Y028666D02*
X033912Y028666D01*
X033912Y028824D02*
X033948Y028824D01*
X033590Y028666D02*
X033270Y028666D01*
X033374Y028824D02*
X033486Y028824D01*
X033474Y029141D02*
X033386Y029141D01*
X033302Y029300D02*
X033558Y029300D01*
X032514Y028190D02*
X024069Y028190D01*
X024287Y028032D02*
X032473Y028032D01*
X032488Y027873D02*
X024506Y027873D01*
X024725Y027715D02*
X032569Y027715D01*
X032808Y027556D02*
X024943Y027556D01*
X025162Y027398D02*
X032696Y027398D01*
X032535Y027239D02*
X025380Y027239D01*
X025599Y027081D02*
X032473Y027081D01*
X032473Y026922D02*
X025818Y026922D01*
X026036Y026764D02*
X032533Y026764D01*
X032690Y026605D02*
X026255Y026605D01*
X026474Y026447D02*
X032814Y026447D01*
X032572Y026288D02*
X026692Y026288D01*
X026911Y026130D02*
X032489Y026130D01*
X032473Y025971D02*
X027129Y025971D01*
X027348Y025813D02*
X032513Y025813D01*
X032630Y025654D02*
X027567Y025654D01*
X027785Y025496D02*
X034175Y025496D01*
X034175Y024545D02*
X034024Y024545D01*
X034142Y023594D02*
X034175Y023594D01*
X034175Y023435D02*
X034074Y023435D01*
X032786Y023435D02*
X030635Y023435D01*
X030635Y023277D02*
X032560Y023277D01*
X032484Y023118D02*
X030615Y023118D01*
X030470Y022960D02*
X032473Y022960D01*
X032518Y022801D02*
X030629Y022801D01*
X030710Y022643D02*
X032641Y022643D01*
X032609Y022326D02*
X030710Y022326D01*
X030710Y022484D02*
X034175Y022484D01*
X032718Y023594D02*
X030635Y023594D01*
X030635Y023752D02*
X032538Y023752D01*
X032473Y023911D02*
X030587Y023911D01*
X029753Y024069D02*
X032473Y024069D01*
X032530Y024228D02*
X029534Y024228D01*
X029316Y024386D02*
X032670Y024386D01*
X032836Y024545D02*
X029097Y024545D01*
X028878Y024703D02*
X032581Y024703D01*
X032493Y024862D02*
X028660Y024862D01*
X028441Y025020D02*
X032473Y025020D01*
X032509Y025179D02*
X028223Y025179D01*
X028004Y025337D02*
X032621Y025337D01*
X034164Y027398D02*
X034175Y027398D01*
X034175Y027556D02*
X034052Y027556D01*
X029890Y022960D02*
X029470Y022960D01*
X029629Y022801D02*
X029731Y022801D01*
X028890Y022960D02*
X024351Y022960D01*
X024572Y022801D02*
X028731Y022801D01*
X028650Y022643D02*
X024651Y022643D01*
X024670Y022484D02*
X028650Y022484D01*
X028650Y022326D02*
X024638Y022326D01*
X024540Y022167D02*
X028763Y022167D01*
X030438Y022009D02*
X032473Y022009D01*
X032498Y021850D02*
X032385Y021850D01*
X032385Y021692D02*
X032592Y021692D01*
X032505Y022167D02*
X030597Y022167D01*
X030580Y021850D02*
X031475Y021850D01*
X031475Y021692D02*
X030710Y021692D01*
X030710Y021533D02*
X031475Y021533D01*
X031475Y021375D02*
X030710Y021375D01*
X030646Y021216D02*
X031349Y021216D01*
X031191Y021058D02*
X030487Y021058D01*
X030559Y020899D02*
X031032Y020899D01*
X030874Y020741D02*
X030717Y020741D01*
X030992Y020265D02*
X032549Y020265D01*
X032480Y020107D02*
X030834Y020107D01*
X030675Y019948D02*
X031561Y019948D01*
X031475Y019790D02*
X030640Y019790D01*
X030710Y019631D02*
X031475Y019631D01*
X031475Y019473D02*
X030710Y019473D01*
X030710Y019314D02*
X031447Y019314D01*
X031289Y019156D02*
X030585Y019156D01*
X030433Y018997D02*
X031130Y018997D01*
X030972Y018839D02*
X030591Y018839D01*
X030710Y018680D02*
X030813Y018680D01*
X031407Y018680D02*
X032604Y018680D01*
X032502Y018839D02*
X031566Y018839D01*
X031724Y018997D02*
X032473Y018997D01*
X032500Y019156D02*
X032385Y019156D01*
X032385Y019314D02*
X032598Y019314D01*
X032385Y019473D02*
X034175Y019473D01*
X032653Y019631D02*
X032385Y019631D01*
X032385Y019790D02*
X032523Y019790D01*
X032473Y019948D02*
X032299Y019948D01*
X027225Y017254D02*
X024608Y017254D01*
X024468Y017095D02*
X027268Y017095D01*
X024595Y016778D02*
X024458Y016915D01*
X023892Y017095D02*
X023882Y017095D01*
X023752Y017254D02*
X023723Y017254D01*
X023690Y017412D02*
X023565Y017412D01*
X023690Y017571D02*
X023406Y017571D01*
X023248Y017729D02*
X023744Y017729D01*
X023875Y017888D02*
X023089Y017888D01*
X021220Y018839D02*
X015358Y018839D01*
X015387Y018997D02*
X021220Y018997D01*
X021220Y019156D02*
X015360Y019156D01*
X015262Y019314D02*
X021220Y019314D01*
X021220Y019473D02*
X013685Y019473D01*
X013685Y020424D02*
X013759Y020424D01*
X013745Y020582D02*
X013685Y020582D01*
X013685Y021533D02*
X021220Y021533D01*
X021220Y021375D02*
X015202Y021375D01*
X015335Y021216D02*
X021220Y021216D01*
X021220Y021058D02*
X015387Y021058D01*
X015383Y020899D02*
X021220Y020899D01*
X021220Y020741D02*
X015317Y020741D01*
X015115Y020582D02*
X021220Y020582D01*
X021220Y020424D02*
X015101Y020424D01*
X015311Y020265D02*
X021220Y020265D01*
X021220Y020107D02*
X015380Y020107D01*
X015387Y019948D02*
X021220Y019948D01*
X021220Y019790D02*
X015337Y019790D01*
X015207Y019631D02*
X021220Y019631D01*
X021220Y021692D02*
X015268Y021692D01*
X015362Y021850D02*
X021220Y021850D01*
X021220Y022009D02*
X015387Y022009D01*
X015355Y022167D02*
X021220Y022167D01*
X021220Y022326D02*
X015251Y022326D01*
X015219Y022643D02*
X021220Y022643D01*
X021220Y022801D02*
X015342Y022801D01*
X015387Y022960D02*
X021220Y022960D01*
X021220Y023118D02*
X015376Y023118D01*
X015300Y023277D02*
X021220Y023277D01*
X021220Y023435D02*
X015074Y023435D01*
X015142Y023594D02*
X021220Y023594D01*
X021220Y023752D02*
X015322Y023752D01*
X015387Y023911D02*
X021220Y023911D01*
X021220Y024069D02*
X015387Y024069D01*
X015330Y024228D02*
X021220Y024228D01*
X021220Y024386D02*
X015190Y024386D01*
X014581Y024703D02*
X014279Y024703D01*
X014367Y024862D02*
X014493Y024862D01*
X014473Y025020D02*
X014387Y025020D01*
X014351Y025179D02*
X014509Y025179D01*
X014621Y025337D02*
X014239Y025337D01*
X013836Y024545D02*
X013685Y024545D01*
X013685Y023594D02*
X013718Y023594D01*
X013685Y023435D02*
X013786Y023435D01*
X013685Y022484D02*
X021220Y022484D01*
X021220Y025813D02*
X019333Y025813D01*
X019340Y025819D02*
X019340Y025964D01*
X019237Y026067D01*
X019217Y026067D01*
X019217Y026520D01*
X019114Y026622D01*
X018969Y026622D01*
X018867Y026520D01*
X018867Y026437D01*
X018734Y026437D01*
X018662Y026437D01*
X018662Y026437D01*
X018660Y026435D01*
X018612Y026387D01*
X018562Y026437D01*
X018489Y026437D01*
X018417Y026437D01*
X018417Y026437D01*
X018317Y026437D01*
X018296Y026458D01*
X018277Y026477D01*
X018194Y026560D01*
X018194Y026560D01*
X018194Y026560D01*
X018122Y026560D01*
X018049Y026560D01*
X017925Y026560D01*
X017875Y026510D01*
X017825Y026560D01*
X017752Y026560D01*
X017680Y026560D01*
X017557Y026560D01*
X017495Y026499D01*
X017476Y026480D01*
X017395Y026560D01*
X017250Y026560D01*
X017148Y026458D01*
X017148Y026378D01*
X017068Y026458D01*
X017036Y026490D01*
X016965Y026560D01*
X016820Y026560D01*
X016768Y026508D01*
X016718Y026458D01*
X016718Y026334D01*
X016656Y026273D01*
X016656Y026128D01*
X016718Y026066D01*
X016718Y025943D01*
X016820Y025840D01*
X016965Y025840D01*
X017046Y025921D01*
X017127Y025840D01*
X017519Y025840D01*
X017538Y025859D01*
X017556Y025841D01*
X017557Y025840D01*
X017629Y025840D01*
X017825Y025840D01*
X017844Y025859D01*
X017863Y025840D01*
X018255Y025840D01*
X018274Y025859D01*
X018293Y025840D01*
X018367Y025840D01*
X018907Y025840D01*
X018969Y025778D01*
X019031Y025717D01*
X019176Y025717D01*
X019237Y025717D01*
X019340Y025819D01*
X019333Y025971D02*
X021220Y025971D01*
X020983Y026130D02*
X019217Y026130D01*
X019217Y026288D02*
X020975Y026288D01*
X020975Y026447D02*
X019217Y026447D01*
X019131Y026605D02*
X020975Y026605D01*
X020975Y026764D02*
X015327Y026764D01*
X015387Y026922D02*
X021035Y026922D01*
X018952Y026605D02*
X015170Y026605D01*
X015046Y026447D02*
X016718Y026447D01*
X016671Y026288D02*
X015288Y026288D01*
X015371Y026130D02*
X016656Y026130D01*
X016718Y025971D02*
X015387Y025971D01*
X015347Y025813D02*
X018935Y025813D01*
X018969Y025778D02*
X018969Y025778D01*
X018867Y026447D02*
X018307Y026447D01*
X018296Y026458D02*
X018296Y026458D01*
X018562Y026437D02*
X018562Y026437D01*
X018562Y026437D01*
X018049Y026560D02*
X018049Y026560D01*
X017825Y026560D02*
X017825Y026560D01*
X017825Y026560D01*
X017680Y026560D02*
X017680Y026560D01*
X017148Y026447D02*
X017079Y026447D01*
X017068Y026458D02*
X017068Y026458D01*
X017557Y025840D02*
X017557Y025840D01*
X013814Y026447D02*
X013685Y026447D01*
X013685Y026605D02*
X013690Y026605D01*
X013685Y027398D02*
X013696Y027398D01*
X013685Y027556D02*
X013808Y027556D01*
X030554Y014876D02*
X031475Y014876D01*
X031475Y014718D02*
X030710Y014718D01*
X030710Y014559D02*
X031554Y014559D01*
X031720Y014401D02*
X030710Y014401D01*
X030672Y014242D02*
X031720Y014242D01*
X031717Y014084D02*
X030513Y014084D01*
X030533Y013925D02*
X031558Y013925D01*
X031400Y013767D02*
X030691Y013767D01*
X030730Y013608D02*
X031241Y013608D01*
X031083Y013450D02*
X030730Y013450D01*
X030730Y013291D02*
X030924Y013291D01*
X030766Y013133D02*
X030590Y013133D01*
X030607Y012974D02*
X030456Y012974D01*
X034059Y014559D02*
X034175Y014559D01*
X034175Y014401D02*
X034157Y014401D01*
X034175Y007268D02*
X029998Y007268D01*
X030060Y007110D02*
X034175Y007110D01*
X034175Y006951D02*
X030096Y006951D01*
X030132Y006793D02*
X034175Y006793D01*
D19*
X031930Y015000D03*
X031930Y016000D03*
X031930Y019500D03*
X031930Y021500D03*
X030180Y023500D03*
X027680Y019500D03*
X027680Y017500D03*
X027180Y015000D03*
X022180Y019750D03*
X021430Y026500D03*
X025680Y031500D03*
D20*
X020180Y030750D02*
X030180Y023500D01*
X031930Y021500D02*
X030430Y020000D01*
X029680Y020000D01*
X029180Y019500D01*
X027680Y019500D02*
X027680Y020500D01*
X024180Y020500D01*
X023430Y020250D02*
X026180Y017500D01*
X027680Y017500D01*
X029180Y017500D02*
X029680Y018000D01*
X030430Y018000D01*
X031930Y019500D01*
X031930Y016000D02*
X029680Y016000D01*
X029180Y015500D01*
X031930Y015000D02*
X031930Y014000D01*
X030430Y012500D01*
X030180Y012500D01*
X024180Y015500D02*
X021430Y018250D01*
X021430Y026500D01*
X024180Y022500D02*
X023430Y021750D01*
X023430Y020250D01*
X022180Y019750D02*
X022180Y018500D01*
X024180Y016500D01*
X020180Y030750D02*
X018430Y030750D01*
X018310Y030923D01*
M02*
