%
M48
M72
T01C0.0276
T02C0.0394
T03C0.0394
T04C0.0400
T05C0.0650
T06C0.0787
%
T01
X17050Y30923
X17680Y30923
X18310Y30923
X17995Y31435
X17365Y31435
T02
X13930Y8000
X13930Y9000
X13930Y10000
X13930Y11000
X14930Y11000
X14930Y10000
X14930Y9000
X14930Y8000
X14930Y12000
X14930Y13000
X14930Y14000
X14930Y15000
X13930Y15000
X13930Y14000
X13930Y13000
X13930Y12000
X13930Y16000
X13930Y17000
X13930Y18000
X14930Y18000
X14930Y17000
X14930Y16000
X14930Y19000
X14930Y20000
X14930Y21000
X14930Y22000
X13930Y22000
X13930Y21000
X13930Y20000
X13930Y19000
X13930Y23000
X13930Y24000
X13930Y25000
X13930Y26000
X14930Y26000
X14930Y25000
X14930Y24000
X14930Y23000
X14930Y27000
X14930Y28000
X14930Y29000
X14930Y30000
X13930Y30000
X13930Y29000
X13930Y28000
X13930Y27000
X32930Y27000
X32930Y28000
X32930Y29000
X32930Y30000
X33930Y30000
X33930Y29000
X33930Y28000
X33930Y27000
X33930Y26000
X33930Y25000
X33930Y24000
X33930Y23000
X32930Y23000
X32930Y24000
X32930Y25000
X32930Y26000
X32930Y22000
X32930Y21000
X32930Y20000
X32930Y19000
X33930Y19000
X33930Y20000
X33930Y21000
X33930Y22000
X33930Y18000
X33930Y17000
X33930Y16000
X32930Y16000
X32930Y17000
X32930Y18000
X32930Y15000
X32930Y14000
X32930Y13000
X32930Y12000
X33930Y12000
X33930Y13000
X33930Y14000
X33930Y15000
X33930Y11000
X33930Y10000
X33930Y9000
X33930Y8000
X32930Y8000
X32930Y9000
X32930Y10000
X32930Y11000
T03
X31930Y15000
X31930Y16000
X31930Y19500
X31930Y21500
X30180Y23500
X27680Y19500
X27680Y17500
X27180Y15000
X22180Y19750
X21430Y26500
X25680Y31500
T04
X24180Y22500
X24180Y21500
X24180Y20500
X24180Y17500
X24180Y16500
X24180Y15500
X25180Y14000
X29180Y13500
X29180Y12500
X29180Y11500
X30180Y11500
X30180Y12500
X30180Y13500
X30180Y14500
X29180Y14500
X29180Y15500
X29180Y16500
X29180Y17500
X29180Y18500
X30180Y18500
X30180Y17500
X30180Y16500
X30180Y15500
X30180Y19500
X30180Y20500
X30180Y21500
X30180Y22500
X29180Y22500
X29180Y21500
X29180Y20500
X29180Y19500
X29180Y10500
X30180Y10500
X17180Y8000
T05
X22860Y30360
X22860Y33120
T06
X19117Y32951
X16243Y32951
M30
